<?xml version="1.0" standalone="no"?>
<!DOCTYPE svg PUBLIC "-//W3C//DTD SVG 20010904//EN"
 "http://www.w3.org/TR/2001/REC-SVG-20010904/DTD/svg10.dtd">
<svg version="1.0" xmlns="http://www.w3.org/2000/svg"
 width="80.000000pt" height="131.000000pt" viewBox="0 0 80.000000 131.000000"
 preserveAspectRatio="xMidYMid meet">
<metadata>
Created by potrace 1.15, written by Peter Selinger 2001-2017
</metadata>
<g transform="translate(0.000000,131.000000) scale(0.100000,-0.100000)"
fill="#000000" stroke="none">
<path d="M510 1026 c0 -107 4 -197 8 -200 5 -3 12 -80 15 -172 3 -96 10 -171
16 -177 6 -6 11 -24 11 -39 0 -21 -5 -28 -20 -28 -11 0 -20 6 -20 13 0 8 -9
22 -20 32 -11 10 -20 22 -20 27 0 15 -45 50 -80 64 -8 3 -23 10 -32 15 -23 12
-55 12 -63 -1 -3 -5 -24 -10 -46 -10 -23 0 -39 -5 -39 -12 0 -7 -12 -25 -27
-40 -22 -24 -28 -40 -31 -94 -3 -45 0 -70 9 -82 23 -28 36 -56 44 -90 3 -18
11 -32 16 -32 5 0 9 -6 9 -14 0 -7 20 -32 45 -55 l45 -41 93 0 c81 0 96 3 112
20 18 20 17 20 -67 20 -55 0 -95 5 -114 15 -52 25 -104 96 -104 139 0 12 -5
27 -10 32 -6 6 -13 33 -17 61 -7 61 18 113 54 113 12 0 25 4 28 10 9 14 41 13
67 -2 26 -16 102 -90 112 -109 19 -41 44 -71 66 -82 18 -9 26 -24 32 -57 4
-25 12 -46 18 -48 5 -2 10 -14 10 -27 0 -39 11 -55 36 -55 23 0 24 3 24 70 0
39 -4 70 -9 70 -5 0 -12 32 -16 70 -4 39 -11 73 -16 76 -5 3 -9 20 -9 38 0 17
-5 37 -11 43 -7 7 -13 104 -16 277 -4 146 -10 266 -15 266 -4 0 -8 33 -8 73 0
97 -7 117 -36 117 l-24 0 0 -194z"/>
</g>
</svg>
