<?xml version="1.0" standalone="no"?>
<!DOCTYPE svg PUBLIC "-//W3C//DTD SVG 20010904//EN"
 "http://www.w3.org/TR/2001/REC-SVG-20010904/DTD/svg10.dtd">
<svg version="1.0" xmlns="http://www.w3.org/2000/svg"
 width="84.000000pt" height="93.000000pt" viewBox="0 0 84.000000 93.000000"
 preserveAspectRatio="xMidYMid meet">
<metadata>
Created by potrace 1.15, written by Peter Selinger 2001-2017
</metadata>
<g transform="translate(0.000000,93.000000) scale(0.100000,-0.100000)"
fill="#000000" stroke="none">
<path d="M476 795 c-8 -8 -25 -15 -39 -15 -28 0 -62 -33 -52 -50 5 -9 1 -10
-15 -5 -19 6 -35 -5 -96 -66 -41 -41 -74 -78 -74 -83 0 -5 -6 -17 -14 -25 -27
-31 -56 -92 -62 -131 -4 -22 -10 -40 -15 -40 -5 0 -9 -11 -9 -25 0 -21 -5 -25
-31 -25 -24 0 -30 -4 -27 -18 2 -10 14 -18 31 -20 18 -2 27 -9 27 -21 0 -46
86 -161 121 -161 10 0 21 -5 24 -10 8 -13 162 -13 170 0 3 6 19 10 35 10 16 0
31 4 34 9 3 5 22 12 41 15 19 4 35 11 35 16 0 6 13 10 30 10 32 0 101 32 121
56 15 18 3 32 -13 16 -7 -7 -24 -12 -39 -12 -15 0 -30 -4 -33 -9 -3 -5 -21
-12 -40 -15 -19 -4 -36 -11 -38 -17 -2 -7 -61 -13 -151 -16 l-148 -6 -34 33
c-30 29 -35 40 -35 81 0 49 9 62 50 74 42 11 94 36 115 55 11 10 30 21 42 24
25 8 62 38 171 142 70 67 75 74 79 121 5 45 2 56 -22 87 -25 33 -32 36 -75 36
-30 0 -54 -6 -64 -15z m92 -89 c3 -37 -1 -44 -70 -113 -40 -40 -78 -73 -85
-73 -6 0 -16 -6 -20 -12 -9 -14 -37 -33 -70 -47 -11 -6 -24 -15 -28 -20 -3 -6
-13 -11 -22 -11 -9 0 -24 -7 -34 -16 -9 -8 -27 -14 -38 -12 -19 3 -19 5 -7 33
8 17 21 46 29 66 17 36 85 120 125 152 12 10 22 25 22 33 0 8 6 14 13 14 18 0
75 28 83 41 3 6 27 9 52 7 47 -3 47 -3 50 -42z"/>
</g>
</svg>
