<?xml version="1.0" standalone="no"?>
<!DOCTYPE svg PUBLIC "-//W3C//DTD SVG 20010904//EN"
 "http://www.w3.org/TR/2001/REC-SVG-20010904/DTD/svg10.dtd">
<svg version="1.0" xmlns="http://www.w3.org/2000/svg"
 width="101.000000pt" height="122.000000pt" viewBox="0 0 101.000000 122.000000"
 preserveAspectRatio="xMidYMid meet">
<metadata>
Created by potrace 1.15, written by Peter Selinger 2001-2017
</metadata>
<g transform="translate(0.000000,122.000000) scale(0.100000,-0.100000)"
fill="#000000" stroke="none">
<path d="M510 1083 c-14 -2 -39 -11 -57 -19 -17 -8 -34 -14 -37 -14 -15 0 -66
-62 -66 -80 0 -10 -4 -21 -9 -24 -4 -3 -12 -47 -16 -98 -4 -51 -11 -99 -17
-105 -6 -7 -25 -13 -44 -13 -18 0 -36 -4 -39 -10 -3 -5 -24 -10 -46 -10 -21 0
-39 -4 -39 -10 0 -5 -13 -10 -29 -10 -37 0 -59 -24 -41 -45 14 -17 105 -21
115 -5 3 6 19 10 34 10 15 0 32 5 38 11 6 6 21 9 34 7 30 -4 37 -30 38 -145 1
-50 6 -95 11 -98 6 -3 10 -19 10 -35 0 -16 4 -31 9 -34 4 -3 11 -40 15 -82 3
-42 11 -84 18 -92 7 -8 17 -24 23 -36 6 -11 21 -23 34 -24 23 -4 24 -1 18 38
-3 23 -12 49 -21 59 -10 11 -16 36 -16 69 0 29 -4 52 -10 52 -5 0 -10 24 -10
53 0 29 -5 58 -10 63 -7 7 -10 51 -8 110 l3 99 55 8 c30 4 146 4 258 1 146 -5
202 -3 202 5 0 6 -13 11 -29 11 -17 0 -33 5 -36 10 -3 6 -32 10 -64 10 -31 0
-62 5 -69 12 -8 8 -61 11 -172 10 l-160 -2 0 68 c0 40 6 79 15 96 8 15 15 37
15 47 0 48 116 109 207 109 34 0 65 -4 68 -10 8 -13 45 -13 45 -1 0 5 12 12
28 14 26 4 26 4 -4 6 -17 0 -37 8 -44 16 -9 11 -32 15 -94 14 -44 -1 -92 -4
-106 -6z"/>
</g>
</svg>
