<?xml version="1.0" standalone="no"?>
<!DOCTYPE svg PUBLIC "-//W3C//DTD SVG 20010904//EN"
 "http://www.w3.org/TR/2001/REC-SVG-20010904/DTD/svg10.dtd">
<svg version="1.0" xmlns="http://www.w3.org/2000/svg"
 width="119.000000pt" height="135.000000pt" viewBox="0 0 119.000000 135.000000"
 preserveAspectRatio="xMidYMid meet">
<metadata>
Created by potrace 1.15, written by Peter Selinger 2001-2017
</metadata>
<g transform="translate(0.000000,135.000000) scale(0.100000,-0.100000)"
fill="#000000" stroke="none">
<path d="M595 1243 c-11 -3 -24 -9 -29 -14 -6 -5 -16 -9 -24 -9 -21 0 -86 -32
-95 -47 -4 -7 -13 -13 -20 -13 -15 -1 -97 -77 -97 -91 0 -5 -11 -21 -25 -35
-14 -14 -25 -33 -25 -44 0 -10 -4 -22 -10 -25 -5 -3 -10 -41 -10 -84 0 -72 2
-79 28 -104 16 -15 39 -27 54 -27 15 0 30 -4 33 -10 9 -14 91 -12 115 2 16 10
24 10 40 0 23 -14 130 -17 130 -3 0 5 14 12 31 16 17 4 42 13 57 21 15 8 31
14 35 14 5 0 24 16 42 36 53 56 65 43 65 -65 0 -49 -4 -92 -9 -96 -5 -3 -12
-19 -16 -35 -4 -17 -11 -30 -16 -30 -5 0 -9 -10 -9 -21 0 -12 -11 -32 -25 -45
-14 -13 -25 -27 -25 -32 0 -4 -13 -21 -30 -37 -16 -16 -30 -34 -30 -40 0 -12
-92 -105 -104 -105 -5 0 -27 -16 -50 -36 -22 -20 -52 -46 -66 -58 -14 -12 -46
-32 -73 -45 -26 -14 -52 -30 -58 -38 -6 -7 -29 -13 -51 -13 -37 0 -39 -2 -36
-28 3 -24 8 -27 43 -30 33 -2 45 2 65 23 13 14 28 25 33 25 6 0 25 11 43 25
18 14 40 25 48 25 9 0 44 29 80 65 35 36 68 65 73 65 11 0 123 113 123 124 0
5 15 23 34 41 40 38 76 100 76 132 0 13 5 32 10 43 6 11 15 29 20 40 6 11 10
49 10 84 0 36 -4 68 -10 71 -5 3 -10 35 -10 70 0 35 5 67 10 70 6 3 10 24 10
46 0 21 -4 39 -10 39 -5 0 -10 9 -10 20 0 48 -76 129 -128 137 -20 3 -42 9
-47 14 -14 10 -133 20 -160 12z m130 -53 c3 -5 19 -10 36 -10 16 0 29 -4 29
-10 0 -5 6 -10 13 -10 18 0 51 -37 72 -82 27 -59 7 -125 -21 -69 -18 35 -66
81 -85 81 -10 0 -21 5 -24 10 -8 12 -172 13 -179 1 -3 -4 -19 -11 -34 -14 -16
-3 -32 -14 -36 -24 -3 -10 -14 -31 -25 -48 -16 -24 -20 -49 -20 -127 l-1 -98
-43 0 c-35 0 -49 6 -71 29 -26 27 -28 35 -24 87 3 32 10 60 16 62 7 2 12 13
12 24 0 25 31 78 45 78 7 0 22 11 35 25 13 14 31 25 41 25 10 0 24 6 31 14 8
7 25 17 38 21 14 4 27 10 30 14 23 28 151 44 165 21z m50 -181 c25 -23 45 -47
45 -54 0 -8 5 -15 12 -17 9 -3 9 -8 0 -19 -6 -8 -23 -29 -38 -46 -14 -18 -34
-33 -44 -33 -10 0 -23 -7 -30 -15 -7 -8 -19 -15 -26 -15 -8 0 -14 -4 -14 -10
0 -15 -153 -13 -168 2 -15 15 -16 175 -3 212 12 29 28 33 139 35 l82 1 45 -41z"/>
</g>
</svg>
