<?xml version="1.0" standalone="no"?>
<!DOCTYPE svg PUBLIC "-//W3C//DTD SVG 20010904//EN"
 "http://www.w3.org/TR/2001/REC-SVG-20010904/DTD/svg10.dtd">
<svg version="1.0" xmlns="http://www.w3.org/2000/svg"
 width="58.000000pt" height="106.000000pt" viewBox="0 0 58.000000 106.000000"
 preserveAspectRatio="xMidYMid meet">
<metadata>
Created by potrace 1.15, written by Peter Selinger 2001-2017
</metadata>
<g transform="translate(0.000000,106.000000) scale(0.100000,-0.100000)"
fill="#000000" stroke="none">
<path d="M134 734 c-1 -174 -5 -259 -13 -267 -6 -6 -11 -48 -11 -104 0 -55 -4
-93 -10 -93 -5 0 -10 -13 -10 -30 0 -16 5 -30 10 -30 6 0 10 -12 10 -26 0 -23
3 -25 37 -22 33 3 38 7 46 37 15 59 144 200 183 201 20 0 22 -7 26 -91 3 -50
10 -94 14 -98 5 -3 14 -15 20 -26 15 -27 69 -42 89 -25 21 17 19 30 -6 30 -36
0 -47 23 -54 118 -4 51 -11 92 -16 92 -5 0 -9 12 -9 26 0 28 -24 53 -50 54 -9
0 -34 -18 -55 -40 -23 -24 -48 -40 -62 -40 -14 0 -23 -6 -23 -15 0 -8 -13 -24
-30 -37 -17 -12 -30 -30 -30 -40 0 -10 -4 -18 -10 -18 -13 0 -13 53 0 66 12
12 26 542 16 597 -6 32 -11 37 -34 37 l-27 0 -1 -256z"/>
</g>
</svg>
