<?xml version="1.0" standalone="no"?>
<!DOCTYPE svg PUBLIC "-//W3C//DTD SVG 20010904//EN"
 "http://www.w3.org/TR/2001/REC-SVG-20010904/DTD/svg10.dtd">
<svg version="1.0" xmlns="http://www.w3.org/2000/svg"
 width="49.000000pt" height="110.000000pt" viewBox="0 0 49.000000 110.000000"
 preserveAspectRatio="xMidYMid meet">
<metadata>
Created by potrace 1.15, written by Peter Selinger 2001-2017
</metadata>
<g transform="translate(0.000000,110.000000) scale(0.100000,-0.100000)"
fill="#000000" stroke="none">
<path d="M191 997 c-8 -11 -6 -18 8 -31 16 -15 31 -16 105 -10 53 4 90 12 97
20 9 12 4 14 -30 14 -22 0 -41 5 -41 10 0 16 -125 12 -139 -3z"/>
<path d="M278 563 c-10 -2 -18 -9 -18 -14 0 -5 -7 -9 -15 -9 -10 0 -15 -10
-15 -30 0 -16 -3 -30 -8 -30 -4 0 -14 -15 -22 -32 -19 -41 -20 -232 -2 -250 7
-7 12 -22 12 -33 0 -12 7 -36 16 -53 12 -25 22 -32 45 -32 22 0 29 5 29 19 0
11 -4 22 -9 26 -30 18 -41 71 -41 191 0 71 4 125 10 129 6 3 10 15 10 26 0 20
33 59 51 59 6 0 9 8 7 17 -3 19 -21 24 -50 16z"/>
</g>
</svg>
