<?xml version="1.0" standalone="no"?>
<!DOCTYPE svg PUBLIC "-//W3C//DTD SVG 20010904//EN"
 "http://www.w3.org/TR/2001/REC-SVG-20010904/DTD/svg10.dtd">
<svg version="1.0" xmlns="http://www.w3.org/2000/svg"
 width="75.000000pt" height="148.000000pt" viewBox="0 0 75.000000 148.000000"
 preserveAspectRatio="xMidYMid meet">
<metadata>
Created by potrace 1.15, written by Peter Selinger 2001-2017
</metadata>
<g transform="translate(0.000000,148.000000) scale(0.100000,-0.100000)"
fill="#000000" stroke="none">
<path d="M320 1311 c0 -20 4 -21 140 -21 118 0 140 2 140 15 0 12 -15 15 -79
15 -43 0 -106 3 -140 6 -58 7 -61 6 -61 -15z"/>
<path d="M413 1083 c-15 -5 -18 -59 -4 -67 5 -3 12 -33 16 -66 4 -33 11 -60
16 -60 5 0 9 -9 9 -21 0 -11 11 -40 25 -65 14 -24 28 -63 31 -86 4 -23 13 -53
21 -67 7 -14 13 -52 13 -83 0 -31 5 -60 10 -63 15 -9 12 -129 -4 -160 -14 -26
-41 -47 -78 -61 -10 -3 -18 -9 -18 -13 0 -11 -57 -41 -78 -41 -11 0 -22 -5
-24 -12 -6 -16 -129 -23 -157 -9 -14 8 -21 21 -21 39 0 16 -7 37 -15 48 -8 10
-15 38 -15 60 0 24 -6 47 -15 54 -13 11 -15 3 -15 -63 0 -42 4 -78 9 -81 5 -3
12 -21 15 -39 3 -19 18 -45 32 -58 22 -20 38 -24 105 -28 73 -3 84 -1 146 30
38 18 88 51 113 72 25 21 51 43 58 48 6 5 12 18 12 29 0 10 4 22 10 25 13 8
13 212 0 220 -14 9 -12 62 3 68 9 4 9 8 -1 23 -6 11 -15 26 -18 34 -3 8 -21
47 -39 85 -19 39 -37 82 -41 98 -3 15 -10 29 -14 32 -5 3 -11 40 -15 83 -9 97
-23 115 -72 95z"/>
</g>
</svg>
