<?xml version="1.0" standalone="no"?>
<!DOCTYPE svg PUBLIC "-//W3C//DTD SVG 20010904//EN"
 "http://www.w3.org/TR/2001/REC-SVG-20010904/DTD/svg10.dtd">
<svg version="1.0" xmlns="http://www.w3.org/2000/svg"
 width="110.000000pt" height="99.000000pt" viewBox="0 0 110.000000 99.000000"
 preserveAspectRatio="xMidYMid meet">
<metadata>
Created by potrace 1.15, written by Peter Selinger 2001-2017
</metadata>
<g transform="translate(0.000000,99.000000) scale(0.100000,-0.100000)"
fill="#000000" stroke="none">
<path d="M92 918 c-14 -14 -17 -134 -4 -142 5 -3 12 -65 16 -138 4 -73 11
-135 15 -138 5 -3 12 -24 16 -47 4 -24 11 -45 16 -49 5 -3 9 -18 9 -34 0 -16
4 -31 9 -34 5 -3 12 -26 15 -50 13 -86 72 -166 90 -121 6 17 -20 84 -37 96 -5
4 -11 45 -14 93 -6 85 -5 88 22 116 16 17 36 30 44 30 8 0 32 17 53 37 37 36
38 36 58 18 11 -10 20 -25 20 -34 0 -19 109 -131 128 -131 7 0 12 -4 12 -9 0
-5 13 -12 30 -16 16 -4 32 -11 35 -16 4 -5 19 -9 34 -9 15 0 36 -7 47 -15 27
-20 293 -22 272 -2 -8 8 -49 16 -104 20 -65 4 -101 11 -128 26 -20 12 -43 21
-52 21 -23 0 -104 39 -104 50 0 6 -6 10 -13 10 -7 0 -37 24 -66 54 -42 43 -52
59 -49 81 2 15 10 31 18 35 55 26 88 46 107 67 12 13 28 23 36 23 8 0 35 11
61 25 26 14 58 25 72 25 16 0 24 5 22 13 -6 15 -95 22 -122 9 -66 -31 -96 -42
-116 -42 -13 0 -33 -11 -46 -25 -13 -14 -31 -25 -40 -25 -9 0 -32 -13 -51 -30
-18 -16 -39 -30 -46 -30 -7 0 -30 -18 -52 -40 -21 -21 -48 -40 -59 -42 -13 -2
-22 -12 -24 -25 -2 -13 -9 -23 -16 -23 -25 0 -36 25 -36 80 0 31 -4 60 -9 65
-5 6 -11 51 -15 102 l-7 92 42 3 c24 2 44 9 47 16 2 6 -2 12 -8 12 -7 0 -29
14 -50 30 -41 32 -59 37 -78 18z"/>
</g>
</svg>
