<?xml version="1.0" standalone="no"?>
<!DOCTYPE svg PUBLIC "-//W3C//DTD SVG 20010904//EN"
 "http://www.w3.org/TR/2001/REC-SVG-20010904/DTD/svg10.dtd">
<svg version="1.0" xmlns="http://www.w3.org/2000/svg"
 width="70.000000pt" height="111.000000pt" viewBox="0 0 70.000000 111.000000"
 preserveAspectRatio="xMidYMid meet">
<metadata>
Created by potrace 1.15, written by Peter Selinger 2001-2017
</metadata>
<g transform="translate(0.000000,111.000000) scale(0.100000,-0.100000)"
fill="#000000" stroke="none">
<path d="M288 993 c-15 -17 -28 -45 -32 -73 -4 -24 -12 -51 -19 -59 -16 -19
-17 -428 -1 -439 6 -4 14 -36 18 -72 6 -56 17 -90 55 -170 4 -8 17 -19 29 -25
12 -5 22 -13 22 -17 0 -12 33 -9 52 6 15 11 13 16 -27 50 -25 20 -45 45 -45
54 0 10 -4 22 -10 28 -5 5 -12 46 -16 92 -4 45 -11 82 -15 82 -13 0 -11 347 1
355 6 3 10 30 11 58 2 83 10 102 47 105 24 2 32 8 32 23 0 13 -7 19 -24 19
-13 0 -31 2 -38 5 -8 3 -25 -7 -40 -22z"/>
</g>
</svg>
