<?xml version="1.0" standalone="no"?>
<!DOCTYPE svg PUBLIC "-//W3C//DTD SVG 20010904//EN"
 "http://www.w3.org/TR/2001/REC-SVG-20010904/DTD/svg10.dtd">
<svg version="1.0" xmlns="http://www.w3.org/2000/svg"
 width="125.000000pt" height="119.000000pt" viewBox="0 0 125.000000 119.000000"
 preserveAspectRatio="xMidYMid meet">
<metadata>
Created by potrace 1.15, written by Peter Selinger 2001-2017
</metadata>
<g transform="translate(0.000000,119.000000) scale(0.100000,-0.100000)"
fill="#000000" stroke="none">
<path d="M620 843 c-35 -5 -106 -42 -126 -64 -10 -11 -21 -19 -27 -19 -5 0
-34 -22 -64 -50 -30 -27 -58 -50 -62 -50 -4 0 -17 -19 -29 -42 -11 -24 -39
-61 -61 -83 -23 -21 -41 -43 -41 -48 0 -16 -30 -39 -44 -34 -14 6 -26 51 -26
97 0 21 11 38 41 64 54 46 48 66 -18 66 -45 0 -49 -2 -63 -32 -10 -21 -15 -64
-15 -120 0 -82 1 -88 29 -117 17 -17 39 -31 51 -31 24 0 84 60 106 105 7 16
57 73 109 125 89 89 112 109 150 126 8 4 27 16 42 26 15 10 50 22 79 25 l51 6
-4 -78 c-2 -50 -8 -80 -16 -83 -15 -5 -16 -54 0 -70 27 -27 42 -16 94 71 7 10
29 37 50 58 31 32 45 39 69 37 29 -3 30 -4 40 -80 6 -42 13 -80 18 -84 4 -4 7
-15 7 -24 0 -25 53 -70 91 -76 19 -3 45 -1 59 5 25 10 25 10 -6 10 -30 1 -65
30 -90 77 -7 11 -15 59 -19 106 -9 109 -27 131 -101 126 -40 -3 -50 -7 -63
-32 -9 -16 -21 -29 -26 -30 -9 -1 -37 49 -49 87 -10 30 -62 42 -136 30z"/>
</g>
</svg>
