<?xml version="1.0" standalone="no"?>
<!DOCTYPE svg PUBLIC "-//W3C//DTD SVG 20010904//EN"
 "http://www.w3.org/TR/2001/REC-SVG-20010904/DTD/svg10.dtd">
<svg version="1.0" xmlns="http://www.w3.org/2000/svg"
 width="96.000000pt" height="87.000000pt" viewBox="0 0 96.000000 87.000000"
 preserveAspectRatio="xMidYMid meet">
<metadata>
Created by potrace 1.15, written by Peter Selinger 2001-2017
</metadata>
<g transform="translate(0.000000,87.000000) scale(0.100000,-0.100000)"
fill="#000000" stroke="none">
<path d="M576 701 c-3 -5 -20 -12 -38 -16 -25 -5 -59 -35 -137 -119 -57 -62
-107 -121 -111 -132 -4 -11 -15 -26 -24 -33 -9 -7 -16 -18 -16 -23 0 -10 -25
-38 -34 -38 -3 0 -6 27 -6 59 0 43 4 60 15 65 19 7 21 66 2 66 -28 0 -57 -45
-57 -88 0 -22 -5 -44 -10 -47 -6 -3 -10 -26 -10 -50 0 -24 4 -47 10 -50 5 -3
10 -20 10 -36 0 -68 61 -36 104 56 14 28 34 59 45 69 12 11 21 24 21 31 0 7
14 22 30 35 17 13 30 28 30 35 0 15 94 102 160 148 36 25 92 22 118 -6 20 -21
22 -34 22 -125 0 -56 -4 -104 -10 -107 -13 -8 -13 -99 -1 -123 5 -9 12 -25 15
-35 3 -9 13 -17 23 -17 17 0 18 15 18 214 l0 215 -29 30 c-26 27 -37 31 -82
31 -29 0 -55 -4 -58 -9z"/>
</g>
</svg>
