<?xml version="1.0" standalone="no"?>
<!DOCTYPE svg PUBLIC "-//W3C//DTD SVG 20010904//EN"
 "http://www.w3.org/TR/2001/REC-SVG-20010904/DTD/svg10.dtd">
<svg version="1.0" xmlns="http://www.w3.org/2000/svg"
 width="78.000000pt" height="80.000000pt" viewBox="0 0 78.000000 80.000000"
 preserveAspectRatio="xMidYMid meet">
<metadata>
Created by potrace 1.15, written by Peter Selinger 2001-2017
</metadata>
<g transform="translate(0.000000,80.000000) scale(0.100000,-0.100000)"
fill="#000000" stroke="none">
<path d="M385 606 c-38 -20 -77 -44 -87 -56 -9 -11 -20 -20 -24 -20 -12 0 -64
-52 -64 -64 -1 -6 -14 -22 -30 -36 -17 -13 -30 -33 -30 -43 0 -11 -9 -28 -21
-38 -12 -10 -23 -35 -26 -59 -3 -22 -10 -43 -14 -46 -13 -8 -11 -68 3 -82 15
-15 214 -17 223 -2 3 6 24 10 45 10 21 0 43 6 47 13 12 19 74 64 101 72 13 4
61 45 108 91 l84 85 0 73 c0 68 -2 74 -31 102 -28 27 -36 29 -122 32 -88 2
-95 1 -162 -32z m235 -42 c29 -26 40 -44 40 -65 0 -16 -4 -29 -9 -29 -5 0 -12
-12 -16 -27 -7 -31 -59 -90 -90 -104 -22 -10 -57 -31 -65 -39 -3 -3 -22 -14
-42 -25 -21 -11 -38 -23 -38 -26 0 -4 -13 -10 -30 -14 -16 -4 -32 -11 -35 -16
-4 -5 -21 -9 -40 -9 -19 0 -37 -4 -40 -10 -9 -14 -56 -13 -87 2 -30 14 -54 48
-41 57 9 6 43 74 43 86 0 4 11 16 25 27 14 11 25 25 25 31 0 16 81 97 97 97 7
0 13 3 13 8 0 4 9 12 19 17 170 88 210 94 271 39z"/>
</g>
</svg>
