<?xml version="1.0" standalone="no"?>
<!DOCTYPE svg PUBLIC "-//W3C//DTD SVG 20010904//EN"
 "http://www.w3.org/TR/2001/REC-SVG-20010904/DTD/svg10.dtd">
<svg version="1.0" xmlns="http://www.w3.org/2000/svg"
 width="71.000000pt" height="117.000000pt" viewBox="0 0 71.000000 117.000000"
 preserveAspectRatio="xMidYMid meet">
<metadata>
Created by potrace 1.15, written by Peter Selinger 2001-2017
</metadata>
<g transform="translate(0.000000,117.000000) scale(0.100000,-0.100000)"
fill="#000000" stroke="none">
<path d="M205 1067 c-33 -19 -105 -96 -105 -112 0 -8 4 -24 10 -35 5 -11 15
-29 20 -40 13 -25 13 -67 0 -75 -6 -3 -10 -28 -10 -55 0 -56 -13 -70 -41 -44
-18 17 -19 16 -19 -14 0 -24 6 -34 27 -44 28 -13 28 -13 31 -132 2 -73 -1
-123 -8 -130 -13 -13 -13 -56 0 -56 6 0 10 -27 10 -60 0 -33 4 -68 9 -78 5 -9
12 -25 15 -35 3 -10 15 -17 31 -17 23 0 25 3 25 49 0 28 -5 53 -10 56 -15 9
-13 378 2 393 7 7 27 12 44 12 18 0 36 5 39 10 3 6 14 10 23 10 9 1 35 9 57
20 22 11 58 19 79 20 42 0 90 30 135 83 13 16 35 33 48 38 20 7 23 15 23 62 0
53 -1 55 -59 108 -32 30 -66 60 -74 67 -21 16 -273 15 -302 -1z m301 -78 c16
-17 39 -35 52 -40 26 -10 30 -50 7 -73 -8 -8 -15 -24 -15 -35 0 -16 -6 -21
-28 -21 -18 0 -38 -11 -57 -30 -16 -16 -35 -30 -42 -30 -7 0 -13 -4 -13 -10 0
-5 -10 -10 -23 -10 -13 0 -28 -5 -34 -11 -6 -6 -43 -14 -82 -17 l-71 -5 0 86
c0 47 -4 89 -10 92 -5 3 -10 31 -10 61 0 41 4 54 15 54 8 0 15 5 15 10 0 6 51
10 133 10 l133 0 30 -31z"/>
</g>
</svg>
