<?xml version="1.0" standalone="no"?>
<!DOCTYPE svg PUBLIC "-//W3C//DTD SVG 20010904//EN"
 "http://www.w3.org/TR/2001/REC-SVG-20010904/DTD/svg10.dtd">
<svg version="1.0" xmlns="http://www.w3.org/2000/svg"
 width="148.000000pt" height="155.000000pt" viewBox="0 0 148.000000 155.000000"
 preserveAspectRatio="xMidYMid meet">
<metadata>
Created by potrace 1.15, written by Peter Selinger 2001-2017
</metadata>
<g transform="translate(0.000000,155.000000) scale(0.100000,-0.100000)"
fill="#000000" stroke="none">
<path d="M783 1411 c-4 -15 -13 -21 -34 -21 -15 0 -31 5 -34 10 -3 6 -26 10
-51 10 -24 0 -44 -4 -44 -10 0 -5 -24 -10 -53 -10 -33 0 -66 -7 -90 -20 -20
-11 -45 -20 -55 -20 -10 0 -24 -9 -32 -20 -8 -11 -19 -20 -25 -20 -14 0 -75
-62 -75 -76 0 -5 -9 -16 -21 -24 -11 -8 -31 -37 -45 -65 -13 -27 -28 -57 -32
-65 -27 -47 -32 -64 -32 -105 0 -25 -4 -45 -10 -45 -5 0 -10 -13 -10 -30 0
-16 5 -30 10 -30 6 0 10 -11 10 -23 0 -13 8 -31 18 -40 19 -18 92 -24 92 -8 0
5 23 11 52 13 29 3 54 11 56 17 2 6 16 11 32 11 15 0 33 7 40 15 7 8 23 15 36
15 13 0 24 5 24 10 0 6 11 10 25 10 20 0 25 5 25 24 0 14 -4 27 -10 31 -9 6
-15 3 -77 -29 -17 -9 -40 -16 -51 -16 -12 0 -23 -4 -26 -9 -3 -5 -22 -12 -41
-15 -19 -4 -35 -11 -35 -16 0 -14 -94 -12 -108 2 -15 15 -16 81 -2 108 5 11
14 28 19 39 5 10 13 36 17 57 4 22 10 41 13 44 9 7 30 42 41 68 5 12 20 26 32
31 13 5 34 21 47 35 14 14 30 26 38 26 7 0 13 4 13 9 0 17 63 42 118 48 29 3
55 10 58 14 3 5 25 9 50 9 42 0 44 -1 44 -30 0 -33 19 -40 40 -15 7 8 19 15
27 15 12 0 13 -18 7 -117 -3 -65 -10 -122 -14 -128 -4 -5 -11 -25 -15 -43 -5
-26 -52 -79 -198 -228 -157 -159 -197 -194 -219 -194 -30 0 -35 -9 -16 -28 25
-25 63 -13 108 33 24 25 49 45 55 45 14 0 134 121 149 151 16 34 46 37 46 6 0
-14 -7 -30 -15 -37 -8 -7 -15 -25 -15 -41 0 -15 -4 -31 -10 -34 -5 -3 -10 -19
-10 -34 0 -15 -7 -36 -15 -47 -19 -25 -21 -273 -3 -307 19 -33 90 -107 104
-107 6 0 17 -7 24 -15 9 -11 34 -15 101 -15 48 0 90 4 93 9 3 5 31 12 62 16
34 4 65 14 77 26 12 10 29 19 38 19 10 0 21 5 24 10 7 12 84 50 100 50 16 0
80 68 71 77 -4 4 -10 3 -14 -2 -11 -15 -44 -32 -80 -39 -17 -4 -34 -12 -37
-17 -4 -5 -13 -9 -22 -9 -14 0 -64 -19 -104 -40 -9 -4 -41 -11 -72 -15 -32 -4
-57 -11 -57 -16 0 -5 -35 -9 -78 -9 l-78 0 -42 44 c-23 24 -42 54 -42 65 0 12
-4 21 -10 21 -6 0 -10 37 -10 90 0 50 4 90 9 90 5 0 12 25 16 57 4 31 12 66
17 77 23 45 27 55 34 92 3 22 10 44 14 49 4 6 11 25 15 44 4 19 15 49 25 66
10 17 21 46 25 63 3 18 10 32 15 32 4 0 11 12 15 27 3 15 14 38 24 52 10 14
21 54 25 88 6 56 4 67 -20 110 -15 27 -30 64 -33 83 -7 41 -39 55 -48 21z"/>
</g>
</svg>
