<?xml version="1.0" standalone="no"?>
<!DOCTYPE svg PUBLIC "-//W3C//DTD SVG 20010904//EN"
 "http://www.w3.org/TR/2001/REC-SVG-20010904/DTD/svg10.dtd">
<svg version="1.0" xmlns="http://www.w3.org/2000/svg"
 width="108.000000pt" height="111.000000pt" viewBox="0 0 108.000000 111.000000"
 preserveAspectRatio="xMidYMid meet">
<metadata>
Created by potrace 1.15, written by Peter Selinger 2001-2017
</metadata>
<g transform="translate(0.000000,111.000000) scale(0.100000,-0.100000)"
fill="#000000" stroke="none">
<path d="M561 1004 c-24 -13 -52 -24 -63 -24 -10 0 -18 -5 -18 -10 0 -6 -11
-15 -25 -20 -14 -5 -29 -18 -32 -27 -9 -24 -34 -48 -56 -56 -11 -4 -21 -16
-24 -27 -3 -11 -9 -20 -12 -20 -13 0 -51 -86 -51 -114 0 -14 -4 -26 -10 -26
-5 0 -10 -18 -10 -39 0 -22 -4 -43 -10 -46 -5 -3 -10 -15 -10 -27 0 -17 -2
-18 -15 -8 -12 10 -15 39 -15 142 0 106 -3 130 -15 134 -8 4 -23 0 -32 -7 -14
-12 -15 -34 -10 -177 3 -99 9 -168 16 -175 6 -6 11 -23 11 -38 0 -15 5 -31 10
-34 6 -3 10 -25 10 -48 0 -23 6 -54 13 -68 8 -14 17 -56 21 -93 7 -70 21 -96
52 -96 15 0 16 10 10 103 -3 56 -11 104 -16 105 -12 4 -13 139 -1 146 4 3 12
42 15 86 4 44 12 82 17 85 5 4 9 17 9 29 0 13 7 37 15 52 8 16 15 36 15 45 0
8 11 26 25 39 14 13 25 28 25 33 0 16 57 66 84 73 14 3 26 9 26 14 0 4 28 22
63 40 l62 33 164 -6 c144 -5 161 -4 137 8 -14 8 -53 17 -86 21 -33 4 -63 11
-66 15 -3 5 -44 9 -92 8 -72 0 -94 -5 -131 -25z"/>
</g>
</svg>
