<?xml version="1.0" standalone="no"?>
<!DOCTYPE svg PUBLIC "-//W3C//DTD SVG 20010904//EN"
 "http://www.w3.org/TR/2001/REC-SVG-20010904/DTD/svg10.dtd">
<svg version="1.0" xmlns="http://www.w3.org/2000/svg"
 width="64.000000pt" height="100.000000pt" viewBox="0 0 64.000000 100.000000"
 preserveAspectRatio="xMidYMid meet">
<metadata>
Created by potrace 1.15, written by Peter Selinger 2001-2017
</metadata>
<g transform="translate(0.000000,100.000000) scale(0.100000,-0.100000)"
fill="#000000" stroke="none">
<path d="M437 903 c-15 -8 -33 -23 -40 -34 -6 -10 -17 -19 -23 -19 -9 0 -74
-65 -196 -196 -28 -31 -78 -135 -78 -165 0 -31 34 -65 75 -75 17 -4 35 -10 40
-14 6 -4 50 -11 98 -15 118 -9 183 -41 135 -66 -13 -7 -27 -18 -31 -25 -4 -8
-14 -14 -21 -14 -6 0 -27 -16 -46 -35 -26 -27 -45 -36 -82 -41 -55 -8 -73 -24
-64 -59 5 -20 13 -25 36 -25 16 0 31 4 35 9 3 5 18 12 34 16 16 3 32 13 35 21
3 8 11 14 19 14 7 0 24 11 37 25 13 14 29 25 36 25 6 0 30 18 53 40 29 28 41
48 41 68 0 29 -26 62 -48 62 -7 0 -12 5 -12 10 0 6 -11 10 -24 10 -14 0 -27 4
-30 9 -3 4 -49 11 -103 14 -54 3 -110 12 -125 19 -28 13 -37 41 -18 53 6 3 10
17 10 30 0 13 11 36 24 52 14 16 28 41 31 56 5 19 14 27 29 27 23 0 109 80
130 121 15 30 63 57 103 58 40 1 50 17 27 42 -20 22 -48 23 -87 2z"/>
</g>
</svg>
