<?xml version="1.0" standalone="no"?>
<!DOCTYPE svg PUBLIC "-//W3C//DTD SVG 20010904//EN"
 "http://www.w3.org/TR/2001/REC-SVG-20010904/DTD/svg10.dtd">
<svg version="1.0" xmlns="http://www.w3.org/2000/svg"
 width="119.000000pt" height="137.000000pt" viewBox="0 0 119.000000 137.000000"
 preserveAspectRatio="xMidYMid meet">
<metadata>
Created by potrace 1.15, written by Peter Selinger 2001-2017
</metadata>
<g transform="translate(0.000000,137.000000) scale(0.100000,-0.100000)"
fill="#000000" stroke="none">
<path d="M420 1253 c0 -5 4 -13 9 -18 6 -6 13 -56 17 -113 4 -56 11 -105 15
-108 5 -3 9 -30 9 -60 l0 -54 -93 0 c-51 0 -97 -4 -103 -9 -5 -6 -31 -11 -59
-13 -46 -3 -50 -5 -50 -28 0 -23 4 -25 48 -28 28 -2 47 1 47 7 0 7 34 11 91
11 109 0 129 -13 129 -87 0 -23 5 -43 10 -43 6 0 10 -30 10 -69 0 -39 5 -73
10 -76 6 -4 10 -70 10 -164 0 -234 11 -283 51 -234 11 13 13 63 10 257 -2 132
-7 247 -11 256 -27 53 -31 71 -28 111 l3 44 114 7 c63 4 119 12 125 18 6 6 71
10 163 10 125 0 153 3 153 14 0 11 -23 16 -92 21 -117 9 -398 -1 -412 -15 -5
-5 -23 -10 -38 -10 -28 0 -28 0 -28 69 0 39 -4 73 -10 76 -5 3 -10 30 -10 58
0 29 -6 62 -14 73 -8 11 -16 38 -18 60 -3 34 -6 39 -30 42 -16 2 -28 -1 -28
-5z"/>
</g>
</svg>
