<?xml version="1.0" standalone="no"?>
<!DOCTYPE svg PUBLIC "-//W3C//DTD SVG 20010904//EN"
 "http://www.w3.org/TR/2001/REC-SVG-20010904/DTD/svg10.dtd">
<svg version="1.0" xmlns="http://www.w3.org/2000/svg"
 width="82.000000pt" height="107.000000pt" viewBox="0 0 82.000000 107.000000"
 preserveAspectRatio="xMidYMid meet">
<metadata>
Created by potrace 1.15, written by Peter Selinger 2001-2017
</metadata>
<g transform="translate(0.000000,107.000000) scale(0.100000,-0.100000)"
fill="#000000" stroke="none">
<path d="M557 952 c-12 -13 -17 -37 -17 -83 0 -36 -4 -69 -9 -75 -6 -5 -13
-55 -17 -112 -4 -56 -11 -105 -15 -108 -5 -3 -9 -18 -9 -34 0 -16 -4 -31 -9
-34 -5 -3 -12 -21 -15 -39 -3 -19 -21 -51 -39 -73 -37 -46 -55 -73 -63 -94 -5
-15 -57 -50 -75 -50 -5 0 -9 18 -9 40 0 22 -4 40 -9 40 -5 0 -13 25 -16 55 -4
30 -11 55 -16 55 -5 0 -9 13 -9 29 0 17 -4 32 -9 35 -4 3 -11 26 -15 52 -3 26
-10 52 -15 58 -5 6 -13 84 -17 174 -7 174 -16 195 -49 125 -15 -31 -17 -54
-12 -141 3 -57 10 -109 15 -115 6 -7 13 -49 17 -95 4 -45 11 -85 16 -88 5 -3
9 -16 9 -30 0 -13 4 -32 9 -42 6 -9 13 -38 16 -64 3 -26 10 -50 16 -53 5 -4 9
-14 9 -24 0 -32 52 -71 94 -71 32 0 45 7 82 44 24 24 46 55 49 68 9 34 40 72
54 64 6 -4 11 -23 11 -41 0 -19 9 -53 21 -75 19 -36 25 -40 59 -40 21 0 43 7
50 15 13 15 14 14 -35 30 -32 10 -37 55 -31 249 3 109 10 192 16 196 5 3 11
63 12 135 3 111 1 130 -13 133 -8 1 -23 -6 -32 -16z"/>
</g>
</svg>
