<?xml version="1.0" standalone="no"?>
<!DOCTYPE svg PUBLIC "-//W3C//DTD SVG 20010904//EN"
 "http://www.w3.org/TR/2001/REC-SVG-20010904/DTD/svg10.dtd">
<svg version="1.0" xmlns="http://www.w3.org/2000/svg"
 width="105.000000pt" height="110.000000pt" viewBox="0 0 105.000000 110.000000"
 preserveAspectRatio="xMidYMid meet">
<metadata>
Created by potrace 1.15, written by Peter Selinger 2001-2017
</metadata>
<g transform="translate(0.000000,110.000000) scale(0.100000,-0.100000)"
fill="#000000" stroke="none">
<path d="M850 973 c-14 -4 -23 -8 -70 -27 -48 -21 -170 -127 -170 -149 0 -5
-10 -23 -22 -40 -27 -38 -45 -67 -53 -87 -4 -8 -10 -22 -14 -30 -5 -9 -12 -30
-15 -48 -4 -17 -12 -34 -17 -37 -5 -4 -9 -17 -9 -31 0 -22 -24 -71 -41 -84 -4
-3 -10 -26 -14 -52 -4 -25 -15 -55 -25 -66 -10 -10 -21 -38 -25 -61 -9 -53
-23 -49 -55 15 -14 27 -28 51 -32 54 -4 3 -10 30 -14 60 -4 30 -10 60 -14 65
-4 6 -11 43 -15 83 -4 39 -11 75 -16 78 -5 3 -9 18 -9 34 0 16 -4 32 -10 35
-17 11 -12 156 6 176 17 19 11 39 -12 39 -8 0 -14 5 -14 10 0 15 -21 12 -41
-6 -14 -13 -16 -30 -12 -122 3 -59 9 -111 14 -117 5 -5 9 -24 9 -41 0 -18 4
-35 9 -39 5 -3 12 -36 16 -73 3 -37 10 -74 15 -83 5 -9 12 -34 15 -55 6 -39
19 -75 36 -104 5 -8 13 -25 19 -37 5 -13 28 -43 51 -68 48 -52 89 -62 89 -21
0 13 7 37 15 52 8 16 15 41 15 57 0 15 3 27 8 27 10 0 29 47 36 93 4 20 11 37
16 37 6 0 10 11 10 24 0 13 7 29 15 36 8 7 15 21 15 31 0 10 4 21 10 24 5 3
12 28 16 55 4 27 13 55 20 61 8 6 14 19 14 28 0 10 11 28 25 41 14 13 25 31
25 41 0 23 112 133 156 154 18 8 36 20 39 25 3 6 21 10 38 10 33 1 72 22 60
33 -7 8 -70 8 -93 0z"/>
</g>
</svg>
