<?xml version="1.0" standalone="no"?>
<!DOCTYPE svg PUBLIC "-//W3C//DTD SVG 20010904//EN"
 "http://www.w3.org/TR/2001/REC-SVG-20010904/DTD/svg10.dtd">
<svg version="1.0" xmlns="http://www.w3.org/2000/svg"
 width="139.000000pt" height="148.000000pt" viewBox="0 0 139.000000 148.000000"
 preserveAspectRatio="xMidYMid meet">
<metadata>
Created by potrace 1.15, written by Peter Selinger 2001-2017
</metadata>
<g transform="translate(0.000000,148.000000) scale(0.100000,-0.100000)"
fill="#000000" stroke="none">
<path d="M1240 1086 c-19 -21 -38 -47 -42 -57 -4 -11 -12 -19 -18 -19 -5 0
-10 -6 -10 -13 0 -8 -11 -24 -25 -37 -14 -13 -25 -30 -25 -37 0 -8 -25 -40
-55 -72 -30 -32 -55 -62 -55 -68 0 -5 -13 -22 -30 -38 -16 -16 -30 -32 -30
-37 0 -4 -19 -27 -42 -50 -38 -38 -47 -42 -92 -43 -46 0 -50 2 -69 35 -17 29
-21 59 -25 188 l-5 152 -28 0 c-30 0 -59 -31 -59 -63 0 -10 -8 -31 -19 -45
-10 -15 -22 -43 -25 -62 -7 -35 -21 -73 -37 -100 -5 -8 -12 -22 -15 -30 -25
-61 -45 -98 -63 -114 -12 -11 -21 -24 -21 -31 0 -6 -13 -24 -29 -39 l-29 -27
-19 28 c-32 48 -41 76 -48 148 -3 38 -10 74 -15 80 -4 5 -11 47 -15 92 -7 73
-11 87 -39 120 -56 63 -90 17 -46 -62 12 -22 22 -64 26 -115 4 -44 10 -80 15
-80 4 0 10 -30 14 -67 3 -38 15 -86 25 -108 10 -22 22 -51 26 -65 18 -65 72
-68 132 -7 23 23 42 46 42 51 0 5 18 30 40 56 22 26 40 54 40 62 0 8 9 24 20
36 11 12 23 36 26 54 18 100 54 119 54 29 0 -33 5 -63 10 -66 6 -3 10 -19 10
-34 0 -40 65 -101 108 -101 18 0 40 4 50 9 9 5 30 13 46 17 16 5 34 18 40 28
16 29 22 37 56 77 16 20 30 41 30 45 0 5 16 25 35 44 60 61 95 107 95 125 0
10 10 27 23 39 12 11 35 48 51 81 16 33 36 68 44 77 7 9 12 25 10 35 -2 15 -9
11 -38 -21z"/>
</g>
</svg>
