<?xml version="1.0" standalone="no"?>
<!DOCTYPE svg PUBLIC "-//W3C//DTD SVG 20010904//EN"
 "http://www.w3.org/TR/2001/REC-SVG-20010904/DTD/svg10.dtd">
<svg version="1.0" xmlns="http://www.w3.org/2000/svg"
 width="100.000000pt" height="100.000000pt" viewBox="0 0 100.000000 100.000000"
 preserveAspectRatio="xMidYMid meet">
<metadata>
Created by potrace 1.15, written by Peter Selinger 2001-2017
</metadata>
<g transform="translate(0.000000,100.000000) scale(0.100000,-0.100000)"
fill="#000000" stroke="none">
<path d="M663 853 c-4 -10 -24 -39 -45 -64 -21 -25 -38 -54 -38 -65 0 -11 -9
-26 -20 -34 -11 -8 -20 -19 -20 -25 0 -13 -82 -95 -95 -95 -10 0 -27 35 -40
80 -4 14 -15 34 -25 45 -9 11 -27 40 -39 64 -27 54 -76 104 -97 99 -9 -2 -22
-12 -28 -23 -6 -11 -15 -23 -20 -26 -14 -11 -21 -109 -7 -109 6 0 11 7 11 15
0 8 5 15 10 15 6 0 10 13 10 29 0 17 5 33 10 36 15 9 40 -13 40 -35 0 -10 7
-23 15 -30 8 -7 15 -23 15 -35 0 -13 4 -25 8 -27 4 -1 18 -23 30 -48 13 -25
32 -62 44 -82 l21 -37 -56 -63 c-67 -77 -170 -168 -189 -168 -8 0 -20 6 -26
12 -17 17 -33 -7 -30 -42 3 -23 7 -25 46 -24 32 1 50 8 70 27 16 15 32 27 37
27 5 0 51 41 102 92 79 79 94 90 107 78 9 -7 16 -18 16 -24 0 -14 131 -146
145 -146 6 0 26 -12 45 -28 19 -15 46 -32 60 -39 77 -34 100 -43 113 -43 9 0
19 -4 22 -10 9 -14 25 -12 25 3 0 21 -34 47 -60 47 -13 0 -42 16 -66 35 -23
19 -47 35 -52 35 -5 0 -17 9 -27 20 -10 11 -23 20 -29 20 -7 0 -18 10 -26 22
-8 12 -37 47 -65 78 -77 85 -82 97 -51 129 14 15 26 31 26 35 0 5 16 23 35 42
19 18 35 37 35 42 0 5 9 17 20 27 11 10 20 25 20 34 0 9 22 39 50 66 47 46 49
50 33 67 -21 23 -62 23 -70 1z"/>
</g>
</svg>
