<?xml version="1.0" standalone="no"?>
<!DOCTYPE svg PUBLIC "-//W3C//DTD SVG 20010904//EN"
 "http://www.w3.org/TR/2001/REC-SVG-20010904/DTD/svg10.dtd">
<svg version="1.0" xmlns="http://www.w3.org/2000/svg"
 width="74.000000pt" height="133.000000pt" viewBox="0 0 74.000000 133.000000"
 preserveAspectRatio="xMidYMid meet">
<metadata>
Created by potrace 1.15, written by Peter Selinger 2001-2017
</metadata>
<g transform="translate(0.000000,133.000000) scale(0.100000,-0.100000)"
fill="#000000" stroke="none">
<path d="M170 1213 c-36 -15 -44 -35 -43 -109 2 -72 3 -75 40 -112 22 -20 48
-42 58 -48 10 -6 23 -19 29 -30 6 -10 21 -29 34 -41 12 -12 22 -26 22 -31 0
-4 14 -21 30 -37 17 -16 30 -34 30 -40 0 -7 9 -20 20 -30 27 -25 28 -105 1
-129 -10 -9 -21 -31 -25 -47 -3 -17 -16 -45 -28 -62 -36 -49 -45 -71 -52 -120
-4 -26 -11 -49 -17 -52 -5 -4 -9 -40 -9 -81 0 -67 2 -74 20 -74 17 0 20 7 20
45 0 25 5 45 10 45 6 0 10 16 10 35 0 19 5 35 10 35 6 0 10 13 10 29 0 17 4
32 9 36 6 3 21 29 36 58 14 28 29 59 34 67 17 28 41 88 41 102 0 8 8 22 19 32
12 11 20 37 25 78 3 33 10 66 15 72 5 6 12 31 16 55 4 25 15 58 25 75 9 17 20
49 23 71 10 64 44 125 69 125 21 0 20 2 -7 30 -37 38 -69 37 -73 -2 -2 -16 -6
-28 -10 -28 -12 0 -30 -52 -36 -104 -3 -28 -10 -53 -16 -56 -5 -3 -12 -25 -16
-48 -4 -23 -11 -45 -15 -48 -5 -3 -9 -18 -9 -34 0 -16 -4 -32 -10 -35 -6 -3
-10 -15 -10 -26 0 -10 -3 -19 -8 -19 -11 0 -52 53 -69 90 -19 40 -94 120 -113
120 -20 0 -50 31 -50 52 0 9 -7 21 -15 28 -10 8 -15 31 -15 70 0 39 5 62 15
70 29 24 13 38 -25 23z"/>
</g>
</svg>
