<?xml version="1.0" standalone="no"?>
<!DOCTYPE svg PUBLIC "-//W3C//DTD SVG 20010904//EN"
 "http://www.w3.org/TR/2001/REC-SVG-20010904/DTD/svg10.dtd">
<svg version="1.0" xmlns="http://www.w3.org/2000/svg"
 width="139.000000pt" height="105.000000pt" viewBox="0 0 139.000000 105.000000"
 preserveAspectRatio="xMidYMid meet">
<metadata>
Created by potrace 1.15, written by Peter Selinger 2001-2017
</metadata>
<g transform="translate(0.000000,105.000000) scale(0.100000,-0.100000)"
fill="#000000" stroke="none">
<path d="M110 876 c0 -28 45 -56 90 -56 14 0 32 -6 38 -12 9 -9 68 -14 200
-16 103 -2 191 -8 196 -13 6 -5 61 -9 123 -9 95 0 119 -3 154 -21 42 -22 62
-50 41 -57 -7 -2 -12 -9 -12 -16 0 -6 -23 -34 -50 -61 -27 -27 -50 -55 -50
-62 0 -6 -17 -19 -37 -28 -21 -9 -45 -20 -54 -25 -9 -5 -102 -12 -208 -16
-199 -7 -230 -15 -201 -49 10 -12 40 -15 151 -15 77 0 139 -4 139 -9 0 -13
-74 -86 -94 -94 -10 -4 -20 -16 -23 -27 -3 -11 -9 -20 -14 -20 -14 0 -11 -36
4 -49 8 -6 28 -14 46 -17 17 -4 34 -11 37 -15 3 -5 29 -9 59 -9 30 0 55 -5 57
-11 2 -7 59 -11 177 -11 165 1 175 2 197 23 13 12 24 28 24 35 0 20 -19 27
-37 12 -19 -15 -271 -13 -287 3 -6 5 -47 9 -92 9 -92 0 -115 12 -92 49 7 12
18 21 24 21 6 0 19 10 30 21 10 12 29 25 42 30 12 5 22 15 22 24 0 9 9 15 25
15 14 0 25 3 25 8 0 4 12 13 28 21 19 10 82 15 225 19 108 2 197 8 197 13 0 5
8 10 18 10 31 3 -92 17 -155 18 -34 1 -65 5 -68 11 -3 5 -26 10 -50 10 -24 0
-47 5 -50 10 -3 6 -1 10 4 10 6 0 11 6 11 13 0 7 16 29 35 47 20 19 42 48 50
64 16 32 20 96 6 96 -5 0 -11 9 -14 20 -3 11 -13 23 -24 26 -10 3 -26 10 -37
16 -10 5 -44 12 -75 15 -31 3 -60 9 -66 13 -5 4 -125 10 -265 14 -140 4 -259
11 -264 16 -6 6 -29 10 -52 10 -24 0 -46 5 -49 10 -3 6 -17 10 -31 10 -19 0
-24 -5 -24 -24z"/>
</g>
</svg>
