<?xml version="1.0" standalone="no"?>
<!DOCTYPE svg PUBLIC "-//W3C//DTD SVG 20010904//EN"
 "http://www.w3.org/TR/2001/REC-SVG-20010904/DTD/svg10.dtd">
<svg version="1.0" xmlns="http://www.w3.org/2000/svg"
 width="307.000000pt" height="361.000000pt" viewBox="0 0 307.000000 361.000000"
 preserveAspectRatio="xMidYMid meet">
<metadata>
Created by potrace 1.15, written by Peter Selinger 2001-2017
</metadata>
<g transform="translate(0.000000,361.000000) scale(0.100000,-0.100000)"
fill="#000000" stroke="none">
<path d="M1665 3130 c-33 -33 -63 -60 -68 -60 -11 0 -37 -26 -37 -37 0 -5 -31
-40 -70 -78 -38 -38 -70 -75 -70 -82 0 -7 -10 -13 -22 -14 -13 0 -35 -15 -50
-32 -117 -139 -118 -140 -143 -193 -7 -17 -21 -36 -29 -44 -9 -7 -16 -19 -16
-27 0 -7 -7 -16 -15 -19 -16 -7 -21 -59 -6 -68 4 -3 11 -32 15 -65 5 -42 12
-61 24 -65 43 -16 77 -42 161 -126 94 -93 111 -119 111 -174 0 -36 -38 -79
-80 -91 -35 -9 -74 -28 -82 -40 -4 -5 -48 -12 -98 -14 l-91 -3 3 -27 c2 -19 9
-27 28 -29 14 -2 29 -8 34 -13 6 -5 47 -9 92 -9 46 0 86 -5 89 -10 3 -5 17
-10 29 -10 13 0 34 -10 47 -22 26 -25 59 -86 59 -111 0 -9 5 -19 10 -22 6 -3
10 -19 10 -35 0 -16 -4 -32 -10 -35 -5 -3 -10 -45 -10 -93 0 -59 -5 -97 -16
-117 -8 -16 -18 -49 -21 -72 -3 -24 -10 -46 -14 -49 -5 -3 -9 -13 -9 -23 0
-10 -7 -24 -15 -31 -8 -7 -15 -23 -15 -35 0 -13 -5 -25 -10 -27 -6 -2 -13 -21
-17 -43 -3 -22 -14 -49 -23 -60 -10 -11 -21 -36 -25 -55 -4 -19 -11 -39 -15
-45 -4 -5 -10 -34 -13 -64 -4 -30 -11 -59 -17 -65 -13 -13 -13 -203 0 -211 6
-3 10 -14 10 -23 0 -28 81 -102 111 -102 15 0 29 -6 31 -12 4 -10 37 -13 120
-13 94 0 117 3 131 17 9 9 17 21 17 26 0 5 -43 11 -95 14 -55 2 -100 9 -107
16 -7 7 -24 12 -39 12 -15 0 -31 5 -34 10 -3 6 -15 10 -26 10 -10 0 -19 6 -19
14 0 8 -7 17 -17 20 -14 6 -15 23 -9 163 5 117 10 161 21 173 8 9 15 26 15 38
0 22 18 62 33 73 5 3 11 25 14 47 3 23 12 47 19 53 8 6 14 18 14 25 0 7 9 29
19 47 11 19 22 60 26 91 4 31 11 56 15 56 4 0 11 20 14 45 4 24 11 47 17 50
12 8 12 252 0 259 -5 3 -12 22 -15 41 -4 19 -10 35 -14 35 -4 0 -15 14 -24 30
-9 17 -24 30 -33 30 -8 0 -15 4 -15 8 0 5 -16 14 -35 22 l-35 14 27 28 c15 15
32 28 38 28 26 0 58 50 63 99 8 90 -1 109 -99 209 -50 50 -96 92 -103 92 -15
0 -66 52 -66 67 0 6 -7 17 -16 24 -13 11 -15 25 -11 68 3 29 11 59 16 64 6 6
11 18 11 27 0 9 18 34 40 55 22 21 40 45 40 53 0 7 102 114 228 238 188 186
229 222 238 209 6 -8 19 -15 28 -15 10 0 21 -13 27 -30 6 -16 15 -30 20 -30
13 0 23 27 15 43 -34 68 -56 84 -121 86 -25 1 -42 -11 -90 -59z"/>
</g>
</svg>
