<?xml version="1.0" standalone="no"?>
<!DOCTYPE svg PUBLIC "-//W3C//DTD SVG 20010904//EN"
 "http://www.w3.org/TR/2001/REC-SVG-20010904/DTD/svg10.dtd">
<svg version="1.0" xmlns="http://www.w3.org/2000/svg"
 width="317.000000pt" height="354.000000pt" viewBox="0 0 317.000000 354.000000"
 preserveAspectRatio="xMidYMid meet">
<metadata>
Created by potrace 1.15, written by Peter Selinger 2001-2017
</metadata>
<g transform="translate(0.000000,354.000000) scale(0.100000,-0.100000)"
fill="#000000" stroke="none">
<path d="M1570 2925 c0 -33 4 -45 15 -45 13 0 15 -44 15 -335 0 -291 -2 -335
-15 -335 -13 0 -15 -58 -15 -465 0 -407 -2 -465 -15 -465 -13 0 -15 -32 -15
-225 0 -193 -2 -225 -15 -225 -8 0 -15 -7 -15 -15 0 -8 7 -15 15 -15 12 0 15
-19 15 -115 l0 -115 50 0 c43 0 50 3 50 20 0 13 -7 20 -20 20 -18 0 -20 7 -20
80 0 64 -3 80 -15 80 -10 0 -15 10 -15 30 0 20 5 30 15 30 13 0 15 30 15 210
0 203 1 210 20 210 20 0 20 7 20 560 0 491 2 560 15 560 13 0 15 31 15 220 0
189 -2 220 -15 220 -12 0 -15 16 -15 80 l0 80 -35 0 c-35 0 -35 0 -35 -45z"/>
</g>
</svg>
