<?xml version="1.0" standalone="no"?>
<!DOCTYPE svg PUBLIC "-//W3C//DTD SVG 20010904//EN"
 "http://www.w3.org/TR/2001/REC-SVG-20010904/DTD/svg10.dtd">
<svg version="1.0" xmlns="http://www.w3.org/2000/svg"
 width="312.000000pt" height="347.000000pt" viewBox="0 0 312.000000 347.000000"
 preserveAspectRatio="xMidYMid meet">
<metadata>
Created by potrace 1.15, written by Peter Selinger 2001-2017
</metadata>
<g transform="translate(0.000000,347.000000) scale(0.100000,-0.100000)"
fill="#000000" stroke="none">
<path d="M1275 3020 c-3 -5 -19 -10 -36 -10 -18 0 -29 -5 -29 -14 0 -8 -3 -21
-6 -30 -4 -12 0 -16 15 -16 12 0 21 5 21 10 0 12 73 13 86 1 5 -5 57 -11 115
-13 59 -2 113 -8 120 -14 8 -6 26 -14 41 -18 34 -8 118 -90 118 -115 0 -11 5
-23 10 -26 12 -8 13 -72 1 -79 -4 -3 -11 -37 -15 -76 -4 -38 -11 -70 -15 -70
-5 0 -11 -8 -15 -17 -3 -10 -10 -25 -15 -33 -5 -8 -12 -22 -15 -30 -4 -8 -15
-28 -26 -45 -11 -16 -22 -37 -26 -45 -3 -8 -9 -24 -14 -35 -5 -11 -11 -27 -14
-35 -3 -8 -14 -29 -25 -45 -10 -17 -21 -52 -25 -77 -4 -26 -11 -50 -17 -53 -5
-4 -9 -49 -9 -101 0 -89 9 -125 40 -154 3 -3 10 -14 16 -24 6 -11 19 -24 30
-30 10 -6 21 -13 24 -16 28 -28 161 -43 175 -20 3 6 31 10 61 10 34 0 54 4 54
12 0 6 2 9 5 7 2 -3 2 -15 -2 -27 -5 -19 -12 -22 -59 -22 -35 0 -66 -7 -89
-20 -20 -11 -41 -20 -48 -20 -16 0 -107 -92 -107 -108 0 -6 -9 -28 -21 -48
-21 -39 -21 -41 12 -106 5 -10 9 -27 9 -38 0 -11 7 -23 15 -26 8 -4 15 -12 15
-19 0 -7 7 -18 15 -25 8 -7 15 -23 15 -36 0 -13 4 -24 9 -24 5 0 12 -12 16
-27 3 -15 12 -31 18 -35 6 -3 13 -35 15 -70 2 -35 8 -67 13 -72 12 -13 11 -63
-1 -71 -5 -3 -10 -36 -10 -72 0 -38 -6 -76 -14 -91 -8 -15 -18 -52 -21 -83 -5
-42 -12 -63 -31 -80 -13 -12 -24 -28 -24 -34 0 -14 -61 -74 -91 -89 -12 -6
-30 -24 -38 -39 -30 -52 -111 -75 -131 -37 -15 29 -30 25 -30 -8 0 -18 11 -38
29 -57 26 -24 35 -27 72 -22 38 5 55 18 161 124 65 65 118 123 118 130 0 7 4
13 10 13 5 0 12 17 15 38 3 20 10 44 15 53 5 9 12 33 15 53 4 20 11 39 16 42
12 7 12 247 0 260 -5 5 -11 37 -13 72 -2 35 -9 67 -14 70 -10 8 -31 40 -40 62
-3 8 -12 29 -20 47 -8 17 -14 36 -14 42 0 6 -4 11 -10 11 -5 0 -12 16 -16 35
-3 19 -10 38 -15 41 -17 10 -9 58 12 80 12 13 27 33 33 45 6 12 25 27 41 32
17 6 34 16 38 23 4 8 19 14 32 14 14 0 25 5 25 10 0 6 16 10 34 10 19 0 56 11
82 25 26 14 57 25 69 25 13 0 28 7 35 15 7 8 19 15 26 15 8 0 14 4 14 9 0 5
23 12 52 16 28 4 60 16 71 26 22 20 17 46 -10 55 -10 3 -26 10 -35 15 -24 12
-95 12 -103 -1 -3 -5 -24 -10 -45 -10 -21 0 -42 -4 -45 -10 -3 -5 -18 -10 -33
-10 -15 0 -37 -7 -49 -15 -15 -11 -54 -16 -137 -17 -114 -3 -116 -3 -143 25
-28 27 -28 28 -28 165 0 111 3 144 18 174 10 20 22 40 27 43 6 3 10 19 10 36
0 16 5 29 10 29 6 0 15 10 20 23 6 12 14 29 19 37 28 49 61 122 61 137 0 10 7
27 15 37 8 11 15 32 15 47 0 15 5 31 10 34 14 9 12 158 -2 187 -26 48 -101
117 -158 144 -8 4 -18 12 -21 17 -3 5 -43 11 -88 14 -45 3 -84 10 -87 14 -7
12 -151 11 -159 -1z"/>
</g>
</svg>
