<?xml version="1.0" standalone="no"?>
<!DOCTYPE svg PUBLIC "-//W3C//DTD SVG 20010904//EN"
 "http://www.w3.org/TR/2001/REC-SVG-20010904/DTD/svg10.dtd">
<svg version="1.0" xmlns="http://www.w3.org/2000/svg"
 width="296.000000pt" height="275.000000pt" viewBox="0 0 296.000000 275.000000"
 preserveAspectRatio="xMidYMid meet">
<metadata>
Created by potrace 1.15, written by Peter Selinger 2001-2017
</metadata>
<g transform="translate(0.000000,275.000000) scale(0.100000,-0.100000)"
fill="#000000" stroke="none">
<path d="M1284 1653 c-18 -2 -40 -13 -50 -24 -9 -10 -28 -19 -41 -19 -24 0
-74 -30 -104 -62 -9 -10 -24 -18 -34 -18 -10 0 -51 -33 -91 -74 -54 -54 -74
-81 -74 -100 0 -24 4 -26 40 -26 37 0 40 2 40 28 0 26 43 82 64 82 4 0 23 16
43 35 20 19 42 35 48 35 7 0 15 6 18 14 3 8 27 18 54 22 26 4 62 15 80 25 17
10 47 21 66 24 32 6 38 3 83 -44 64 -67 104 -116 104 -128 0 -11 53 -63 64
-63 5 0 24 -13 43 -30 25 -22 44 -30 73 -30 21 0 42 -4 45 -10 8 -12 95 -13
95 -1 0 5 23 11 51 13 28 3 54 9 58 14 10 14 53 32 93 39 20 3 50 12 65 20 15
8 36 15 45 15 9 0 20 5 23 10 3 6 15 10 26 10 12 0 19 7 19 20 0 18 -7 20 -57
20 -32 0 -71 -7 -87 -15 -15 -8 -37 -15 -48 -15 -10 0 -40 -12 -66 -26 -39
-22 -64 -27 -147 -32 -85 -4 -102 -2 -114 12 -7 9 -25 16 -40 16 -26 0 -91 56
-91 77 0 5 -11 20 -25 33 -14 13 -25 27 -25 32 0 8 -23 35 -87 104 -22 24 -65
29 -159 17z"/>
</g>
</svg>
