<?xml version="1.0" standalone="no"?>
<!DOCTYPE svg PUBLIC "-//W3C//DTD SVG 20010904//EN"
 "http://www.w3.org/TR/2001/REC-SVG-20010904/DTD/svg10.dtd">
<svg version="1.0" xmlns="http://www.w3.org/2000/svg"
 width="111.000000pt" height="115.000000pt" viewBox="0 0 111.000000 115.000000"
 preserveAspectRatio="xMidYMid meet">
<metadata>
Created by potrace 1.15, written by Peter Selinger 2001-2017
</metadata>
<g transform="translate(0.000000,115.000000) scale(0.100000,-0.100000)"
fill="#000000" stroke="none">
<path d="M529 967 c-13 -13 -45 -40 -71 -61 -51 -41 -63 -77 -30 -95 14 -8 15
-12 5 -22 -7 -7 -13 -23 -13 -35 0 -26 16 -41 49 -46 22 -3 20 -6 -22 -35 -25
-18 -50 -33 -56 -33 -6 0 -18 12 -28 28 -36 57 -75 102 -90 102 -11 0 -7 -10
14 -37 16 -21 39 -55 52 -75 l22 -37 -70 -46 c-72 -48 -90 -69 -65 -79 28 -11
62 -6 114 14 68 27 96 26 116 -5 16 -24 15 -26 -42 -92 -33 -37 -80 -89 -107
-116 -26 -26 -47 -55 -47 -64 0 -11 6 -8 21 11 28 36 58 51 72 37 6 -6 23 -11
37 -11 40 0 150 38 192 67 30 21 40 23 58 13 26 -14 42 -3 17 12 -17 9 -17 11
-2 28 10 11 20 40 22 65 6 44 5 45 -34 62 l-39 18 23 23 c13 12 23 30 23 39 0
13 -8 15 -49 9 -27 -4 -74 -15 -104 -25 l-55 -19 -24 25 c-19 21 -21 26 -8 33
8 5 46 31 83 59 65 49 87 60 87 44 0 -4 -12 -18 -27 -31 l-28 -23 31 15 c40
19 130 101 166 150 54 75 26 123 -66 112 -51 -6 -54 -5 -60 19 -8 32 -36 32
-67 2z m191 -52 c18 -22 3 -54 -58 -117 -64 -67 -100 -80 -50 -17 40 50 31 59
-58 51 -35 -2 -64 -2 -64 1 0 7 85 67 94 67 3 0 6 -11 6 -25 0 -14 5 -25 10
-25 6 0 10 13 10 30 0 17 7 33 18 39 25 15 78 13 92 -4z m-164 -506 c24 -18
41 -36 38 -41 -10 -15 -99 -56 -140 -63 -21 -4 -44 -12 -50 -16 -13 -11 -44
-1 -44 13 0 5 10 19 23 31 35 34 120 107 125 107 2 0 23 -14 48 -31z"/>
</g>
</svg>
