<?xml version="1.0" standalone="no"?>
<!DOCTYPE svg PUBLIC "-//W3C//DTD SVG 20010904//EN"
 "http://www.w3.org/TR/2001/REC-SVG-20010904/DTD/svg10.dtd">
<svg version="1.0" xmlns="http://www.w3.org/2000/svg"
 width="163.000000pt" height="203.000000pt" viewBox="0 0 163.000000 203.000000"
 preserveAspectRatio="xMidYMid meet">
<metadata>
Created by potrace 1.15, written by Peter Selinger 2001-2017
</metadata>
<g transform="translate(0.000000,203.000000) scale(0.100000,-0.100000)"
fill="#000000" stroke="none">
<path d="M796 1763 c-3 -10 -9 -25 -14 -33 -24 -41 -32 -62 -32 -84 0 -14 -4
-27 -9 -31 -6 -3 -13 -27 -17 -53 -3 -26 -10 -51 -14 -57 -4 -5 -11 -25 -15
-44 -4 -19 -15 -49 -25 -65 -9 -17 -20 -53 -24 -78 -4 -26 -11 -50 -15 -53 -5
-2 -12 -21 -15 -41 -4 -19 -16 -52 -27 -71 -11 -20 -23 -59 -26 -87 -4 -28
-12 -57 -20 -64 -7 -7 -13 -28 -13 -46 0 -44 -16 -56 -75 -56 -38 0 -57 -5
-68 -18 -10 -10 -17 -21 -17 -25 0 -10 62 -37 86 -37 22 0 22 -1 8 -27 -7 -16
-14 -40 -14 -55 0 -15 -9 -43 -20 -63 -11 -20 -20 -53 -20 -73 0 -21 -4 -42
-10 -48 -5 -5 -30 -49 -55 -98 -54 -105 -71 -207 -40 -230 21 -15 12 -36 -16
-36 -10 0 -19 -5 -19 -11 0 -7 9 -9 22 -5 13 3 27 6 32 6 5 0 6 23 4 50 -4 36
-2 50 8 50 12 0 44 53 44 73 0 10 19 55 56 133 14 28 27 67 31 87 3 21 10 37
14 37 5 0 9 13 9 29 0 17 4 33 10 36 6 3 10 15 10 25 0 21 35 95 58 122 9 11
37 19 88 23 41 4 74 11 74 16 0 5 18 9 39 9 22 0 43 5 46 10 3 6 27 10 52 10
25 0 60 7 78 16 18 8 46 14 62 12 27 -3 28 -5 37 -80 5 -43 13 -78 18 -78 4 0
8 -16 8 -35 0 -19 4 -35 9 -35 4 0 12 -31 15 -70 4 -38 11 -70 15 -70 5 0 10
-59 13 -132 3 -91 8 -133 16 -136 7 -2 12 -10 12 -18 0 -17 51 -19 68 -2 15
15 16 64 2 73 -5 3 -10 24 -10 45 0 21 -4 41 -9 44 -4 3 -11 38 -14 78 -3 40
-11 74 -17 76 -5 2 -10 22 -10 45 0 23 -7 55 -15 71 -8 15 -15 46 -15 67 0 21
-4 40 -9 43 -14 9 -22 138 -10 153 7 8 33 13 70 13 38 0 63 5 73 15 8 8 20 15
27 15 9 0 8 4 -1 15 -14 17 -80 21 -80 5 0 -15 -96 -12 -107 3 -6 6 -13 44
-17 82 -4 39 -11 74 -17 79 -5 6 -9 27 -9 48 0 21 -4 38 -9 38 -4 0 -11 25
-14 56 -3 30 -10 61 -16 68 -6 6 -13 31 -17 54 -4 23 -10 42 -15 42 -5 0 -9
13 -9 29 0 17 -4 32 -9 36 -5 3 -13 19 -16 36 -10 43 -54 129 -84 162 -28 31
-56 35 -65 10z m54 -127 c0 -7 6 -19 14 -25 8 -7 17 -30 21 -52 4 -21 11 -41
16 -45 5 -3 9 -16 9 -29 0 -13 4 -26 9 -30 6 -3 13 -27 16 -53 3 -26 11 -55
16 -66 6 -10 13 -43 16 -73 3 -29 10 -56 14 -59 5 -3 9 -20 9 -38 0 -17 4 -36
9 -42 5 -5 11 -38 13 -74 l3 -65 -40 -3 c-22 -2 -44 -7 -50 -12 -5 -4 -38 -11
-73 -15 -34 -4 -65 -11 -68 -16 -3 -5 -24 -9 -48 -9 -23 0 -47 -5 -53 -11 -6
-6 -26 -9 -44 -7 -30 3 -34 7 -37 36 -2 17 1 32 6 32 5 0 13 25 17 55 3 30 11
55 16 55 5 0 9 11 9 24 0 14 5 28 10 31 6 3 10 18 10 32 0 13 6 37 14 51 8 15
18 44 21 65 3 20 10 37 15 37 6 0 10 10 10 23 0 12 7 31 15 41 8 11 15 32 15
47 0 15 4 30 9 34 6 3 13 26 17 50 3 25 10 45 15 45 5 0 9 18 9 40 0 33 3 40
20 40 11 0 20 -6 20 -14z"/>
</g>
</svg>
