<?xml version="1.0" standalone="no"?>
<!DOCTYPE svg PUBLIC "-//W3C//DTD SVG 20010904//EN"
 "http://www.w3.org/TR/2001/REC-SVG-20010904/DTD/svg10.dtd">
<svg version="1.0" xmlns="http://www.w3.org/2000/svg"
 width="231.000000pt" height="316.000000pt" viewBox="0 0 231.000000 316.000000"
 preserveAspectRatio="xMidYMid meet">
<metadata>
Created by potrace 1.15, written by Peter Selinger 2001-2017
</metadata>
<g transform="translate(0.000000,316.000000) scale(0.100000,-0.100000)"
fill="#000000" stroke="none">
<path d="M1170 2831 c0 -28 5 -53 10 -56 12 -8 14 -222 2 -229 -5 -3 -12 -67
-16 -143 -4 -75 -11 -140 -16 -143 -5 -3 -12 -89 -16 -190 -6 -159 -10 -189
-26 -212 -18 -26 -19 -51 -21 -374 -2 -270 1 -348 11 -351 6 -3 12 -10 12 -17
0 -7 10 -22 23 -34 23 -22 24 -22 40 -4 12 13 17 36 17 75 0 44 3 57 15 57 8
0 15 9 15 20 0 18 -4 20 -35 14 l-35 -6 0 155 c0 93 4 158 10 162 6 4 10 58
10 129 0 68 4 126 10 132 5 5 13 59 16 119 4 61 11 115 15 121 5 6 12 74 15
153 4 78 11 144 16 147 4 3 8 41 8 84 0 43 5 82 10 85 6 3 10 26 10 51 0 42 1
44 30 44 23 0 30 5 30 19 0 11 -4 23 -10 26 -5 3 -10 13 -10 22 0 9 -7 24 -15
33 -9 10 -18 35 -21 56 -6 42 -23 85 -39 96 -5 4 -22 8 -37 8 -27 0 -28 -2
-28 -49z"/>
<path d="M1125 518 c-67 -78 -100 -188 -57 -188 18 0 52 29 52 44 0 11 27 36
39 36 6 0 11 11 11 24 0 26 30 86 43 86 14 0 7 28 -9 34 -30 12 -43 6 -79 -36z"/>
</g>
</svg>
