<?xml version="1.0" standalone="no"?>
<!DOCTYPE svg PUBLIC "-//W3C//DTD SVG 20010904//EN"
 "http://www.w3.org/TR/2001/REC-SVG-20010904/DTD/svg10.dtd">
<svg version="1.0" xmlns="http://www.w3.org/2000/svg"
 width="207.000000pt" height="242.000000pt" viewBox="0 0 207.000000 242.000000"
 preserveAspectRatio="xMidYMid meet">
<metadata>
Created by potrace 1.15, written by Peter Selinger 2001-2017
</metadata>
<g transform="translate(0.000000,242.000000) scale(0.100000,-0.100000)"
fill="#000000" stroke="none">
<path d="M864 2182 c-7 -4 -14 -67 -18 -162 -4 -85 -12 -156 -17 -158 -12 -5
-12 -119 1 -127 6 -3 10 -30 10 -59 0 -42 5 -57 23 -74 31 -29 37 -28 75 11
41 43 42 67 2 67 -29 0 -30 1 -30 50 0 28 -4 50 -10 50 -14 0 -13 83 1 97 7 7
13 72 17 162 l5 151 -24 0 c-13 0 -29 -4 -35 -8z"/>
<path d="M1090 1981 c0 -72 4 -132 8 -135 5 -3 12 -55 15 -116 6 -100 9 -115
34 -150 31 -44 35 -46 53 -25 9 11 9 21 -4 46 -9 18 -16 54 -16 80 0 26 -4 51
-10 54 -6 4 -10 68 -10 160 0 92 4 156 10 160 6 3 10 17 10 31 0 22 -4 24 -45
24 l-45 0 0 -129z"/>
</g>
</svg>
