<?xml version="1.0" standalone="no"?>
<!DOCTYPE svg PUBLIC "-//W3C//DTD SVG 20010904//EN"
 "http://www.w3.org/TR/2001/REC-SVG-20010904/DTD/svg10.dtd">
<svg version="1.0" xmlns="http://www.w3.org/2000/svg"
 width="237.000000pt" height="221.000000pt" viewBox="0 0 237.000000 221.000000"
 preserveAspectRatio="xMidYMid meet">
<metadata>
Created by potrace 1.15, written by Peter Selinger 2001-2017
</metadata>
<g transform="translate(0.000000,221.000000) scale(0.100000,-0.100000)"
fill="#000000" stroke="none">
<path d="M1420 2030 c0 -5 -7 -10 -15 -10 -8 0 -15 -9 -15 -19 0 -11 -4 -23
-10 -26 -5 -3 -10 -24 -10 -45 0 -22 -5 -40 -12 -42 -9 -3 -14 -34 -17 -94 -2
-49 -8 -92 -14 -96 -6 -3 -12 -55 -14 -120 -4 -106 -14 -153 -38 -170 -5 -4
-42 -8 -82 -8 -39 0 -75 -4 -78 -10 -3 -5 -19 -10 -35 -10 -16 0 -32 -4 -35
-10 -3 -5 -15 -10 -26 -10 -17 0 -19 7 -19 69 0 37 3 89 6 115 6 40 10 46 30
46 19 0 24 5 24 25 0 14 -4 25 -10 25 -5 0 -10 10 -10 23 0 13 -7 32 -15 43
-9 12 -14 43 -15 85 0 68 -16 99 -51 99 -32 0 -55 -59 -29 -75 14 -8 14 -355
0 -355 -5 0 -10 -25 -10 -55 l0 -55 -44 0 c-25 0 -47 -4 -50 -9 -4 -5 -65 -12
-136 -16 -72 -4 -133 -12 -136 -16 -3 -5 -66 -9 -140 -9 l-134 0 0 -30 c0 -25
4 -30 25 -30 14 0 25 -4 25 -10 0 -5 11 -10 24 -10 14 0 28 5 31 10 4 6 58 10
129 10 67 0 126 4 132 9 5 5 62 13 127 17 l117 7 0 -41 c0 -22 -4 -43 -9 -46
-5 -3 -12 -33 -16 -66 -4 -33 -11 -60 -16 -60 -5 0 -9 -15 -9 -32 0 -18 -3
-50 -6 -70 l-7 -38 -63 0 c-36 0 -64 -4 -64 -10 0 -5 -24 -10 -54 -10 -30 0
-57 -4 -60 -8 -3 -5 -54 -12 -113 -16 -59 -3 -109 -11 -111 -16 -2 -6 -16 -10
-31 -10 -31 0 -51 -16 -51 -42 0 -15 9 -18 59 -18 33 0 62 4 65 9 3 5 63 12
133 16 71 4 133 12 140 17 6 5 42 8 80 6 l68 -3 7 -158 c4 -87 11 -164 16
-170 5 -7 12 -25 16 -42 8 -32 52 -85 71 -85 7 0 20 9 30 20 18 19 17 20 -3
20 -28 0 -62 50 -62 93 0 20 -4 39 -10 42 -12 7 -14 291 -2 299 5 3 66 8 138
11 71 4 138 11 150 17 11 5 34 8 50 6 26 -3 30 -8 36 -48 3 -25 7 -150 7 -278
l1 -233 28 3 c24 3 27 8 30 43 1 22 8 50 14 63 9 18 9 28 0 42 -17 27 -17 391
0 408 7 7 27 12 44 12 18 0 36 5 39 10 3 6 26 10 50 10 24 0 46 4 49 9 3 5 74
12 156 16 83 4 150 11 150 15 0 4 53 10 118 14 115 7 175 21 169 41 -5 13
-185 19 -201 6 -6 -5 -86 -12 -179 -16 -92 -4 -170 -11 -173 -16 -3 -5 -52 -9
-110 -9 l-104 0 0 173 c0 121 4 177 12 185 8 8 45 12 99 12 48 0 90 4 93 9 3
4 120 10 261 13 155 3 260 9 267 16 7 6 27 12 43 15 17 2 -2 5 -42 6 -39 0
-75 6 -78 11 -9 14 -418 13 -431 0 -7 -7 -51 -10 -110 -8 l-99 3 -3 74 c-2 42
2 79 8 85 5 5 10 35 10 66 0 31 4 60 10 66 5 5 13 46 16 89 8 105 31 163 48
120 3 -8 17 -15 31 -15 21 0 25 5 25 30 0 29 -19 69 -47 98 -14 14 -43 16 -43
2z m-132 -819 c2 -76 -1 -128 -8 -135 -5 -5 -10 -33 -10 -62 0 -59 -7 -64 -97
-64 -28 0 -55 -4 -58 -10 -3 -6 -52 -10 -111 -10 l-104 0 0 39 c0 22 5 43 10
46 6 3 10 23 10 43 0 21 6 46 14 57 7 11 17 52 21 90 4 39 12 76 17 83 6 6 30
12 54 12 23 0 46 5 49 10 3 6 26 10 50 10 24 0 47 5 50 10 4 6 30 10 58 8 l52
-3 3 -124z"/>
</g>
</svg>
