<?xml version="1.0" standalone="no"?>
<!DOCTYPE svg PUBLIC "-//W3C//DTD SVG 20010904//EN"
 "http://www.w3.org/TR/2001/REC-SVG-20010904/DTD/svg10.dtd">
<svg version="1.0" xmlns="http://www.w3.org/2000/svg"
 width="186.000000pt" height="242.000000pt" viewBox="0 0 186.000000 242.000000"
 preserveAspectRatio="xMidYMid meet">
<metadata>
Created by potrace 1.15, written by Peter Selinger 2001-2017
</metadata>
<g transform="translate(0.000000,242.000000) scale(0.100000,-0.100000)"
fill="#000000" stroke="none">
<path d="M937 2142 c-12 -13 -17 -37 -17 -75 0 -31 -4 -58 -8 -61 -5 -3 -12
-70 -15 -148 l-7 -143 -64 -60 c-35 -33 -80 -73 -100 -90 -19 -16 -36 -35 -36
-41 0 -6 -7 -17 -15 -24 -9 -7 -22 -29 -31 -49 -9 -20 -20 -45 -26 -57 -7 -16
-4 -30 11 -58 12 -20 21 -43 21 -51 0 -8 7 -15 15 -15 9 0 18 -7 21 -15 4 -8
16 -15 29 -15 12 0 28 -7 35 -15 7 -8 20 -15 30 -15 9 0 20 -3 24 -7 4 -5 24
-13 44 -18 l37 -11 3 -213 c2 -206 2 -213 -18 -218 -11 -3 -20 -9 -20 -14 0
-5 -10 -14 -22 -19 -13 -6 -41 -21 -63 -35 -47 -29 -81 -45 -99 -45 -7 0 -21
-9 -31 -20 -14 -16 -16 -23 -7 -32 11 -11 60 7 142 53 59 33 101 50 110 44 6
-4 10 -70 10 -173 0 -179 8 -214 48 -220 20 -3 22 1 22 37 0 23 -4 41 -10 41
-6 0 -10 62 -10 168 1 169 4 189 40 205 8 4 29 16 45 27 17 11 38 23 48 26 9
4 17 10 17 14 0 5 25 21 56 36 30 15 63 39 72 53 9 14 19 28 23 31 4 3 10 24
13 46 7 40 6 43 -49 98 -31 31 -62 56 -69 56 -17 0 -66 23 -66 32 0 3 -13 9
-30 13 -16 4 -30 10 -30 14 0 5 -15 12 -32 17 l-33 10 -3 233 c-2 241 0 261
38 261 9 0 25 9 34 19 10 11 31 23 48 26 16 4 41 13 56 21 15 8 45 14 66 14
l39 0 -7 -69 c-4 -53 -3 -71 8 -80 12 -10 17 -8 25 8 6 11 11 31 11 45 0 14 5
28 10 31 23 14 0 92 -35 117 -18 13 -119 8 -149 -7 -15 -8 -34 -15 -40 -15 -7
0 -25 -13 -41 -30 -16 -16 -33 -30 -37 -30 -5 0 -7 68 -6 152 3 151 3 153 28
165 18 9 20 13 8 13 -13 0 -18 8 -18 29 0 40 -22 56 -43 33z m-49 -667 c2 -85
-1 -142 -8 -149 -5 -5 -10 -25 -10 -43 0 -31 -2 -33 -35 -33 -19 0 -35 5 -35
10 0 6 -6 10 -14 10 -7 0 -19 7 -26 15 -7 8 -21 15 -31 15 -40 0 -51 75 -22
138 20 42 153 183 168 178 6 -1 11 -60 13 -141z m92 -354 c0 -5 12 -12 27 -16
15 -3 38 -14 52 -24 14 -10 37 -22 51 -26 14 -4 27 -10 30 -14 3 -3 14 -11 25
-17 11 -6 21 -23 23 -37 5 -37 -52 -104 -95 -112 -18 -3 -33 -10 -33 -15 0 -6
-5 -10 -12 -10 -7 0 -23 -11 -37 -24 -15 -13 -35 -26 -46 -28 -19 -3 -20 3
-23 152 -1 85 0 160 2 167 6 15 36 18 36 4z"/>
</g>
</svg>
