<?xml version="1.0" standalone="no"?>
<!DOCTYPE svg PUBLIC "-//W3C//DTD SVG 20010904//EN"
 "http://www.w3.org/TR/2001/REC-SVG-20010904/DTD/svg10.dtd">
<svg version="1.0" xmlns="http://www.w3.org/2000/svg"
 width="193.000000pt" height="224.000000pt" viewBox="0 0 193.000000 224.000000"
 preserveAspectRatio="xMidYMid meet">
<metadata>
Created by potrace 1.15, written by Peter Selinger 2001-2017
</metadata>
<g transform="translate(0.000000,224.000000) scale(0.100000,-0.100000)"
fill="#000000" stroke="none">
<path d="M785 1950 c-3 -5 -15 -10 -26 -10 -40 0 -113 -43 -175 -104 -64 -62
-64 -62 -63 -116 1 -74 11 -104 34 -108 11 -2 39 -22 61 -44 31 -30 52 -41 85
-45 l44 -6 -28 26 c-27 25 -28 26 -10 46 9 12 26 21 37 21 10 0 28 10 40 23
11 12 37 30 56 39 19 9 59 41 88 70 45 47 53 61 58 104 7 55 3 62 -63 95 -40
20 -127 26 -138 9z m90 -60 c3 -5 17 -10 30 -10 55 0 39 -46 -42 -127 -28 -28
-62 -55 -75 -59 -13 -4 -40 -22 -61 -40 -56 -47 -83 -51 -118 -18 -25 23 -29
36 -29 79 0 46 4 54 38 86 44 41 118 79 156 79 14 0 26 5 26 10 0 6 15 10 34
10 19 0 38 -4 41 -10z"/>
<path d="M1382 1826 c-22 -22 -41 -50 -58 -86 -4 -8 -10 -17 -13 -20 -9 -7
-30 -42 -40 -65 -5 -11 -18 -29 -30 -39 -11 -11 -21 -27 -21 -36 0 -9 -9 -25
-20 -35 -11 -10 -20 -24 -20 -30 0 -16 -18 -51 -47 -92 -13 -17 -23 -40 -23
-51 0 -11 -11 -34 -25 -50 -14 -17 -25 -37 -25 -45 0 -8 -7 -20 -15 -27 -8 -7
-15 -21 -15 -30 0 -10 -18 -54 -39 -97 -22 -43 -42 -85 -45 -93 -4 -8 -15 -29
-25 -46 -10 -17 -22 -45 -26 -62 -3 -18 -10 -32 -15 -32 -5 0 -11 -13 -15 -29
-3 -16 -13 -35 -22 -42 -13 -11 -26 -36 -57 -109 -9 -21 -27 -50 -53 -87 -13
-17 -23 -40 -23 -51 0 -11 -7 -33 -15 -48 -8 -16 -15 -42 -15 -57 0 -25 3 -28
27 -25 25 3 29 8 35 52 4 27 16 58 27 70 12 12 21 29 21 38 0 8 9 23 20 33 11
10 20 29 20 43 0 13 11 38 25 56 14 17 29 36 34 42 5 6 12 21 16 35 4 13 11
26 14 29 10 7 41 76 41 89 0 6 4 11 9 11 5 0 12 14 16 30 4 16 10 30 13 30 8
0 42 74 42 90 0 6 4 10 9 10 5 0 11 18 15 40 7 47 22 75 54 106 13 12 26 39
29 61 5 33 17 53 63 110 6 7 10 21 10 32 0 11 6 24 13 28 8 4 17 15 21 23 11
23 29 52 54 87 12 17 22 35 22 41 0 5 7 15 15 22 8 7 15 25 15 39 0 41 38 71
88 71 34 0 42 3 42 18 0 19 -17 37 -57 60 -27 15 -23 16 -51 -12z"/>
<path d="M983 635 c-70 -35 -99 -89 -90 -168 3 -30 11 -64 19 -76 10 -17 10
-25 0 -41 -23 -38 -15 -50 32 -50 25 0 47 4 50 9 3 4 24 11 46 14 37 5 100 51
100 73 0 5 19 27 42 51 37 37 42 48 42 90 1 55 -24 93 -60 93 -12 0 -24 5 -26
11 -2 6 -26 13 -53 15 -39 4 -62 -1 -102 -21z m137 -50 c7 -8 19 -15 26 -15 8
0 14 -10 14 -25 0 -14 -4 -25 -10 -25 -5 0 -10 -5 -10 -12 0 -23 -113 -128
-137 -128 -13 0 -23 6 -23 14 0 8 -7 16 -15 20 -11 4 -15 22 -15 75 l0 70 43
20 c50 24 110 27 127 6z"/>
</g>
</svg>
