<?xml version="1.0" standalone="no"?>
<!DOCTYPE svg PUBLIC "-//W3C//DTD SVG 20010904//EN"
 "http://www.w3.org/TR/2001/REC-SVG-20010904/DTD/svg10.dtd">
<svg version="1.0" xmlns="http://www.w3.org/2000/svg"
 width="149.000000pt" height="177.000000pt" viewBox="0 0 149.000000 177.000000"
 preserveAspectRatio="xMidYMid meet">
<metadata>
Created by potrace 1.15, written by Peter Selinger 2001-2017
</metadata>
<g transform="translate(0.000000,177.000000) scale(0.100000,-0.100000)"
fill="#000000" stroke="none">
<path d="M850 1645 c-7 -8 -17 -15 -22 -15 -10 0 -68 -57 -68 -68 0 -5 -18
-26 -41 -47 -50 -49 -69 -87 -69 -135 0 -21 -7 -43 -15 -50 -8 -7 -15 -20 -15
-29 0 -9 -5 -22 -11 -28 -6 -6 -13 -38 -16 -72 -3 -34 -10 -64 -14 -67 -12 -7
-11 -151 1 -159 6 -3 10 -23 10 -44 0 -22 6 -44 15 -51 34 -28 5 -118 -59
-179 -20 -19 -36 -42 -36 -51 0 -9 -14 -27 -31 -39 -17 -13 -37 -38 -44 -55
-8 -18 -21 -38 -29 -46 -9 -7 -16 -19 -16 -27 0 -7 -7 -16 -15 -19 -8 -4 -15
-11 -15 -16 0 -20 -35 -84 -58 -105 -19 -18 -24 -35 -29 -97 l-6 -76 77 0 c44
0 76 4 76 10 0 6 11 10 24 10 14 0 27 4 30 9 3 5 22 12 41 15 19 4 35 11 35
15 0 5 8 12 18 15 47 17 122 79 122 101 0 7 9 20 20 30 11 10 20 26 20 35 0 9
9 25 20 35 11 10 20 24 20 32 0 23 35 14 65 -17 16 -17 33 -30 38 -30 5 0 26
-13 46 -28 20 -16 51 -35 69 -43 17 -8 32 -17 32 -21 0 -12 98 -10 105 2 3 6
0 16 -7 23 -20 20 -99 63 -131 71 -32 8 -34 9 -99 67 -40 34 -48 48 -48 76 0
21 6 36 15 39 8 4 15 12 15 18 0 7 14 25 30 41 17 16 30 33 30 37 0 5 16 27
37 48 30 33 43 40 75 40 30 0 38 4 38 18 0 24 -31 52 -57 52 -11 0 -30 -12
-44 -26 -13 -14 -34 -30 -46 -35 -13 -5 -23 -14 -23 -22 0 -7 -16 -28 -35 -47
-19 -19 -35 -38 -35 -43 0 -6 -13 -22 -29 -38 -21 -20 -32 -24 -38 -16 -25 35
-43 78 -43 99 0 14 -9 33 -20 43 -20 18 -20 19 -1 39 10 12 28 41 39 66 11 25
30 52 41 60 12 8 21 19 21 25 0 6 9 27 20 48 11 20 20 46 20 57 0 11 3 20 8
20 9 0 42 74 42 94 0 7 7 19 15 26 8 7 15 19 15 26 0 8 5 14 10 14 6 0 10 24
10 53 0 29 6 59 12 65 8 8 14 54 17 128 3 106 2 117 -17 135 -26 23 -94 26
-112 4z m63 -161 c-1 -53 -6 -90 -12 -92 -6 -2 -11 -30 -11 -67 0 -35 -4 -67
-10 -70 -5 -3 -10 -14 -10 -24 0 -10 -9 -26 -20 -36 -11 -10 -20 -23 -20 -29
0 -7 -9 -18 -20 -26 -11 -8 -20 -18 -20 -23 0 -11 -28 -76 -41 -97 -5 -8 -12
-23 -15 -32 -4 -10 -10 -18 -15 -18 -5 0 -9 -6 -9 -13 0 -17 -38 -53 -46 -44
-3 3 -8 24 -11 46 -3 23 -10 41 -14 41 -12 0 -11 147 0 155 6 3 13 27 17 53 3
26 10 52 14 57 4 6 11 26 15 45 4 19 11 41 16 50 4 8 10 22 14 30 20 51 117
160 141 160 6 0 17 7 24 15 26 31 35 10 33 -81z m-233 -769 c0 -8 5 -15 10
-15 6 0 10 -13 10 -28 0 -17 10 -38 25 -52 14 -13 25 -31 25 -40 0 -9 -11 -27
-25 -40 -14 -13 -25 -29 -25 -37 0 -7 -4 -13 -9 -13 -5 0 -12 -13 -16 -30 -4
-16 -11 -30 -16 -30 -5 0 -9 -6 -9 -13 0 -7 -18 -31 -40 -52 -22 -21 -40 -45
-40 -52 0 -7 -11 -13 -25 -13 -14 0 -25 -4 -25 -10 0 -5 -13 -10 -30 -10 -20
0 -30 -5 -30 -15 0 -12 -13 -15 -60 -15 -62 0 -77 13 -45 40 8 7 15 17 15 23
0 5 11 25 25 43 14 18 25 40 25 50 0 9 11 27 24 39 13 12 27 33 31 46 4 13 25
43 47 67 21 23 43 52 49 65 19 42 36 67 59 87 27 24 50 26 50 5z"/>
</g>
</svg>
