<?xml version="1.0" standalone="no"?>
<!DOCTYPE svg PUBLIC "-//W3C//DTD SVG 20010904//EN"
 "http://www.w3.org/TR/2001/REC-SVG-20010904/DTD/svg10.dtd">
<svg version="1.0" xmlns="http://www.w3.org/2000/svg"
 width="215.000000pt" height="255.000000pt" viewBox="0 0 215.000000 255.000000"
 preserveAspectRatio="xMidYMid meet">
<metadata>
Created by potrace 1.15, written by Peter Selinger 2001-2017
</metadata>
<g transform="translate(0.000000,255.000000) scale(0.100000,-0.100000)"
fill="#000000" stroke="none">
<path d="M1223 2202 c-6 -4 -14 -19 -18 -33 -3 -14 -24 -45 -46 -68 -21 -24
-39 -48 -39 -52 0 -5 -5 -19 -12 -32 -23 -45 -28 -57 -28 -69 -1 -7 -9 -31
-20 -53 -11 -22 -19 -46 -20 -53 0 -7 -4 -20 -9 -30 -27 -52 -61 -128 -61
-136 0 -8 -24 -67 -41 -98 -5 -9 -12 -36 -15 -59 -4 -24 -13 -54 -21 -68 -7
-14 -13 -40 -13 -58 0 -17 -4 -35 -10 -38 -5 -3 -10 -26 -10 -49 0 -27 -6 -48
-15 -56 -9 -7 -15 -29 -15 -54 0 -23 -5 -47 -11 -53 -7 -7 -11 -94 -12 -255
-2 -245 0 -260 34 -318 5 -8 12 -22 15 -30 3 -8 12 -29 20 -47 8 -17 14 -37
14 -45 0 -12 99 -112 153 -156 26 -20 104 -15 127 8 33 33 25 42 -27 34 -35
-5 -49 -3 -57 8 -6 8 -24 19 -41 25 -26 8 -50 37 -72 83 -3 8 -15 22 -25 31
-10 9 -18 25 -18 35 0 11 -6 28 -14 39 -7 11 -16 41 -20 67 -4 26 -11 50 -17
53 -11 8 -12 352 -1 359 5 3 12 56 15 117 4 61 11 117 17 124 6 7 13 37 16 66
5 50 13 78 34 120 5 9 12 34 15 55 7 45 53 144 66 144 5 0 9 13 9 29 0 17 4
32 9 35 13 9 51 89 51 109 0 10 4 25 9 35 6 9 13 34 16 55 3 20 10 37 15 37 6
0 10 10 10 23 0 25 22 60 57 93 13 12 23 30 23 41 0 11 6 26 13 32 11 8 19 5
35 -14 12 -14 22 -33 22 -43 0 -24 39 -57 53 -43 14 14 -13 66 -61 119 -39 41
-56 49 -79 34z"/>
</g>
</svg>
