<?xml version="1.0" standalone="no"?>
<!DOCTYPE svg PUBLIC "-//W3C//DTD SVG 20010904//EN"
 "http://www.w3.org/TR/2001/REC-SVG-20010904/DTD/svg10.dtd">
<svg version="1.0" xmlns="http://www.w3.org/2000/svg"
 width="251.000000pt" height="263.000000pt" viewBox="0 0 251.000000 263.000000"
 preserveAspectRatio="xMidYMid meet">
<metadata>
Created by potrace 1.15, written by Peter Selinger 2001-2017
</metadata>
<g transform="translate(0.000000,263.000000) scale(0.100000,-0.100000)"
fill="#000000" stroke="none">
<path d="M828 2414 c-23 -7 -25 -54 -3 -54 9 0 18 -7 21 -15 8 -20 24 -19 24
1 0 34 124 -1 165 -46 10 -11 22 -20 27 -20 12 0 178 -166 178 -178 0 -5 11
-19 25 -32 14 -13 27 -38 31 -56 3 -18 12 -38 20 -45 8 -6 14 -18 14 -25 0 -8
3 -14 8 -14 4 0 13 -15 21 -32 8 -18 20 -40 26 -48 7 -8 16 -31 20 -50 4 -19
11 -41 15 -50 27 -52 40 -93 40 -128 0 -23 5 -44 10 -47 12 -8 14 -342 1 -349
-4 -3 -11 -37 -13 -76 -3 -39 -11 -77 -17 -83 -6 -6 -11 -28 -11 -49 0 -21 -4
-38 -9 -38 -5 0 -12 -24 -15 -52 -4 -29 -12 -55 -17 -59 -6 -3 -13 -26 -16
-50 -4 -24 -15 -59 -25 -77 -10 -18 -18 -38 -18 -45 0 -7 -6 -24 -14 -38 -7
-14 -16 -38 -20 -54 -4 -16 -18 -42 -32 -58 -13 -16 -24 -39 -24 -53 0 -13 -4
-24 -9 -24 -5 0 -12 -12 -16 -27 -3 -15 -15 -39 -25 -53 -10 -14 -22 -38 -25
-53 -4 -15 -11 -27 -16 -27 -5 0 -9 -13 -9 -30 0 -25 4 -30 23 -30 26 0 57 32
57 60 0 11 13 35 30 53 16 19 30 45 30 57 0 14 5 20 13 17 8 -3 14 5 15 22 2
26 11 50 38 103 8 14 14 36 14 47 0 12 3 21 8 21 11 0 42 59 42 81 0 10 4 19
9 19 5 0 12 25 16 55 3 30 10 55 15 55 4 0 11 21 15 46 3 25 15 61 25 78 10
18 21 57 25 87 4 30 12 60 19 68 15 19 13 516 -3 534 -5 7 -13 32 -17 55 -4
23 -10 42 -15 42 -5 0 -9 11 -9 24 0 14 -4 27 -9 30 -5 3 -12 22 -15 41 -4 19
-11 35 -15 35 -5 0 -12 8 -15 18 -3 9 -22 44 -41 77 -19 33 -38 67 -42 75 -3
8 -14 22 -23 30 -10 8 -21 26 -25 40 -13 46 -239 269 -272 270 -12 0 -23 4
-25 9 -3 11 -154 23 -180 15z"/>
</g>
</svg>
