<?xml version="1.0" standalone="no"?>
<!DOCTYPE svg PUBLIC "-//W3C//DTD SVG 20010904//EN"
 "http://www.w3.org/TR/2001/REC-SVG-20010904/DTD/svg10.dtd">
<svg version="1.0" xmlns="http://www.w3.org/2000/svg"
 width="221.000000pt" height="195.000000pt" viewBox="0 0 221.000000 195.000000"
 preserveAspectRatio="xMidYMid meet">
<metadata>
Created by potrace 1.15, written by Peter Selinger 2001-2017
</metadata>
<g transform="translate(0.000000,195.000000) scale(0.100000,-0.100000)"
fill="#000000" stroke="none">
<path d="M1277 1533 c-8 -10 -19 -30 -22 -45 -4 -16 -11 -28 -16 -28 -5 0 -9
-11 -9 -24 0 -14 -11 -33 -25 -44 -14 -11 -25 -24 -25 -30 0 -5 -7 -15 -15
-22 -9 -7 -23 -29 -32 -49 -10 -20 -28 -46 -40 -57 -13 -12 -23 -26 -23 -33 0
-6 -4 -11 -8 -11 -12 0 -62 54 -62 66 0 6 -13 23 -30 39 -18 17 -30 39 -30 54
-1 19 -11 33 -36 49 -45 28 -57 21 -49 -31 8 -45 7 -43 64 -108 23 -25 44 -60
47 -77 6 -30 5 -31 -40 -37 -25 -4 -49 -11 -52 -16 -3 -5 -19 -9 -35 -9 -17 0
-32 -6 -35 -15 -4 -8 -12 -15 -18 -15 -20 0 -56 -44 -56 -68 0 -16 6 -22 23
-22 13 0 28 -5 35 -12 17 -17 28 0 14 23 -18 28 -9 37 43 45 25 3 45 10 45 15
0 5 9 9 20 9 11 0 29 6 40 12 28 18 51 -4 32 -30 -7 -9 -15 -25 -18 -34 -4
-10 -10 -18 -15 -18 -5 0 -9 -6 -9 -13 0 -8 -11 -24 -25 -37 -14 -13 -25 -29
-25 -36 0 -7 -7 -17 -15 -22 -9 -4 -18 -25 -22 -45 -4 -28 -2 -38 11 -43 22
-9 46 13 46 43 0 16 20 46 55 86 30 33 55 66 55 72 0 17 34 45 54 45 9 0 19
-6 22 -14 3 -8 18 -18 34 -21 15 -3 38 -17 50 -31 13 -13 29 -24 37 -24 7 0
13 -3 13 -8 0 -4 17 -16 38 -27 20 -11 55 -37 77 -57 71 -68 120 -37 52 33
-33 34 -91 79 -102 79 -4 0 -26 16 -49 35 -24 19 -47 35 -53 35 -5 0 -21 13
-36 28 -31 32 -22 52 25 52 15 0 28 5 28 10 0 6 30 10 69 10 49 0 72 4 81 15
9 11 32 15 81 15 37 0 71 5 74 10 3 6 16 11 28 11 12 1 0 6 -28 11 -57 11
-312 1 -321 -13 -7 -11 -44 -12 -44 -1 0 5 12 19 26 33 14 13 30 33 35 44 10
23 32 58 40 65 8 7 36 62 44 85 6 18 7 18 18 -5 7 -13 18 -25 25 -28 10 -3 11
8 6 50 -4 29 -10 55 -14 58 -3 3 -9 13 -13 23 -3 9 -10 17 -15 17 -5 0 -16 -8
-25 -17z"/>
</g>
</svg>
