<?xml version="1.0" standalone="no"?>
<!DOCTYPE svg PUBLIC "-//W3C//DTD SVG 20010904//EN"
 "http://www.w3.org/TR/2001/REC-SVG-20010904/DTD/svg10.dtd">
<svg version="1.0" xmlns="http://www.w3.org/2000/svg"
 width="266.000000pt" height="245.000000pt" viewBox="0 0 266.000000 245.000000"
 preserveAspectRatio="xMidYMid meet">
<metadata>
Created by potrace 1.15, written by Peter Selinger 2001-2017
</metadata>
<g transform="translate(0.000000,245.000000) scale(0.100000,-0.100000)"
fill="#000000" stroke="none">
<path d="M1347 1959 c-4 -141 -10 -236 -16 -242 -7 -7 -11 -57 -11 -118 0 -61
-4 -111 -10 -114 -5 -3 -10 -44 -10 -90 0 -46 -3 -90 -6 -99 -5 -14 -31 -16
-185 -16 -113 0 -179 4 -179 10 0 12 -54 13 -78 1 -45 -23 -73 -30 -141 -35
-41 -3 -77 -9 -80 -14 -3 -5 -17 -13 -31 -17 -69 -19 -81 -29 -78 -60 3 -35
28 -44 52 -20 9 9 32 19 51 22 19 3 35 10 35 14 0 5 13 9 29 9 17 0 32 4 35 9
10 16 145 21 361 14 l210 -8 0 -363 c0 -230 4 -365 10 -370 15 -11 32 -44 39
-79 10 -44 32 -61 53 -41 16 17 10 78 -8 78 -5 0 -9 24 -9 54 0 30 -4 58 -10
61 -6 4 -10 125 -10 331 l0 324 26 10 c14 6 48 10 75 10 27 0 49 4 49 9 0 5
25 12 55 16 30 3 55 11 55 16 0 5 24 9 54 9 30 0 57 4 60 9 3 5 44 12 91 16
47 4 85 10 85 15 0 4 52 11 116 15 120 8 141 17 113 51 -11 14 -29 15 -124 9
-60 -4 -114 -11 -119 -16 -6 -5 -47 -9 -92 -9 -46 0 -85 -4 -89 -9 -3 -6 -27
-13 -53 -17 -26 -3 -51 -10 -57 -14 -5 -5 -43 -12 -82 -15 -40 -4 -73 -12 -73
-16 0 -5 -16 -9 -35 -9 l-35 0 0 65 c0 37 -4 65 -10 65 -5 0 -10 13 -10 29 0
17 5 33 10 36 6 3 10 48 10 101 0 52 4 94 9 94 4 0 11 48 15 107 4 60 11 112
16 117 15 15 13 269 -2 284 -7 7 -24 12 -38 12 l-27 0 -6 -231z"/>
</g>
</svg>
