<?xml version="1.0" standalone="no"?>
<!DOCTYPE svg PUBLIC "-//W3C//DTD SVG 20010904//EN"
 "http://www.w3.org/TR/2001/REC-SVG-20010904/DTD/svg10.dtd">
<svg version="1.0" xmlns="http://www.w3.org/2000/svg"
 width="244.000000pt" height="246.000000pt" viewBox="0 0 244.000000 246.000000"
 preserveAspectRatio="xMidYMid meet">
<metadata>
Created by potrace 1.15, written by Peter Selinger 2001-2017
</metadata>
<g transform="translate(0.000000,246.000000) scale(0.100000,-0.100000)"
fill="#000000" stroke="none">
<path d="M1270 632 c-14 -16 -30 -37 -36 -47 -6 -11 -26 -23 -45 -26 -19 -4
-26 -7 -16 -8 21 -1 23 -43 2 -61 -8 -7 -15 -17 -15 -23 0 -5 -23 -35 -51 -66
-92 -100 -91 -98 -87 -133 2 -28 8 -34 30 -36 32 -4 73 36 82 79 3 15 14 29
25 32 12 3 24 13 28 24 4 10 24 33 45 52 21 19 38 39 38 46 0 6 14 24 30 40
17 16 30 34 30 40 0 6 11 21 25 33 28 24 30 34 15 63 -16 29 -69 24 -100 -9z"/>
</g>
</svg>
