<?xml version="1.0" standalone="no"?>
<!DOCTYPE svg PUBLIC "-//W3C//DTD SVG 20010904//EN"
 "http://www.w3.org/TR/2001/REC-SVG-20010904/DTD/svg10.dtd">
<svg version="1.0" xmlns="http://www.w3.org/2000/svg"
 width="221.000000pt" height="200.000000pt" viewBox="0 0 221.000000 200.000000"
 preserveAspectRatio="xMidYMid meet">
<metadata>
Created by potrace 1.15, written by Peter Selinger 2001-2017
</metadata>
<g transform="translate(0.000000,200.000000) scale(0.100000,-0.100000)"
fill="#000000" stroke="none">
<path d="M1515 1321 c-6 -5 -65 -11 -132 -13 -80 -2 -126 -7 -135 -15 -6 -7
-29 -13 -50 -13 -21 0 -38 -4 -38 -9 0 -4 -31 -11 -70 -13 -38 -3 -77 -11 -86
-18 -9 -8 -51 -16 -100 -18 -46 -3 -87 -8 -90 -13 -3 -5 -30 -9 -60 -9 -53 0
-54 0 -54 -30 0 -20 5 -30 15 -30 8 0 15 -4 15 -10 0 -5 16 -12 35 -16 27 -5
41 -2 55 11 11 10 43 19 80 22 33 3 63 10 66 14 3 5 16 9 30 9 13 0 24 4 24 9
0 5 34 12 75 16 41 4 77 10 80 15 2 4 38 11 80 15 41 4 77 11 81 16 3 5 16 9
30 9 13 0 32 4 42 10 9 5 51 13 92 17 66 7 75 10 75 28 0 22 -42 33 -60 16z"/>
</g>
</svg>
