<?xml version="1.0" standalone="no"?>
<!DOCTYPE svg PUBLIC "-//W3C//DTD SVG 20010904//EN"
 "http://www.w3.org/TR/2001/REC-SVG-20010904/DTD/svg10.dtd">
<svg version="1.0" xmlns="http://www.w3.org/2000/svg"
 width="235.000000pt" height="259.000000pt" viewBox="0 0 235.000000 259.000000"
 preserveAspectRatio="xMidYMid meet">
<metadata>
Created by potrace 1.15, written by Peter Selinger 2001-2017
</metadata>
<g transform="translate(0.000000,259.000000) scale(0.100000,-0.100000)"
fill="#000000" stroke="none">
<path d="M1497 2072 c-11 -12 -17 -36 -17 -70 0 -29 -4 -52 -10 -52 -5 0 -10
-5 -10 -11 0 -15 -32 -83 -42 -90 -5 -3 -11 -23 -15 -45 -3 -21 -9 -43 -13
-49 -4 -5 -11 -25 -15 -42 -3 -18 -10 -33 -13 -33 -9 0 -42 -75 -42 -94 0 -7
-7 -19 -15 -26 -8 -7 -15 -21 -15 -31 0 -10 -4 -21 -10 -24 -5 -3 -10 -17 -10
-31 0 -13 -4 -24 -10 -24 -8 0 -21 -23 -44 -80 -3 -8 -17 -33 -31 -55 -13 -22
-24 -50 -25 -62 0 -13 -4 -23 -9 -23 -5 0 -12 -8 -15 -17 -3 -10 -22 -45 -41
-78 -19 -33 -38 -67 -42 -75 -3 -8 -9 -17 -13 -20 -9 -7 -40 -76 -40 -89 0 -6
-4 -11 -10 -11 -5 0 -17 -17 -27 -37 -9 -21 -23 -44 -30 -51 -7 -7 -13 -21
-13 -31 0 -10 -11 -28 -25 -41 -14 -13 -25 -29 -25 -37 0 -7 -4 -13 -10 -13
-5 0 -10 -11 -10 -25 0 -14 -7 -28 -15 -31 -8 -3 -17 -21 -21 -39 -3 -18 -14
-42 -24 -52 -22 -24 -34 -91 -25 -134 7 -29 9 -31 43 -25 40 6 59 26 37 39
-22 12 -18 58 10 111 14 26 25 53 25 60 0 7 11 23 25 36 14 13 25 31 25 41 0
10 5 21 10 24 6 3 19 26 30 51 11 24 25 44 30 44 6 0 10 10 10 23 0 13 11 34
25 47 14 13 25 31 25 40 0 9 9 25 20 35 11 10 20 26 20 35 0 9 9 25 20 35 11
10 20 23 20 30 0 7 9 20 20 30 11 10 20 28 20 40 0 12 9 31 20 42 10 12 22 34
26 50 4 15 18 48 31 72 12 24 23 52 23 61 0 9 11 27 25 40 14 13 25 30 25 37
0 8 11 34 25 59 14 25 25 51 25 58 0 8 6 19 14 25 7 6 16 30 20 53 4 22 15 53
26 68 10 14 22 38 25 53 4 15 11 27 16 27 5 0 9 11 9 24 0 13 7 37 15 52 8 16
15 47 15 70 0 30 6 46 25 64 17 16 25 34 25 57 0 30 -3 33 -28 33 -16 0 -36
-8 -45 -18z"/>
</g>
</svg>
