<?xml version="1.0" standalone="no"?>
<!DOCTYPE svg PUBLIC "-//W3C//DTD SVG 20010904//EN"
 "http://www.w3.org/TR/2001/REC-SVG-20010904/DTD/svg10.dtd">
<svg version="1.0" xmlns="http://www.w3.org/2000/svg"
 width="140.000000pt" height="203.000000pt" viewBox="0 0 140.000000 203.000000"
 preserveAspectRatio="xMidYMid meet">
<metadata>
Created by potrace 1.15, written by Peter Selinger 2001-2017
</metadata>
<g transform="translate(0.000000,203.000000) scale(0.100000,-0.100000)"
fill="#000000" stroke="none">
<path d="M670 1845 c0 -12 -14 -15 -65 -15 -51 0 -65 -3 -65 -15 0 -10 -10
-15 -30 -15 -20 0 -30 -5 -30 -15 0 -10 -10 -15 -30 -15 -20 0 -30 -5 -30 -15
0 -8 -9 -15 -20 -15 -13 0 -20 -7 -20 -20 0 -11 -7 -20 -15 -20 -8 0 -15 -7
-15 -15 0 -8 -7 -15 -15 -15 -8 0 -15 -7 -15 -15 0 -8 -7 -15 -15 -15 -8 0
-15 -7 -15 -15 0 -8 -7 -15 -15 -15 -10 0 -15 -11 -15 -35 0 -28 -4 -35 -20
-35 -16 0 -20 -7 -20 -30 0 -20 -5 -30 -15 -30 -11 0 -15 -12 -15 -50 0 -38
-4 -50 -15 -50 -12 0 -15 -16 -15 -80 0 -64 -3 -80 -15 -80 -13 0 -15 -24 -15
-160 0 -136 2 -160 15 -160 12 0 15 -16 15 -80 0 -64 3 -80 15 -80 12 0 15
-13 15 -60 0 -47 3 -60 15 -60 11 0 15 -12 15 -50 0 -43 3 -50 20 -50 11 0 20
-7 20 -15 0 -8 7 -15 15 -15 10 0 15 -11 15 -35 0 -24 5 -35 15 -35 10 0 15
-10 15 -30 0 -20 5 -30 15 -30 12 0 15 14 15 65 l0 65 -30 0 c-29 0 -30 2 -30
45 0 33 -4 45 -15 45 -11 0 -15 12 -15 50 0 43 -3 50 -20 50 -18 0 -20 7 -20
80 0 64 -3 80 -15 80 -13 0 -15 30 -15 210 0 180 2 210 15 210 12 0 15 17 15
95 0 88 1 95 20 95 16 0 20 7 20 30 0 20 5 30 15 30 8 0 15 7 15 15 0 8 7 15
15 15 8 0 15 9 15 20 0 11 7 20 15 20 10 0 15 10 15 30 0 20 5 30 15 30 8 0
15 7 15 15 0 8 9 15 20 15 11 0 20 7 20 15 0 10 10 15 30 15 23 0 30 4 30 20
0 16 7 20 30 20 20 0 30 5 30 15 0 11 12 15 50 15 38 0 50 4 50 15 0 12 17 15
95 15 78 0 95 -3 95 -15 0 -10 11 -15 35 -15 24 0 35 -5 35 -15 0 -10 10 -15
30 -15 23 0 30 -4 30 -20 0 -11 7 -20 15 -20 8 0 15 -7 15 -15 0 -8 7 -15 15
-15 10 0 15 -10 15 -30 0 -23 4 -30 20 -30 16 0 20 -7 20 -35 0 -24 5 -35 15
-35 8 0 15 -7 15 -15 0 -8 7 -15 15 -15 12 0 15 -14 15 -65 0 -51 3 -65 15
-65 13 0 15 -21 15 -125 0 -104 2 -125 15 -125 12 0 15 -14 15 -65 0 -51 -3
-65 -15 -65 -12 0 -15 -14 -15 -65 0 -51 -3 -65 -15 -65 -12 0 -15 -16 -15
-80 0 -64 -3 -80 -15 -80 -10 0 -15 -10 -15 -30 0 -20 -5 -30 -15 -30 -8 0
-15 -7 -15 -15 0 -8 -9 -15 -20 -15 -16 0 -20 -7 -20 -35 0 -24 -5 -35 -15
-35 -10 0 -15 -10 -15 -30 0 -20 -5 -30 -15 -30 -8 0 -15 -7 -15 -15 0 -8 -7
-15 -15 -15 -8 0 -15 -9 -15 -20 0 -11 -7 -20 -15 -20 -8 0 -15 -7 -15 -15 0
-8 -9 -15 -20 -15 -11 0 -20 -7 -20 -15 0 -8 -7 -15 -15 -15 -8 0 -15 -7 -15
-15 0 -10 -10 -15 -30 -15 -20 0 -30 -5 -30 -15 0 -8 -7 -15 -15 -15 -8 0 -15
-9 -15 -20 0 -19 -7 -20 -100 -20 -93 0 -100 1 -100 20 0 16 -7 20 -30 20 -20
0 -30 5 -30 15 0 8 -7 15 -15 15 -11 0 -15 12 -15 45 0 33 -4 45 -15 45 -8 0
-15 -7 -15 -15 0 -8 -9 -15 -20 -15 -16 0 -20 -7 -20 -30 0 -23 4 -30 20 -30
11 0 20 -7 20 -15 0 -8 7 -15 15 -15 8 0 15 -9 15 -20 0 -11 7 -20 15 -20 8 0
15 -7 15 -15 0 -10 10 -15 30 -15 20 0 30 -5 30 -15 0 -11 12 -15 50 -15 38 0
50 4 50 15 0 12 14 15 65 15 51 0 65 3 65 15 0 10 10 15 30 15 23 0 30 4 30
20 0 11 7 20 15 20 8 0 15 7 15 15 0 10 11 15 35 15 24 0 35 5 35 15 0 8 7 15
15 15 8 0 15 7 15 15 0 8 7 15 15 15 10 0 15 11 15 35 0 24 5 35 15 35 8 0 15
7 15 15 0 8 9 15 20 15 16 0 20 7 20 30 0 20 5 30 15 30 8 0 15 7 15 15 0 8 7
15 15 15 11 0 15 12 15 50 0 38 4 50 15 50 10 0 15 10 15 30 0 20 5 30 15 30
12 0 15 14 15 65 0 58 2 65 20 65 19 0 20 7 20 95 0 78 3 95 15 95 8 0 15 9
15 20 0 11 -7 20 -15 20 -13 0 -15 22 -15 140 0 133 -1 140 -20 140 -18 0 -20
7 -20 65 0 51 -3 65 -15 65 -10 0 -15 11 -15 35 0 24 -5 35 -15 35 -8 0 -15 7
-15 15 0 8 -7 15 -15 15 -10 0 -15 10 -15 30 0 20 -5 30 -15 30 -8 0 -15 7
-15 15 0 8 -9 15 -20 15 -13 0 -20 7 -20 20 0 11 -7 20 -15 20 -8 0 -15 7 -15
15 0 8 -7 15 -15 15 -8 0 -15 7 -15 15 0 10 -10 15 -30 15 -20 0 -30 5 -30 15
0 10 -11 15 -35 15 -24 0 -35 5 -35 15 0 12 -16 15 -80 15 -64 0 -80 -3 -80
-15z"/>
</g>
</svg>
