<?xml version="1.0" standalone="no"?>
<!DOCTYPE svg PUBLIC "-//W3C//DTD SVG 20010904//EN"
 "http://www.w3.org/TR/2001/REC-SVG-20010904/DTD/svg10.dtd">
<svg version="1.0" xmlns="http://www.w3.org/2000/svg"
 width="171.000000pt" height="200.000000pt" viewBox="0 0 171.000000 200.000000"
 preserveAspectRatio="xMidYMid meet">
<metadata>
Created by potrace 1.15, written by Peter Selinger 2001-2017
</metadata>
<g transform="translate(0.000000,200.000000) scale(0.100000,-0.100000)"
fill="#000000" stroke="none">
<path d="M758 1849 c-10 -5 -18 -18 -18 -28 0 -10 -11 -28 -25 -41 -14 -13
-25 -30 -25 -37 0 -7 -18 -33 -40 -57 -22 -24 -40 -47 -40 -51 0 -4 -25 -36
-55 -70 -30 -35 -55 -73 -55 -84 0 -12 -4 -21 -10 -21 -5 0 -10 -6 -10 -14 0
-7 -7 -20 -16 -27 -9 -7 -20 -22 -25 -34 -5 -11 -20 -38 -34 -60 -13 -22 -31
-53 -38 -70 -8 -16 -21 -36 -30 -43 -9 -8 -19 -34 -23 -58 -3 -24 -10 -44 -14
-44 -5 0 -11 -13 -15 -30 -4 -16 -11 -32 -16 -35 -5 -4 -9 -19 -9 -36 0 -16
-4 -29 -10 -29 -14 0 -12 -64 2 -78 22 -22 35 -12 41 32 4 24 16 61 27 80 11
20 20 43 20 50 0 7 7 19 15 26 8 7 15 19 15 27 0 15 29 84 39 93 9 8 30 43 44
75 8 17 22 36 31 44 9 8 27 37 40 65 13 29 31 58 40 65 9 7 16 20 16 28 0 7 7
16 15 19 8 4 15 12 15 19 0 6 10 20 21 31 12 10 25 28 30 39 15 34 33 58 62
84 15 14 27 31 27 37 0 15 29 39 37 30 3 -3 0 -18 -8 -33 -20 -36 -21 -1295
-1 -1314 18 -19 15 -52 -6 -66 -10 -6 -53 -14 -95 -18 -43 -4 -80 -11 -83 -16
-3 -5 -20 -9 -37 -9 -18 0 -45 -7 -61 -15 -15 -8 -41 -15 -56 -15 -15 0 -33
-7 -40 -15 -7 -8 -25 -15 -40 -15 -19 0 -37 -10 -54 -31 -14 -17 -26 -34 -26
-39 0 -4 -9 -10 -20 -13 -30 -8 -26 -49 7 -64 31 -15 50 -4 55 30 2 12 13 26
26 32 12 5 22 13 22 17 0 4 16 10 35 14 19 3 38 10 41 15 3 5 16 9 30 9 13 0
24 4 24 9 0 6 32 13 70 17 39 3 70 10 70 14 0 5 38 11 85 15 47 4 88 11 91 16
3 5 23 9 45 9 21 0 39 5 39 10 0 6 10 10 23 10 12 0 31 6 42 14 11 7 50 17 88
20 37 4 67 12 67 17 0 5 23 9 50 9 28 0 50 4 50 10 0 5 17 12 38 15 20 3 44
10 53 15 9 5 44 12 78 16 34 4 64 11 67 15 3 5 15 9 28 9 27 0 76 22 76 34 0
10 -223 -3 -230 -14 -3 -4 -36 -11 -74 -15 -38 -4 -83 -15 -100 -24 -17 -10
-57 -20 -89 -24 -32 -3 -64 -10 -70 -16 -7 -5 -47 -13 -88 -17 l-76 -6 -4 43
c-3 24 -5 331 -4 682 l1 637 37 38 c44 45 48 72 12 72 -24 0 -30 -9 -26 -38 2
-9 -8 -12 -31 -10 -43 4 -43 29 0 40 46 12 42 38 -5 38 -21 0 -46 -5 -55 -11z"/>
</g>
</svg>
