<?xml version="1.0" standalone="no"?>
<!DOCTYPE svg PUBLIC "-//W3C//DTD SVG 20010904//EN"
 "http://www.w3.org/TR/2001/REC-SVG-20010904/DTD/svg10.dtd">
<svg version="1.0" xmlns="http://www.w3.org/2000/svg"
 width="154.000000pt" height="149.000000pt" viewBox="0 0 154.000000 149.000000"
 preserveAspectRatio="xMidYMid meet">
<metadata>
Created by potrace 1.15, written by Peter Selinger 2001-2017
</metadata>
<g transform="translate(0.000000,149.000000) scale(0.100000,-0.100000)"
fill="#000000" stroke="none">
<path d="M305 1313 c-38 -2 -74 -8 -80 -12 -5 -5 -26 -12 -45 -16 -59 -12
-103 -70 -69 -90 5 -4 14 -18 19 -31 8 -19 17 -24 45 -24 41 0 44 8 10 40 -30
28 -18 50 25 50 16 0 30 6 33 13 5 15 439 16 459 0 7 -6 36 -13 64 -15 30 -3
64 -14 82 -26 16 -12 37 -22 46 -22 21 0 66 -47 66 -70 0 -10 5 -22 10 -25 12
-8 13 -92 1 -99 -4 -3 -11 -33 -15 -66 -4 -33 -11 -60 -15 -60 -5 0 -11 -8
-15 -17 -6 -19 -27 -54 -37 -63 -3 -3 -14 -21 -25 -40 -16 -30 -30 -49 -84
-117 -6 -7 -10 -16 -10 -20 0 -5 -61 -69 -135 -143 -74 -74 -135 -138 -135
-143 0 -11 -26 -37 -36 -37 -14 0 -64 -53 -64 -67 0 -8 -7 -16 -15 -19 -8 -4
-15 -17 -15 -30 0 -19 7 -26 30 -31 17 -3 33 -10 36 -14 7 -12 94 -12 94 0 0
5 25 12 55 16 31 3 68 13 83 21 15 7 39 14 55 14 15 0 27 5 27 10 0 6 6 10 14
10 7 0 19 7 26 15 7 8 25 15 41 15 15 0 30 4 34 9 3 5 20 13 38 16 17 4 43 16
57 25 14 10 44 22 65 25 22 4 45 11 50 15 6 4 24 10 40 14 17 4 50 17 74 29
l45 22 -58 3 c-33 2 -64 -2 -69 -7 -6 -6 -23 -11 -38 -11 -15 0 -32 -7 -39
-15 -7 -8 -26 -15 -42 -15 -16 0 -31 -6 -34 -15 -4 -10 -20 -15 -44 -15 -22 0
-41 -4 -44 -9 -3 -4 -20 -11 -37 -15 -17 -3 -43 -14 -57 -25 -15 -10 -53 -22
-85 -26 -31 -4 -60 -11 -63 -16 -2 -5 -27 -11 -55 -15 -27 -4 -52 -11 -55 -15
-6 -11 -64 -12 -64 -2 0 4 50 59 111 122 61 64 133 141 160 171 26 30 69 78
94 106 25 28 45 54 45 58 0 5 25 36 56 69 62 68 74 92 74 143 0 19 4 34 9 34
40 0 59 213 24 268 -21 32 -68 82 -78 82 -9 0 -71 27 -107 46 -14 8 -37 14
-50 14 -13 0 -28 4 -33 9 -11 9 -339 20 -450 14z"/>
</g>
</svg>
