<?xml version="1.0" standalone="no"?>
<!DOCTYPE svg PUBLIC "-//W3C//DTD SVG 20010904//EN"
 "http://www.w3.org/TR/2001/REC-SVG-20010904/DTD/svg10.dtd">
<svg version="1.0" xmlns="http://www.w3.org/2000/svg"
 width="105.000000pt" height="131.000000pt" viewBox="0 0 105.000000 131.000000"
 preserveAspectRatio="xMidYMid meet">
<metadata>
Created by potrace 1.15, written by Peter Selinger 2001-2017
</metadata>
<g transform="translate(0.000000,131.000000) scale(0.100000,-0.100000)"
fill="#000000" stroke="none">
<path d="M350 1210 c0 -5 -13 -10 -29 -10 -17 0 -33 -4 -36 -10 -3 -5 -23 -10
-44 -10 -20 0 -43 -6 -49 -12 -7 -7 -31 -18 -54 -23 -39 -10 -69 -37 -56 -50
15 -15 114 -16 138 -1 14 9 33 19 43 22 9 3 17 10 17 15 0 5 24 9 54 9 30 0
58 5 61 10 4 6 55 10 120 10 96 0 120 -3 150 -20 20 -11 40 -20 46 -20 6 0 35
-11 65 -25 52 -24 54 -26 54 -64 0 -25 -5 -41 -15 -45 -8 -3 -15 -11 -15 -19
0 -7 -11 -24 -25 -37 -14 -13 -25 -28 -25 -33 0 -5 -10 -19 -23 -31 -13 -12
-26 -29 -30 -39 -4 -10 -14 -20 -24 -24 -10 -4 -27 -16 -38 -28 -11 -11 -37
-33 -57 -48 -21 -15 -38 -33 -38 -38 0 -5 -11 -20 -25 -33 -29 -27 -30 -32 -9
-53 14 -14 20 -11 68 36 28 28 55 51 60 51 9 0 166 160 209 214 15 18 27 41
27 49 0 9 5 19 10 22 6 3 10 28 10 56 0 44 -4 53 -36 84 -20 19 -43 35 -52 35
-10 0 -26 7 -36 15 -11 8 -30 15 -43 15 -13 0 -23 5 -23 10 0 6 -18 10 -39 10
-22 0 -43 5 -46 10 -4 6 -60 10 -136 10 -79 0 -129 -4 -129 -10z"/>
<path d="M560 596 c0 -23 22 -33 85 -41 35 -4 68 -14 80 -25 11 -9 40 -20 63
-23 25 -3 54 -15 67 -27 l23 -22 -21 -26 c-53 -63 -100 -112 -109 -112 -5 0
-19 -10 -31 -22 -29 -30 -80 -58 -106 -58 -16 0 -21 -6 -21 -25 0 -20 -5 -25
-24 -25 -14 0 -28 -4 -31 -10 -3 -5 -18 -10 -33 -10 -15 0 -37 -6 -48 -14 -11
-8 -33 -16 -48 -18 -38 -4 -55 -30 -36 -53 25 -30 115 -4 161 47 8 9 28 20 45
24 16 4 43 16 59 26 17 10 37 20 45 24 8 3 22 10 30 15 8 5 22 12 30 16 37 17
180 152 180 170 0 7 5 13 10 13 6 0 10 15 10 33 0 34 -42 87 -68 87 -7 0 -12
4 -12 10 0 5 -16 12 -35 16 -19 3 -38 10 -41 15 -3 5 -23 9 -44 9 -21 0 -42 5
-45 10 -3 6 -35 10 -71 10 -48 0 -64 -4 -64 -14z"/>
</g>
</svg>
