<?xml version="1.0" standalone="no"?>
<!DOCTYPE svg PUBLIC "-//W3C//DTD SVG 20010904//EN"
 "http://www.w3.org/TR/2001/REC-SVG-20010904/DTD/svg10.dtd">
<svg version="1.0" xmlns="http://www.w3.org/2000/svg"
 width="102.000000pt" height="141.000000pt" viewBox="0 0 102.000000 141.000000"
 preserveAspectRatio="xMidYMid meet">
<metadata>
Created by potrace 1.15, written by Peter Selinger 2001-2017
</metadata>
<g transform="translate(0.000000,141.000000) scale(0.100000,-0.100000)"
fill="#000000" stroke="none">
<path d="M202 1258 c-17 -17 -15 -45 3 -52 11 -4 15 -21 15 -65 0 -33 -4 -62
-9 -65 -4 -3 -11 -40 -14 -82 -3 -42 -10 -81 -16 -87 -6 -6 -11 -28 -11 -48 0
-21 -4 -40 -9 -43 -5 -4 -12 -24 -16 -46 -4 -22 -11 -42 -16 -46 -13 -8 -11
-128 3 -142 16 -16 117 -15 149 1 14 8 56 17 93 21 37 4 75 11 84 15 43 22 71
30 120 35 l52 5 0 -124 c0 -72 4 -126 10 -130 6 -3 10 -21 10 -40 0 -19 5 -37
10 -40 6 -3 10 -14 10 -23 0 -9 7 -30 15 -46 8 -15 15 -34 15 -40 0 -18 83
-96 102 -96 24 0 12 31 -28 79 -19 21 -37 53 -40 70 -4 17 -11 34 -15 37 -5 3
-9 23 -9 44 0 21 -4 42 -10 45 -5 3 -10 24 -10 45 0 21 5 42 10 45 6 3 10 49
10 104 0 105 7 121 50 121 25 1 90 51 90 70 0 5 -9 10 -20 10 -11 0 -20 -4
-20 -10 0 -5 -5 -10 -12 -10 -6 0 -19 -6 -27 -14 -9 -7 -26 -17 -38 -20 -22
-7 -23 -5 -23 48 0 31 4 56 9 56 4 0 10 61 13 135 7 163 10 169 85 159 61 -7
68 4 23 36 -22 16 -41 20 -77 18 -43 -3 -48 -6 -56 -33 -5 -16 -14 -39 -19
-49 -6 -10 -13 -63 -15 -118 -3 -54 -10 -101 -14 -104 -5 -3 -9 -39 -9 -79 0
-81 -10 -95 -64 -95 -14 0 -28 -4 -31 -10 -3 -5 -25 -10 -49 -10 -23 0 -46 -4
-52 -10 -5 -5 -46 -13 -89 -16 -44 -4 -83 -11 -86 -17 -4 -5 -27 -12 -53 -14
l-46 -6 0 47 c0 32 5 48 15 52 9 4 15 19 15 39 0 19 5 37 10 40 5 3 10 19 10
35 0 16 4 31 9 34 4 3 11 38 15 78 3 40 12 76 19 80 15 9 11 206 -5 225 -13
16 -50 17 -66 1z"/>
</g>
</svg>
