<?xml version="1.0" standalone="no"?>
<!DOCTYPE svg PUBLIC "-//W3C//DTD SVG 20010904//EN"
 "http://www.w3.org/TR/2001/REC-SVG-20010904/DTD/svg10.dtd">
<svg version="1.0" xmlns="http://www.w3.org/2000/svg"
 width="141.000000pt" height="136.000000pt" viewBox="0 0 141.000000 136.000000"
 preserveAspectRatio="xMidYMid meet">
<metadata>
Created by potrace 1.15, written by Peter Selinger 2001-2017
</metadata>
<g transform="translate(0.000000,136.000000) scale(0.100000,-0.100000)"
fill="#000000" stroke="none">
<path d="M905 1213 c-55 -2 -104 -8 -109 -13 -6 -6 -41 -10 -78 -10 -37 0 -68
-4 -68 -9 0 -4 -37 -11 -82 -14 -45 -4 -86 -11 -92 -17 -5 -5 -22 -10 -36 -10
-14 0 -35 -7 -46 -15 -22 -16 -90 -20 -99 -5 -17 28 -78 -2 -99 -50 -3 -8 -17
-35 -31 -59 -14 -24 -25 -50 -25 -57 0 -7 -9 -29 -19 -48 -20 -35 -27 -84 -23
-163 2 -36 10 -51 58 -102 l56 -61 192 0 c150 0 196 -3 216 -15 14 -8 33 -18
44 -21 16 -6 18 -15 14 -66 -4 -50 -9 -64 -39 -96 -20 -20 -40 -49 -46 -63 -9
-21 -20 -27 -59 -33 -81 -11 -124 -8 -124 9 0 16 -35 21 -44 6 -3 -5 13 -26
35 -46 41 -37 42 -37 103 -30 33 3 63 10 66 14 3 5 16 12 29 16 76 24 196 222
151 250 -5 3 -10 14 -10 24 0 19 -59 81 -77 81 -6 0 -13 6 -15 12 -4 10 -55
14 -194 16 -104 2 -193 8 -199 13 -5 5 -17 9 -28 9 -41 0 -52 27 -52 136 0 86
3 105 19 123 11 12 24 31 30 43 13 26 82 67 114 68 12 0 22 5 22 10 0 6 11 10
23 10 25 0 83 25 92 40 3 5 50 12 105 15 55 4 100 11 100 16 0 5 31 9 68 9 37
0 73 5 79 11 6 6 59 13 117 16 58 3 106 10 106 14 0 13 167 11 175 -1 3 -5 21
-10 40 -10 19 0 37 5 40 10 3 6 21 11 38 11 27 2 28 2 7 6 -13 3 -33 11 -44
19 -20 14 -123 16 -401 7z"/>
</g>
</svg>
