<?xml version="1.0" standalone="no"?>
<!DOCTYPE svg PUBLIC "-//W3C//DTD SVG 20010904//EN"
 "http://www.w3.org/TR/2001/REC-SVG-20010904/DTD/svg10.dtd">
<svg version="1.0" xmlns="http://www.w3.org/2000/svg"
 width="88.000000pt" height="167.000000pt" viewBox="0 0 88.000000 167.000000"
 preserveAspectRatio="xMidYMid meet">
<metadata>
Created by potrace 1.15, written by Peter Selinger 2001-2017
</metadata>
<g transform="translate(0.000000,167.000000) scale(0.100000,-0.100000)"
fill="#000000" stroke="none">
<path d="M511 1531 c-13 -3 -29 -15 -35 -26 -16 -28 -29 -40 -49 -48 -9 -3
-22 -18 -29 -32 -6 -14 -15 -25 -19 -25 -4 0 -10 -14 -14 -30 -4 -17 -15 -36
-26 -43 -10 -6 -19 -15 -19 -19 0 -15 -35 -88 -42 -88 -11 0 -38 -61 -44 -102
-4 -21 -10 -38 -14 -38 -5 0 -11 -30 -15 -67 -3 -38 -10 -76 -15 -85 -6 -10
-10 -28 -10 -41 0 -13 -6 -29 -12 -36 -18 -17 -18 -405 0 -423 6 -6 12 -27 12
-44 0 -18 4 -35 9 -38 5 -3 12 -21 15 -40 4 -19 13 -39 21 -46 8 -7 15 -19 15
-26 0 -8 5 -14 10 -14 6 0 10 -6 10 -14 0 -7 20 -32 45 -55 35 -32 52 -41 80
-41 19 0 44 -6 55 -12 15 -10 24 -10 39 -1 10 6 40 15 67 19 40 6 56 15 96 56
28 29 48 58 48 72 0 12 7 31 15 42 16 22 21 124 5 124 -5 0 -10 11 -10 25 0
13 -6 28 -13 32 -8 4 -16 16 -20 26 -4 9 -14 20 -24 24 -10 4 -27 17 -39 30
-19 21 -30 23 -114 23 -74 0 -97 -4 -118 -19 -15 -10 -38 -22 -52 -26 -13 -4
-37 -21 -53 -36 -16 -16 -33 -29 -38 -29 -13 0 -12 357 1 365 6 3 10 21 10 40
0 19 4 36 9 39 4 3 11 37 15 76 4 38 11 70 17 70 5 0 9 11 9 25 0 27 31 105
42 105 3 0 9 13 13 29 3 16 13 35 21 42 8 6 14 19 14 29 0 9 9 25 20 35 11 10
20 24 20 32 0 7 7 16 15 19 8 4 15 12 15 18 0 16 52 66 68 66 7 0 12 5 12 11
0 6 10 9 23 7 17 -2 23 -11 27 -38 4 -29 10 -36 33 -38 26 -3 27 -2 27 45 0
41 -5 54 -28 76 -28 27 -54 32 -101 18z m49 -1031 c0 -5 6 -10 14 -10 16 0 66
-55 66 -73 0 -6 10 -21 22 -34 19 -20 20 -27 10 -43 -7 -11 -12 -28 -12 -38 0
-10 -21 -42 -47 -71 l-48 -53 -95 -5 -95 -6 -43 46 c-23 26 -42 53 -42 61 0 7
-7 19 -15 26 -8 7 -15 25 -15 41 0 15 -4 31 -10 34 -14 9 -12 35 3 35 7 0 31
18 52 40 21 22 45 40 52 40 7 0 13 5 13 10 0 6 38 10 95 10 57 0 95 -4 95 -10z"/>
</g>
</svg>
