<?xml version="1.0" standalone="no"?>
<!DOCTYPE svg PUBLIC "-//W3C//DTD SVG 20010904//EN"
 "http://www.w3.org/TR/2001/REC-SVG-20010904/DTD/svg10.dtd">
<svg version="1.0" xmlns="http://www.w3.org/2000/svg"
 width="136.000000pt" height="141.000000pt" viewBox="0 0 136.000000 141.000000"
 preserveAspectRatio="xMidYMid meet">
<metadata>
Created by potrace 1.15, written by Peter Selinger 2001-2017
</metadata>
<g transform="translate(0.000000,141.000000) scale(0.100000,-0.100000)"
fill="#000000" stroke="none">
<path d="M698 1133 c-32 -2 -58 -8 -58 -13 0 -6 -41 -10 -94 -10 -90 0 -95 -1
-98 -22 -4 -27 -54 -39 -64 -15 -4 11 -20 14 -72 10 -37 -3 -71 -9 -76 -14 -6
-5 -31 -9 -57 -9 -55 0 -69 -13 -43 -41 18 -20 88 -27 99 -9 3 6 32 10 64 10
31 0 61 4 66 9 6 5 64 13 130 17 66 3 126 11 133 16 7 6 124 13 275 16 l263 5
29 -25 29 -25 -33 -66 c-18 -36 -41 -73 -52 -83 -10 -9 -19 -22 -19 -28 0 -6
-13 -27 -28 -46 -16 -19 -31 -43 -35 -53 -4 -9 -15 -20 -24 -24 -24 -8 -73
-54 -73 -68 0 -14 -132 -145 -146 -145 -19 0 -241 -226 -259 -264 l-18 -37 34
-35 c40 -41 76 -44 109 -9 l23 25 -41 0 c-39 0 -42 2 -42 28 0 20 14 42 53 80
29 29 57 52 62 52 6 0 16 9 22 19 7 11 25 26 40 33 15 7 33 23 39 36 14 27
135 152 148 152 14 0 66 52 66 65 0 6 22 33 50 60 28 27 50 57 50 66 0 9 7 22
15 29 8 7 15 17 15 22 0 5 10 19 23 31 13 12 27 29 30 37 4 8 18 33 32 55 35
58 32 81 -19 131 l-43 44 -224 -2 c-123 -1 -250 -3 -281 -5z"/>
</g>
</svg>
