<?xml version="1.0" standalone="no"?>
<!DOCTYPE svg PUBLIC "-//W3C//DTD SVG 20010904//EN"
 "http://www.w3.org/TR/2001/REC-SVG-20010904/DTD/svg10.dtd">
<svg version="1.0" xmlns="http://www.w3.org/2000/svg"
 width="117.000000pt" height="160.000000pt" viewBox="0 0 117.000000 160.000000"
 preserveAspectRatio="xMidYMid meet">
<metadata>
Created by potrace 1.15, written by Peter Selinger 2001-2017
</metadata>
<g transform="translate(0.000000,160.000000) scale(0.100000,-0.100000)"
fill="#000000" stroke="none">
<path d="M535 1480 c-3 -5 -14 -10 -24 -10 -10 0 -24 -7 -31 -15 -7 -8 -20
-15 -30 -15 -20 0 -54 -28 -62 -51 -11 -30 28 -51 55 -29 66 54 80 61 126 67
48 5 50 5 57 -22 8 -33 -3 -147 -15 -154 -5 -3 -12 -25 -16 -48 -4 -24 -11
-45 -15 -48 -10 -6 -45 11 -68 33 -7 6 -20 12 -28 12 -18 0 -57 21 -67 38 -4
6 -13 12 -19 12 -7 0 -22 10 -34 21 -20 19 -21 23 -8 36 15 15 20 53 7 53 -14
0 -29 -15 -36 -32 -11 -31 -103 -19 -128 16 -4 5 -30 11 -58 14 -56 5 -69 -10
-26 -30 14 -6 25 -15 25 -19 0 -8 88 -50 127 -61 12 -3 8 -16 -30 -96 -6 -13
-11 -46 -12 -74 0 -67 21 -76 30 -14 4 25 11 46 15 46 4 0 10 19 14 42 12 73
42 87 93 44 16 -14 41 -28 56 -31 15 -4 27 -11 27 -15 0 -4 12 -11 27 -15 45
-11 66 -44 58 -90 -3 -22 -10 -44 -16 -49 -5 -6 -9 -23 -9 -39 0 -26 -15 -71
-41 -119 -5 -9 -12 -36 -15 -60 -4 -24 -10 -48 -15 -53 -4 -6 -11 -30 -15 -53
-4 -23 -10 -42 -15 -42 -5 0 -9 -65 -9 -145 0 -82 4 -145 9 -145 5 0 12 -13
16 -29 18 -81 131 -105 240 -51 33 16 67 30 75 30 9 0 38 22 65 50 27 27 53
50 58 50 14 0 57 52 57 70 0 10 7 23 16 30 41 35 73 167 44 185 -5 3 -10 23
-10 43 -1 21 -11 54 -25 77 -14 22 -28 47 -32 55 -4 8 -22 28 -40 44 -18 16
-33 35 -33 41 0 13 -62 75 -74 75 -5 0 -19 11 -32 25 -13 14 -27 25 -32 25 -4
0 -21 13 -37 30 -25 27 -27 34 -22 81 4 28 12 58 18 65 7 8 14 60 17 116 5 97
4 101 -19 119 -26 20 -123 27 -134 9z m152 -480 c6 0 13 -7 17 -15 3 -8 11
-15 18 -15 14 0 138 -119 138 -133 0 -5 12 -25 28 -44 26 -35 27 -42 27 -149
0 -109 -1 -114 -27 -141 -16 -16 -28 -32 -28 -36 0 -10 -86 -93 -104 -100 -9
-4 -19 -15 -23 -24 -10 -27 -23 -33 -75 -33 -26 0 -50 -4 -53 -10 -3 -5 -25
-10 -49 -10 -35 0 -46 5 -64 30 -19 25 -22 42 -22 129 0 56 -4 103 -10 106
-22 13 -2 125 23 125 4 0 7 9 7 20 0 11 9 37 20 57 11 21 20 50 20 65 0 16 5
28 10 28 6 0 10 10 10 23 0 12 7 31 15 41 8 11 15 30 15 42 0 20 11 47 34 82
6 11 14 8 35 -12 15 -14 32 -26 38 -26z"/>
</g>
</svg>
