<?xml version="1.0" standalone="no"?>
<!DOCTYPE svg PUBLIC "-//W3C//DTD SVG 20010904//EN"
 "http://www.w3.org/TR/2001/REC-SVG-20010904/DTD/svg10.dtd">
<svg version="1.0" xmlns="http://www.w3.org/2000/svg"
 width="110.000000pt" height="193.000000pt" viewBox="0 0 110.000000 193.000000"
 preserveAspectRatio="xMidYMid meet">
<metadata>
Created by potrace 1.15, written by Peter Selinger 2001-2017
</metadata>
<g transform="translate(0.000000,193.000000) scale(0.100000,-0.100000)"
fill="#000000" stroke="none">
<path d="M506 1721 c-3 -5 -21 -12 -39 -15 -23 -4 -55 -29 -113 -89 -81 -82
-127 -157 -140 -222 -3 -19 -10 -38 -15 -41 -12 -7 -11 -81 1 -89 6 -3 10 -19
10 -35 0 -44 17 -79 44 -90 13 -5 27 -14 31 -19 13 -22 108 -12 165 17 73 36
153 114 143 139 -6 16 -5 16 10 4 14 -11 20 -11 32 -1 8 7 15 17 15 22 0 5 11
19 25 32 14 13 25 33 25 45 0 18 6 21 45 21 l45 0 1 48 c0 46 24 103 44 106
14 1 19 -64 6 -77 -6 -6 -11 -36 -11 -66 -1 -33 -7 -64 -15 -75 -9 -11 -15
-41 -15 -68 0 -26 -4 -48 -9 -48 -5 0 -12 -24 -16 -52 -3 -29 -11 -64 -17 -78
-24 -56 -27 -68 -33 -127 -4 -35 -11 -63 -15 -63 -4 0 -11 -25 -15 -55 -3 -30
-11 -55 -16 -55 -5 0 -9 -28 -9 -62 -1 -40 -6 -70 -15 -82 -8 -11 -15 -32 -15
-46 0 -14 -5 -31 -12 -38 -15 -15 -15 -246 0 -264 5 -7 13 -27 16 -44 10 -47
47 -76 103 -81 26 -3 59 0 73 6 24 9 23 10 -11 10 -21 1 -42 8 -50 17 -7 9
-23 20 -36 25 -17 6 -23 16 -23 38 0 16 -4 33 -10 36 -12 8 -13 202 -1 209 5
4 12 29 16 56 4 27 11 52 16 56 5 3 9 18 9 34 0 16 4 31 9 34 4 3 11 38 15 77
3 40 10 77 15 83 5 6 12 36 15 66 4 30 11 65 17 78 5 12 13 32 18 45 5 12 12
50 14 85 3 34 9 68 15 75 5 7 12 50 16 97 4 47 11 89 16 94 6 6 10 27 10 48 0
21 4 38 9 38 5 0 12 43 16 95 8 98 1 125 -31 125 -15 0 -54 -35 -54 -48 0 -5
-11 -19 -25 -32 l-25 -24 -53 52 c-44 43 -60 53 -100 58 -26 4 -50 11 -53 15
-7 12 -61 12 -68 0z m172 -100 c23 -22 42 -44 42 -49 0 -5 6 -15 14 -21 12
-10 12 -16 0 -39 -8 -15 -14 -31 -14 -36 0 -5 -10 -18 -23 -30 -12 -11 -30
-37 -39 -57 -18 -38 -45 -66 -81 -83 -12 -7 -28 -24 -35 -39 -8 -16 -24 -32
-37 -37 -13 -5 -26 -14 -30 -19 -3 -6 -14 -11 -24 -11 -10 0 -24 -7 -31 -15
-18 -21 -108 -20 -132 2 -10 9 -18 27 -18 40 0 12 -4 23 -10 23 -5 0 -10 16
-10 35 0 19 4 35 9 35 5 0 12 25 16 55 3 30 10 55 15 55 4 0 11 8 14 18 16 44
44 82 107 145 l67 67 79 0 c78 0 79 0 121 -39z"/>
</g>
</svg>
