<?xml version="1.0" standalone="no"?>
<!DOCTYPE svg PUBLIC "-//W3C//DTD SVG 20010904//EN"
 "http://www.w3.org/TR/2001/REC-SVG-20010904/DTD/svg10.dtd">
<svg version="1.0" xmlns="http://www.w3.org/2000/svg"
 width="224.000000pt" height="249.000000pt" viewBox="0 0 224.000000 249.000000"
 preserveAspectRatio="xMidYMid meet">
<metadata>
Created by potrace 1.15, written by Peter Selinger 2001-2017
</metadata>
<g transform="translate(0.000000,249.000000) scale(0.100000,-0.100000)"
fill="#000000" stroke="none">
<path d="M1146 1996 c-13 -32 -18 -35 -63 -38 l-48 -3 -3 -67 c-2 -56 0 -68
13 -68 8 0 15 -7 15 -15 0 -8 2 -15 3 -15 11 0 67 33 77 45 7 8 20 15 29 15
26 0 41 21 41 56 0 18 5 36 10 39 14 9 13 58 -2 73 -24 24 -57 14 -72 -22z"/>
<path d="M1142 765 c-13 -7 -29 -18 -35 -24 -6 -6 -18 -11 -27 -11 -29 0 -87
-72 -93 -115 -4 -22 -11 -41 -17 -43 -5 -2 -10 -10 -10 -18 0 -13 19 -20 70
-26 15 -2 29 -12 35 -26 11 -26 29 -24 33 4 2 10 7 28 12 39 4 11 11 38 14 59
5 40 48 96 73 96 19 0 16 44 -5 63 -21 19 -19 19 -50 2z"/>
</g>
</svg>
