<?xml version="1.0" standalone="no"?>
<!DOCTYPE svg PUBLIC "-//W3C//DTD SVG 20010904//EN"
 "http://www.w3.org/TR/2001/REC-SVG-20010904/DTD/svg10.dtd">
<svg version="1.0" xmlns="http://www.w3.org/2000/svg"
 width="230.000000pt" height="241.000000pt" viewBox="0 0 230.000000 241.000000"
 preserveAspectRatio="xMidYMid meet">
<metadata>
Created by potrace 1.15, written by Peter Selinger 2001-2017
</metadata>
<g transform="translate(0.000000,241.000000) scale(0.100000,-0.100000)"
fill="#000000" stroke="none">
<path d="M1117 2052 c-15 -15 -27 -32 -27 -36 0 -5 -16 -23 -35 -41 -19 -18
-37 -45 -41 -59 -3 -14 -10 -29 -15 -32 -5 -3 -9 -14 -9 -25 0 -40 76 -16 125
38 11 13 29 23 38 23 30 0 107 79 107 110 0 37 -18 50 -70 50 -38 0 -51 -5
-73 -28z"/>
<path d="M1167 902 c-9 -10 -19 -38 -23 -62 -4 -25 -13 -53 -21 -62 -14 -16
-31 -44 -69 -118 -10 -19 -30 -46 -45 -60 -14 -14 -32 -40 -40 -57 -8 -18 -16
-33 -19 -33 -3 0 -14 -16 -25 -36 -23 -44 -12 -68 33 -72 28 -3 31 0 37 32 4
19 18 44 31 57 13 12 24 28 24 34 0 6 11 22 25 35 14 13 25 27 25 32 0 5 11
19 24 31 13 12 27 33 31 47 4 14 16 37 26 52 11 14 19 30 19 36 0 5 7 15 15
22 22 18 20 102 -3 123 -23 21 -25 21 -45 -1z"/>
</g>
</svg>
