<?xml version="1.0" standalone="no"?>
<!DOCTYPE svg PUBLIC "-//W3C//DTD SVG 20010904//EN"
 "http://www.w3.org/TR/2001/REC-SVG-20010904/DTD/svg10.dtd">
<svg version="1.0" xmlns="http://www.w3.org/2000/svg"
 width="195.000000pt" height="207.000000pt" viewBox="0 0 195.000000 207.000000"
 preserveAspectRatio="xMidYMid meet">
<metadata>
Created by potrace 1.15, written by Peter Selinger 2001-2017
</metadata>
<g transform="translate(0.000000,207.000000) scale(0.100000,-0.100000)"
fill="#000000" stroke="none">
<path d="M1160 1608 c0 -8 -13 -27 -30 -43 -16 -16 -30 -36 -30 -46 0 -9 -7
-22 -15 -29 -8 -7 -15 -18 -15 -25 0 -6 -9 -20 -20 -30 -11 -10 -20 -23 -20
-28 0 -12 -2 -14 -94 -113 -36 -39 -66 -75 -66 -81 0 -5 -49 -61 -108 -124
-60 -63 -111 -122 -115 -132 -4 -9 -18 -22 -32 -27 -14 -5 -25 -15 -25 -23 0
-7 -22 -35 -50 -62 -27 -27 -50 -55 -50 -62 0 -7 -4 -13 -10 -13 -5 0 -10 -6
-10 -14 0 -7 -7 -19 -15 -26 -21 -17 -19 -56 5 -80 21 -21 84 -28 95 -10 4 6
56 10 124 10 104 0 120 -2 135 -19 13 -14 37 -21 84 -26 37 -3 75 -10 84 -15
9 -5 47 -12 85 -16 50 -5 76 -13 96 -30 16 -13 39 -24 53 -24 13 0 24 -4 24
-9 0 -5 12 -12 28 -16 15 -3 39 -18 54 -32 27 -26 58 -26 58 0 0 7 -11 24 -25
37 -14 13 -25 29 -25 36 0 13 -42 36 -90 50 -14 3 -27 9 -30 13 -12 14 -52 31
-90 37 -22 4 -40 10 -40 14 0 4 -31 11 -70 14 -38 4 -72 11 -75 17 -4 5 -19 9
-36 9 -16 0 -29 4 -29 9 0 4 -35 11 -77 14 -43 3 -79 11 -81 16 -5 14 -39 14
-47 1 -7 -12 -125 -14 -125 -2 0 4 27 34 60 67 33 33 60 64 60 70 0 6 25 35
55 65 30 30 55 58 55 63 0 5 27 35 60 68 33 32 60 62 60 67 0 4 18 26 40 47
22 21 40 43 40 48 0 5 30 41 66 81 60 66 80 94 100 136 4 8 10 17 14 20 38 32
54 126 25 150 -12 10 -15 10 -15 -2z"/>
</g>
</svg>
