<?xml version="1.0" standalone="no"?>
<!DOCTYPE svg PUBLIC "-//W3C//DTD SVG 20010904//EN"
 "http://www.w3.org/TR/2001/REC-SVG-20010904/DTD/svg10.dtd">
<svg version="1.0" xmlns="http://www.w3.org/2000/svg"
 width="221.000000pt" height="224.000000pt" viewBox="0 0 221.000000 224.000000"
 preserveAspectRatio="xMidYMid meet">
<metadata>
Created by potrace 1.15, written by Peter Selinger 2001-2017
</metadata>
<g transform="translate(0.000000,224.000000) scale(0.100000,-0.100000)"
fill="#000000" stroke="none">
<path d="M1105 1441 c-6 -5 -81 -11 -168 -13 -104 -2 -160 -7 -165 -15 -4 -6
-18 -13 -32 -14 -19 -3 -26 -11 -28 -31 -2 -20 1 -28 12 -28 9 0 16 -4 16 -10
0 -5 15 -10 34 -10 24 0 35 5 38 18 5 16 20 20 119 25 136 8 416 7 514 -2 l70
-6 -3 -32 c-2 -37 7 -42 31 -15 24 26 22 72 -2 72 -10 0 -21 8 -24 18 -5 20
-44 32 -103 32 -18 0 -36 5 -39 10 -8 13 -257 13 -270 1z"/>
<path d="M1056 961 c-3 -4 -62 -11 -132 -15 -69 -4 -133 -11 -142 -15 -56 -28
-78 -33 -162 -35 -75 -2 -96 -6 -104 -19 -8 -12 -7 -20 2 -29 17 -17 207 -17
224 0 7 7 22 12 34 12 12 0 24 4 26 9 2 5 44 13 93 17 50 4 92 11 95 15 3 5
71 11 150 15 148 7 180 15 159 40 -8 10 -41 14 -125 14 -62 0 -115 -4 -118 -9z"/>
</g>
</svg>
