<?xml version="1.0" standalone="no"?>
<!DOCTYPE svg PUBLIC "-//W3C//DTD SVG 20010904//EN"
 "http://www.w3.org/TR/2001/REC-SVG-20010904/DTD/svg10.dtd">
<svg version="1.0" xmlns="http://www.w3.org/2000/svg"
 width="198.000000pt" height="197.000000pt" viewBox="0 0 198.000000 197.000000"
 preserveAspectRatio="xMidYMid meet">
<metadata>
Created by potrace 1.15, written by Peter Selinger 2001-2017
</metadata>
<g transform="translate(0.000000,197.000000) scale(0.100000,-0.100000)"
fill="#000000" stroke="none">
<path d="M539 1534 c-22 -26 12 -47 83 -51 35 -3 74 -9 88 -15 14 -6 34 -14
45 -19 11 -4 60 -10 110 -14 49 -4 95 -11 101 -16 7 -5 51 -13 98 -16 48 -3
89 -10 92 -15 3 -4 39 -8 81 -8 74 0 152 -24 169 -51 3 -5 14 -9 25 -9 11 0
23 -8 26 -17 4 -10 11 -21 17 -25 17 -11 -171 -196 -224 -221 -44 -21 -51 -28
-106 -94 -14 -18 -30 -33 -35 -33 -5 0 -31 -22 -58 -50 -27 -27 -53 -50 -58
-50 -5 0 -20 -11 -33 -25 -13 -14 -29 -25 -35 -25 -7 0 -42 -27 -78 -60 -36
-33 -69 -60 -74 -60 -16 0 -189 -185 -208 -222 -16 -30 -17 -39 -6 -52 8 -9
23 -16 35 -16 25 0 96 68 96 91 0 9 11 26 25 39 14 13 25 29 25 35 0 12 51 65
63 65 13 0 69 43 103 78 17 17 36 32 41 32 5 0 22 13 38 30 16 16 34 30 39 30
6 0 42 29 79 65 38 36 74 65 80 65 7 0 17 10 22 22 6 12 21 29 35 37 77 47 90
57 90 64 0 4 6 7 13 7 7 0 55 43 107 95 l95 95 0 54 c0 38 -5 60 -18 74 -24
26 -156 92 -185 92 -11 0 -23 4 -26 9 -3 4 -67 11 -143 15 -76 4 -142 11 -148
16 -5 4 -34 11 -62 15 -29 4 -55 11 -59 16 -3 5 -22 9 -43 9 -20 0 -41 4 -46
9 -6 5 -67 11 -137 14 -105 5 -129 3 -139 -9z"/>
</g>
</svg>
