<?xml version="1.0" standalone="no"?>
<!DOCTYPE svg PUBLIC "-//W3C//DTD SVG 20010904//EN"
 "http://www.w3.org/TR/2001/REC-SVG-20010904/DTD/svg10.dtd">
<svg version="1.0" xmlns="http://www.w3.org/2000/svg"
 width="248.000000pt" height="276.000000pt" viewBox="0 0 248.000000 276.000000"
 preserveAspectRatio="xMidYMid meet">
<metadata>
Created by potrace 1.15, written by Peter Selinger 2001-2017
</metadata>
<g transform="translate(0.000000,276.000000) scale(0.100000,-0.100000)"
fill="#000000" stroke="none">
<path d="M995 2451 c-3 -6 -37 -13 -75 -17 -39 -3 -70 -11 -70 -15 0 -5 -10
-9 -22 -9 -29 -1 -58 -22 -58 -42 0 -27 65 -68 106 -68 35 0 36 1 21 18 -10
10 -17 28 -17 40 0 21 4 22 109 22 63 0 112 4 116 10 3 6 24 10 45 10 21 0 42
-4 45 -10 3 -5 37 -10 74 -10 37 0 71 -4 76 -9 6 -5 64 -11 129 -13 84 -2 121
-7 124 -15 2 -7 15 -13 28 -13 13 0 41 -16 64 -36 36 -33 40 -41 40 -83 0 -41
-5 -52 -35 -81 -19 -19 -35 -39 -35 -45 0 -14 -62 -75 -76 -75 -6 0 -21 -11
-34 -25 -13 -14 -28 -25 -34 -25 -6 0 -20 -10 -31 -22 -20 -23 -47 -42 -75
-55 -15 -6 -70 -49 -102 -80 -34 -32 -135 -83 -165 -83 -16 0 -23 -6 -23 -19
0 -11 4 -22 9 -26 5 -3 12 -19 16 -35 4 -17 11 -30 16 -30 5 0 9 -20 9 -44 0
-26 6 -51 15 -60 11 -11 15 -37 15 -100 0 -51 4 -86 10 -86 6 0 10 -13 10 -30
0 -28 3 -30 35 -30 28 0 35 4 35 20 0 10 7 23 17 28 14 9 14 11 -5 28 -27 23
-32 101 -7 110 16 7 21 54 6 54 -38 0 -57 172 -23 203 10 10 23 17 29 17 5 0
20 11 33 25 13 14 27 25 32 25 5 0 23 15 41 34 18 18 44 37 57 41 14 4 35 18
47 31 12 13 30 24 40 24 18 0 183 157 183 174 0 5 14 24 31 44 30 34 31 39 26
99 -3 39 -11 71 -21 82 -9 10 -16 22 -16 28 0 20 -48 54 -86 60 -21 3 -41 9
-44 12 -24 28 -64 35 -230 39 -96 2 -179 8 -185 13 -12 12 -212 12 -220 0z"/>
<path d="M1310 559 c0 -6 -13 -22 -30 -36 -16 -13 -30 -31 -30 -39 0 -8 -9
-14 -20 -14 -13 0 -20 -7 -20 -19 0 -10 -7 -24 -15 -31 -8 -7 -15 -18 -15 -25
0 -16 34 -55 48 -55 16 0 115 106 129 138 7 15 12 42 13 60 0 29 -3 32 -30 32
-16 0 -30 -5 -30 -11z"/>
</g>
</svg>
