<?xml version="1.0" standalone="no"?>
<!DOCTYPE svg PUBLIC "-//W3C//DTD SVG 20010904//EN"
 "http://www.w3.org/TR/2001/REC-SVG-20010904/DTD/svg10.dtd">
<svg version="1.0" xmlns="http://www.w3.org/2000/svg"
 width="272.000000pt" height="282.000000pt" viewBox="0 0 272.000000 282.000000"
 preserveAspectRatio="xMidYMid meet">
<metadata>
Created by potrace 1.15, written by Peter Selinger 2001-2017
</metadata>
<g transform="translate(0.000000,282.000000) scale(0.100000,-0.100000)"
fill="#000000" stroke="none">
<path d="M1315 2310 c-3 -5 -26 -10 -51 -10 -29 0 -47 -5 -50 -14 -3 -7 -22
-16 -43 -20 -42 -6 -70 -19 -118 -53 -17 -13 -35 -23 -40 -23 -5 0 -22 -13
-38 -30 -16 -16 -35 -30 -42 -30 -7 0 -13 -4 -13 -10 0 -5 -13 -25 -30 -43
-16 -19 -30 -39 -30 -44 0 -5 -15 -24 -34 -42 -18 -18 -42 -53 -52 -77 -10
-24 -21 -44 -25 -44 -12 0 -39 -61 -39 -85 0 -13 -6 -28 -14 -34 -7 -6 -16
-33 -20 -60 -4 -28 -14 -55 -25 -66 -14 -11 -22 -37 -26 -81 -4 -35 -11 -67
-16 -70 -12 -7 -11 -258 1 -270 5 -5 12 -42 16 -82 4 -40 11 -75 15 -78 5 -3
9 -18 9 -33 0 -16 7 -34 15 -41 8 -7 15 -21 15 -31 0 -10 5 -21 10 -24 6 -3
10 -13 10 -22 0 -47 65 -133 100 -133 9 0 25 -9 35 -20 10 -11 26 -20 35 -20
10 0 23 -7 30 -15 7 -8 20 -15 30 -15 10 0 23 -7 30 -15 7 -9 29 -15 51 -15
22 0 39 -4 39 -9 0 -5 18 -11 40 -15 22 -3 40 -10 40 -15 0 -5 27 -12 60 -16
33 -4 63 -11 66 -16 7 -12 91 -11 99 1 3 6 57 10 123 11 64 1 144 4 177 8 51
5 60 9 60 26 0 19 -9 20 -260 26 -210 6 -266 10 -290 23 -16 9 -41 16 -55 16
-14 0 -70 23 -125 50 -55 28 -105 50 -112 50 -24 0 -101 89 -107 125 -4 19
-10 35 -14 35 -13 0 -33 54 -39 105 -3 28 -11 53 -17 57 -15 10 -14 411 1 430
6 7 14 30 18 51 4 20 11 40 16 43 5 3 9 16 9 30 0 13 4 24 9 24 5 0 11 18 15
40 3 22 10 40 15 40 13 0 41 58 41 85 0 13 7 28 15 35 8 7 15 16 15 21 0 4 16
23 35 42 19 19 35 38 35 44 0 5 9 18 20 28 11 10 20 22 20 27 0 15 45 50 80
64 8 3 22 10 30 15 8 5 24 13 35 18 12 5 27 16 34 24 7 9 34 19 59 23 26 3 53
11 60 17 7 5 44 12 82 15 39 2 70 9 70 13 0 5 38 9 85 9 50 0 85 -4 85 -10 0
-5 11 -10 25 -10 14 0 28 -6 31 -14 3 -8 20 -18 37 -22 17 -3 40 -12 52 -18
40 -22 116 -102 137 -143 12 -24 25 -43 29 -43 4 0 10 -12 14 -27 3 -15 15
-35 26 -44 11 -9 23 -34 26 -56 3 -21 10 -43 15 -50 5 -6 12 -37 15 -67 3 -31
10 -56 14 -56 5 0 9 -31 9 -69 0 -39 5 -73 10 -76 6 -4 10 -72 10 -171 0 -103
-4 -164 -10 -164 -5 0 -10 -24 -10 -54 0 -30 -4 -57 -9 -60 -4 -3 -11 -36 -14
-72 -4 -37 -11 -70 -15 -73 -5 -3 -13 -17 -17 -31 -8 -27 -28 -50 -43 -50 -5
0 -15 -7 -22 -15 -9 -11 -33 -15 -86 -15 -73 0 -75 1 -118 40 -24 22 -48 40
-53 40 -13 0 -63 53 -63 67 0 6 -7 16 -15 23 -9 8 -15 29 -15 56 0 23 -4 46
-10 49 -6 4 -10 55 -10 121 0 69 4 114 10 114 6 0 10 15 10 34 0 18 6 45 13
59 20 37 37 15 37 -46 0 -67 38 -101 70 -62 10 13 10 19 -4 33 -9 10 -16 30
-16 43 0 33 -96 129 -130 129 -14 0 -34 7 -44 15 -11 8 -37 15 -57 15 -21 0
-41 5 -44 10 -3 6 -19 10 -36 10 -27 0 -44 -6 -89 -32 -8 -4 -24 -12 -35 -17
-31 -15 -130 -122 -146 -158 -8 -18 -17 -33 -21 -33 -5 0 -8 -12 -8 -27 -1
-16 -9 -46 -20 -68 -25 -51 -27 -185 -5 -229 8 -15 15 -34 15 -40 0 -7 11 -23
25 -36 14 -13 25 -29 25 -36 0 -20 59 -44 106 -44 24 0 58 8 77 19 18 10 47
22 64 25 17 4 34 14 37 22 3 8 11 14 19 14 7 0 31 18 52 40 41 42 55 49 55 27
0 -19 30 -77 39 -77 4 0 13 -16 21 -35 9 -22 20 -35 32 -35 10 0 26 -9 35 -20
10 -11 22 -20 28 -20 7 0 22 -11 35 -25 17 -18 34 -25 62 -25 21 0 38 -4 38
-10 0 -13 97 -13 105 0 3 6 15 10 25 10 10 0 25 6 32 13 8 6 23 17 33 23 11 6
24 20 30 32 5 12 13 22 17 22 5 0 8 15 8 34 0 21 6 36 15 40 8 3 15 18 15 34
0 15 6 34 12 40 17 17 19 689 2 700 -6 4 -13 36 -16 71 -3 37 -10 67 -16 69
-7 2 -12 14 -12 27 0 12 -7 28 -15 35 -8 7 -15 19 -15 26 0 8 -4 14 -10 14 -5
0 -12 15 -16 34 -3 19 -15 42 -25 52 -10 9 -19 22 -19 29 0 7 -9 20 -20 30
-11 10 -20 22 -20 27 0 15 -41 47 -80 65 -8 3 -30 19 -48 35 -18 15 -44 28
-57 28 -14 0 -25 4 -25 10 0 5 -17 12 -37 15 -21 3 -46 10 -55 16 -24 12 -255
12 -263 -1z m139 -815 c18 -23 22 -150 6 -160 -5 -3 -10 -46 -10 -96 0 -53 -4
-89 -10 -89 -5 0 -10 -13 -10 -28 0 -15 -5 -33 -11 -39 -6 -6 -16 -21 -23 -34
-6 -12 -24 -27 -41 -32 -16 -6 -34 -16 -38 -23 -4 -8 -18 -14 -30 -14 -12 0
-33 -9 -47 -20 -26 -20 -80 -27 -80 -10 0 6 -11 10 -24 10 -13 0 -27 8 -30 18
-13 32 -31 62 -38 62 -5 0 -8 13 -8 29 0 17 -4 33 -10 36 -12 8 -13 59 -1 83
19 38 30 69 36 105 3 20 10 37 15 37 6 0 10 10 10 23 0 23 105 137 127 137 6
0 17 7 24 16 21 25 173 16 193 -11z"/>
</g>
</svg>
