<?xml version="1.0" standalone="no"?>
<!DOCTYPE svg PUBLIC "-//W3C//DTD SVG 20010904//EN"
 "http://www.w3.org/TR/2001/REC-SVG-20010904/DTD/svg10.dtd">
<svg version="1.0" xmlns="http://www.w3.org/2000/svg"
 width="140.000000pt" height="173.000000pt" viewBox="0 0 140.000000 173.000000"
 preserveAspectRatio="xMidYMid meet">
<metadata>
Created by potrace 1.15, written by Peter Selinger 2001-2017
</metadata>
<g transform="translate(0.000000,173.000000) scale(0.100000,-0.100000)"
fill="#000000" stroke="none">
<path d="M646 1531 c-3 -4 -29 -11 -58 -14 -45 -6 -153 -49 -168 -68 -3 -3
-16 -10 -30 -14 -14 -4 -39 -18 -57 -31 -17 -13 -35 -24 -40 -24 -18 0 -112
-107 -119 -135 -4 -16 -11 -36 -17 -43 -13 -17 -14 -162 0 -170 5 -4 12 -15
16 -24 15 -41 27 -15 27 57 0 62 2 73 15 69 8 -4 15 -18 15 -33 0 -15 5 -32
11 -38 5 -5 13 -36 16 -67 3 -31 10 -59 14 -62 5 -3 9 -25 9 -49 0 -24 4 -46
9 -49 5 -4 12 -40 16 -81 4 -42 11 -78 16 -81 5 -2 11 -27 15 -55 4 -27 11
-52 15 -55 5 -3 9 -20 9 -38 0 -17 4 -36 10 -42 5 -5 12 -60 16 -122 4 -62 11
-115 15 -118 5 -3 11 -27 15 -54 6 -47 8 -50 35 -50 l28 0 -5 98 c-3 53 -9
106 -14 117 -5 11 -12 50 -15 87 -4 37 -11 70 -16 73 -5 4 -9 21 -9 40 0 19
-4 37 -10 40 -5 3 -10 23 -10 43 0 21 -7 47 -15 60 -10 13 -18 55 -22 107 -3
47 -10 88 -15 91 -4 3 -8 25 -8 49 0 24 -4 46 -9 49 -4 3 -11 27 -15 54 -4 33
-14 56 -31 72 -14 13 -25 34 -25 47 0 18 -5 23 -25 23 -14 0 -25 6 -25 13 0
22 134 147 158 147 12 0 22 4 22 9 0 12 117 71 141 71 10 0 19 4 19 10 0 5 17
12 38 15 20 3 45 10 54 16 22 11 225 12 232 0 3 -4 19 -11 36 -14 32 -7 43
-14 91 -59 25 -23 29 -34 29 -83 0 -40 -7 -68 -23 -98 -13 -23 -27 -55 -31
-71 -8 -31 -22 -49 -49 -59 -9 -4 -20 -15 -24 -24 -3 -10 -12 -25 -19 -33 -62
-73 -98 -110 -106 -110 -4 0 -37 -29 -72 -65 -35 -36 -67 -65 -72 -65 -4 0
-18 -10 -30 -21 -13 -12 -33 -27 -45 -33 -33 -17 -45 -41 -30 -60 19 -22 43
-20 95 9 25 14 54 25 65 25 10 0 21 5 23 12 3 8 60 12 202 12 179 1 200 -1
210 -16 8 -13 8 -23 -2 -38 -6 -11 -12 -30 -12 -43 0 -14 -11 -32 -25 -43 -14
-10 -25 -23 -25 -29 0 -14 -163 -175 -177 -175 -6 0 -13 -7 -17 -15 -3 -8 -11
-15 -19 -15 -7 0 -24 -11 -37 -25 -13 -14 -29 -25 -37 -25 -7 0 -13 -4 -13 -9
0 -5 -8 -11 -17 -15 -10 -3 -36 -17 -58 -30 -25 -16 -55 -25 -82 -26 -40 0
-42 2 -45 33 -3 27 -5 29 -12 12 -4 -11 -12 -30 -18 -41 -15 -33 -6 -59 22
-62 14 -2 29 -8 34 -13 13 -12 46 -12 46 0 0 5 14 12 30 16 17 4 30 10 30 13
0 8 74 42 89 42 5 0 11 7 15 15 3 8 11 15 17 15 7 0 20 7 30 16 10 9 33 23 51
32 20 10 34 26 36 39 2 16 19 30 58 48 30 14 54 31 54 37 0 6 19 32 43 58 63
70 76 87 83 115 3 14 10 25 14 25 5 0 11 23 15 51 7 48 5 53 -24 83 l-31 31
-172 0 c-128 0 -172 -3 -176 -12 -2 -7 -15 -13 -28 -13 -17 0 -24 6 -24 20 0
11 6 20 13 20 7 0 55 42 106 94 85 86 93 97 80 112 -12 15 -12 17 0 13 15 -5
101 80 101 100 0 6 3 11 8 11 8 0 28 43 38 83 3 15 10 30 15 33 12 7 11 124
-1 124 -5 0 -10 6 -10 13 0 16 -81 97 -97 97 -6 0 -13 5 -15 11 -2 6 -25 13
-51 16 -26 3 -50 10 -53 14 -7 12 -221 12 -228 0z"/>
</g>
</svg>
