<?xml version="1.0" standalone="no"?>
<!DOCTYPE svg PUBLIC "-//W3C//DTD SVG 20010904//EN"
 "http://www.w3.org/TR/2001/REC-SVG-20010904/DTD/svg10.dtd">
<svg version="1.0" xmlns="http://www.w3.org/2000/svg"
 width="116.000000pt" height="161.000000pt" viewBox="0 0 116.000000 161.000000"
 preserveAspectRatio="xMidYMid meet">
<metadata>
Created by potrace 1.15, written by Peter Selinger 2001-2017
</metadata>
<g transform="translate(0.000000,161.000000) scale(0.100000,-0.100000)"
fill="#000000" stroke="none">
<path d="M530 1393 c-41 -13 -70 -32 -130 -83 -36 -30 -67 -59 -69 -63 -2 -5
-15 -23 -30 -40 -32 -39 -81 -132 -81 -156 0 -10 -12 -40 -27 -67 -26 -48 -26
-52 -27 -258 -1 -159 2 -210 12 -213 6 -3 12 -15 12 -28 0 -12 7 -28 15 -35 8
-7 15 -20 15 -29 0 -19 129 -151 148 -151 6 0 12 -4 12 -10 0 -5 17 -12 38
-16 20 -4 40 -12 44 -17 9 -15 260 -16 279 -1 8 6 31 14 51 17 21 3 47 15 60
26 12 12 32 21 44 21 12 0 27 7 34 15 7 8 19 15 26 15 8 0 14 8 14 19 0 14 -6
17 -27 13 -16 -3 -30 -8 -33 -11 -14 -17 -57 -33 -103 -38 -29 -3 -62 -13 -75
-21 -18 -12 -45 -14 -130 -9 -90 4 -115 10 -159 33 -29 15 -53 31 -53 35 0 5
-6 9 -13 9 -16 0 -77 62 -77 78 0 7 -4 12 -10 12 -5 0 -10 11 -10 24 0 13 -7
29 -15 36 -8 7 -15 18 -15 25 0 8 -6 15 -12 18 -18 5 -18 361 0 379 6 6 12 19
12 27 0 9 7 29 15 45 8 15 15 39 15 52 0 13 4 24 9 24 5 0 12 13 16 29 3 16
17 39 31 51 13 13 24 32 24 42 0 10 5 18 11 18 6 0 36 23 66 50 30 28 60 50
68 50 7 0 19 7 26 16 11 14 27 16 93 10 68 -5 84 -9 108 -33 15 -15 28 -32 28
-38 0 -19 45 -55 68 -55 25 0 28 12 7 30 -17 14 -45 67 -45 87 0 7 -7 13 -15
13 -8 0 -15 7 -15 15 0 10 -10 15 -29 15 -16 0 -34 7 -41 15 -9 11 -31 15 -79
14 -36 0 -73 -3 -81 -6z"/>
</g>
</svg>
