<?xml version="1.0" standalone="no"?>
<!DOCTYPE svg PUBLIC "-//W3C//DTD SVG 20010904//EN"
 "http://www.w3.org/TR/2001/REC-SVG-20010904/DTD/svg10.dtd">
<svg version="1.0" xmlns="http://www.w3.org/2000/svg"
 width="130.000000pt" height="148.000000pt" viewBox="0 0 130.000000 148.000000"
 preserveAspectRatio="xMidYMid meet">
<metadata>
Created by potrace 1.15, written by Peter Selinger 2001-2017
</metadata>
<g transform="translate(0.000000,148.000000) scale(0.100000,-0.100000)"
fill="#000000" stroke="none">
<path d="M290 1291 c0 -4 -33 -11 -72 -15 -40 -4 -77 -11 -82 -16 -6 -6 -20
-10 -32 -10 -27 0 -41 -30 -19 -43 20 -11 2 -37 -26 -37 -30 0 -25 -51 9 -83
36 -34 42 -34 42 3 0 20 -5 30 -15 30 -22 0 -19 38 4 45 10 3 26 14 36 25 35
39 83 12 57 -31 -14 -22 -17 -229 -4 -229 5 0 12 -54 15 -121 3 -66 10 -126
16 -132 5 -7 12 -51 16 -100 4 -48 11 -90 16 -93 5 -3 9 -24 9 -48 0 -23 5
-47 11 -53 5 -5 13 -37 16 -69 3 -32 11 -65 16 -73 6 -7 16 -23 22 -35 8 -16
21 -22 54 -24 24 -2 49 2 54 7 6 6 23 11 39 11 15 0 31 6 35 12 8 13 55 41
133 79 25 12 66 39 92 61 26 21 50 38 53 38 10 0 67 47 129 108 30 28 58 52
63 52 11 0 63 53 63 64 0 4 14 21 30 38 17 16 30 38 30 48 0 9 7 23 16 30 39
33 75 170 44 170 -5 0 -10 12 -10 26 0 24 -26 92 -39 104 -4 3 -11 14 -17 24
-6 11 -19 24 -30 30 -10 6 -29 21 -41 34 -12 12 -26 22 -31 22 -5 0 -19 11
-32 25 -13 14 -31 25 -39 25 -9 0 -43 14 -76 30 -33 16 -68 30 -77 30 -10 0
-18 4 -18 9 0 5 -20 12 -45 15 -24 4 -47 11 -50 17 -8 11 -365 12 -365 0z
m335 -61 c3 -5 23 -10 44 -10 20 0 46 -7 57 -15 10 -8 29 -15 42 -15 12 0 22
-4 22 -9 0 -5 14 -12 30 -16 17 -4 30 -10 30 -15 0 -4 12 -11 27 -15 49 -12
170 -123 197 -180 24 -51 18 -156 -12 -188 -10 -12 -22 -34 -26 -49 -3 -16
-11 -28 -16 -28 -6 0 -15 -11 -20 -25 -5 -14 -18 -28 -27 -32 -10 -3 -40 -28
-66 -55 -26 -26 -51 -48 -55 -48 -4 0 -30 -22 -56 -49 -27 -27 -60 -52 -73
-56 -14 -3 -34 -16 -46 -28 -12 -13 -39 -31 -59 -41 -21 -9 -38 -21 -38 -26 0
-4 -13 -11 -29 -15 -16 -3 -39 -17 -51 -31 -41 -42 -130 -24 -130 27 0 10 -4
20 -9 23 -5 3 -12 26 -15 51 -4 24 -11 47 -17 50 -5 4 -9 21 -9 39 0 17 -4 36
-10 42 -5 5 -12 59 -16 119 -4 61 -11 116 -17 123 -7 8 -13 103 -15 238 -5
221 -4 224 16 224 12 0 24 5 27 10 4 6 68 10 160 10 92 0 156 -4 160 -10z"/>
</g>
</svg>
