<?xml version="1.0" standalone="no"?>
<!DOCTYPE svg PUBLIC "-//W3C//DTD SVG 20010904//EN"
 "http://www.w3.org/TR/2001/REC-SVG-20010904/DTD/svg10.dtd">
<svg version="1.0" xmlns="http://www.w3.org/2000/svg"
 width="160.000000pt" height="137.000000pt" viewBox="0 0 160.000000 137.000000"
 preserveAspectRatio="xMidYMid meet">
<metadata>
Created by potrace 1.15, written by Peter Selinger 2001-2017
</metadata>
<g transform="translate(0.000000,137.000000) scale(0.100000,-0.100000)"
fill="#000000" stroke="none">
<path d="M745 1180 c-3 -5 -24 -10 -46 -10 -21 0 -39 -4 -39 -9 0 -4 -31 -12
-70 -15 -38 -4 -72 -11 -75 -15 -2 -5 -21 -12 -40 -15 -19 -4 -35 -11 -35 -16
0 -6 -10 -10 -23 -10 -13 0 -28 -5 -34 -11 -5 -5 -35 -13 -65 -16 -81 -8 -88
-25 -88 -219 0 -85 4 -154 9 -154 4 0 11 -48 14 -107 3 -64 9 -109 16 -111 6
-2 11 -15 11 -28 0 -28 31 -104 42 -104 5 0 8 -11 8 -24 0 -13 7 -29 15 -36
10 -8 15 -30 15 -61 0 -41 3 -49 18 -49 10 0 29 -11 42 -25 28 -29 60 -33 60
-7 0 26 20 42 51 42 15 0 31 4 34 10 3 5 28 12 56 16 27 4 52 11 55 15 3 5 17
9 32 9 15 0 36 7 46 15 11 8 30 15 43 15 13 0 23 4 23 9 0 5 20 12 45 15 24 4
47 11 50 17 4 5 19 9 35 9 16 0 31 4 35 9 3 6 27 13 53 17 26 3 52 10 57 14 6
5 28 11 50 15 38 6 68 16 107 36 9 5 35 12 58 15 22 4 40 10 40 15 0 4 8 10
18 12 9 3 3 5 -15 6 -17 0 -34 -3 -37 -8 -3 -4 -37 -11 -77 -14 -39 -3 -76
-10 -82 -15 -7 -5 -39 -12 -71 -15 -32 -3 -64 -11 -69 -16 -6 -6 -26 -11 -43
-11 -18 0 -35 -4 -38 -9 -4 -5 -25 -12 -49 -16 -23 -4 -46 -11 -52 -15 -5 -4
-25 -11 -44 -15 -35 -7 -93 -36 -121 -59 -12 -10 -20 -10 -39 0 -24 12 -24 13
25 34 27 12 56 26 64 31 8 5 24 13 35 18 11 5 31 21 44 35 l24 26 -27 0 c-14
0 -29 -7 -32 -15 -4 -8 -19 -15 -34 -15 -16 0 -31 -4 -35 -9 -3 -5 -19 -12
-35 -16 -17 -4 -30 -11 -30 -16 0 -5 -11 -9 -24 -9 -14 0 -37 -11 -53 -24 -15
-13 -39 -27 -53 -31 -14 -4 -28 -12 -32 -18 -9 -14 -54 39 -79 93 -11 25 -24
52 -29 61 -5 9 -12 34 -16 55 -4 22 -10 41 -14 44 -4 3 -10 29 -13 58 -6 55 6
69 33 37 13 -16 70 -21 70 -6 0 4 42 11 93 15 50 4 94 11 95 16 2 6 14 10 27
10 12 0 28 7 35 15 8 10 30 15 61 15 26 0 50 4 53 9 3 5 26 12 51 15 24 4 47
11 50 17 4 5 26 9 50 9 24 0 47 5 50 10 4 6 55 10 121 10 l114 0 0 -25 c0 -14
5 -25 10 -25 6 0 10 11 10 25 0 18 -7 28 -25 35 -14 5 -25 14 -25 20 0 13
-224 14 -248 1 -9 -6 -38 -13 -64 -16 -26 -3 -50 -10 -53 -16 -4 -5 -23 -9
-44 -9 -20 0 -46 -7 -57 -15 -11 -8 -41 -15 -71 -15 -28 0 -54 -4 -57 -9 -4
-5 -25 -12 -49 -16 -23 -3 -52 -11 -65 -18 -18 -8 -28 -8 -42 1 -25 16 -30 15
-30 -3 0 -11 -12 -15 -50 -15 l-50 0 0 150 c0 143 1 150 20 150 24 0 26 13 5
30 -12 10 -12 14 0 26 7 8 17 14 20 14 9 0 71 27 107 46 14 8 35 14 46 14 12
0 23 4 27 9 3 5 34 13 70 16 36 4 68 11 71 16 3 5 18 9 34 9 16 0 32 5 35 10
4 6 57 10 125 10 68 0 121 -4 125 -10 3 -5 17 -10 31 -10 13 0 33 -5 44 -12
10 -7 23 -8 27 -4 4 5 2 11 -5 13 -7 3 -18 10 -25 17 -31 29 -70 46 -106 46
-22 0 -43 5 -46 10 -3 6 -42 10 -85 10 -43 0 -82 -4 -85 -10z"/>
</g>
</svg>
