<?xml version="1.0" standalone="no"?>
<!DOCTYPE svg PUBLIC "-//W3C//DTD SVG 20010904//EN"
 "http://www.w3.org/TR/2001/REC-SVG-20010904/DTD/svg10.dtd">
<svg version="1.0" xmlns="http://www.w3.org/2000/svg"
 width="134.000000pt" height="152.000000pt" viewBox="0 0 134.000000 152.000000"
 preserveAspectRatio="xMidYMid meet">
<metadata>
Created by potrace 1.15, written by Peter Selinger 2001-2017
</metadata>
<g transform="translate(0.000000,152.000000) scale(0.100000,-0.100000)"
fill="#000000" stroke="none">
<path d="M890 1343 c-19 -2 -39 -9 -44 -14 -6 -5 -29 -9 -52 -9 -24 0 -45 -4
-48 -9 -3 -4 -28 -11 -55 -15 -28 -4 -53 -10 -55 -15 -3 -5 -28 -11 -55 -15
-28 -4 -53 -11 -56 -16 -3 -6 -17 -10 -31 -10 -13 0 -24 -4 -24 -10 0 -5 -10
-10 -23 -10 -13 0 -32 -7 -43 -15 -10 -8 -32 -15 -47 -15 l-28 0 7 65 7 65
-37 0 -36 0 0 -59 c0 -33 -4 -63 -10 -66 -5 -3 -10 -23 -10 -45 0 -24 -5 -40
-15 -44 -19 -7 -19 -30 0 -46 8 -7 15 -23 15 -36 0 -13 5 -24 10 -24 6 0 10
-36 10 -89 0 -83 -2 -90 -27 -115 -33 -33 -23 -59 24 -64 29 -3 31 -6 36 -56
3 -30 10 -63 16 -75 6 -11 15 -29 20 -39 5 -11 12 -44 16 -76 4 -31 11 -59 16
-62 5 -3 9 -16 9 -30 0 -13 11 -45 24 -72 14 -26 27 -55 30 -65 4 -13 14 -17
33 -15 39 4 44 43 9 73 -19 17 -27 35 -32 79 -4 31 -11 59 -15 62 -5 3 -11 27
-15 55 -4 27 -11 52 -15 55 -5 3 -9 25 -9 48 0 27 -6 48 -15 56 -8 7 -15 23
-15 36 0 23 2 24 84 24 47 0 87 4 90 9 3 5 46 12 96 16 50 4 93 11 96 16 3 5
18 9 34 9 16 0 31 4 34 9 3 5 33 12 66 16 33 4 60 10 60 15 0 4 32 10 71 12
39 3 76 11 82 17 6 6 28 11 49 11 26 0 38 4 38 14 0 10 14 16 43 19 23 3 -20
4 -95 2 -76 -1 -144 -7 -150 -13 -7 -6 -50 -13 -95 -17 -46 -4 -83 -12 -83
-16 0 -5 -16 -9 -35 -9 -19 0 -35 -4 -35 -8 0 -5 -44 -12 -97 -15 -53 -4 -101
-11 -107 -17 -15 -15 -109 -12 -144 6 l-32 15 0 113 c0 164 2 171 66 201 29
14 60 25 68 25 8 0 18 5 21 10 3 6 24 10 46 10 21 0 39 4 39 10 0 15 61 38
123 46 31 3 60 10 63 15 3 5 18 9 33 9 15 0 33 6 39 13 9 8 67 14 188 17 l176
5 -26 24 c-22 21 -35 24 -133 26 -59 2 -124 1 -143 -2z"/>
</g>
</svg>
