<?xml version="1.0" standalone="no"?>
<!DOCTYPE svg PUBLIC "-//W3C//DTD SVG 20010904//EN"
 "http://www.w3.org/TR/2001/REC-SVG-20010904/DTD/svg10.dtd">
<svg version="1.0" xmlns="http://www.w3.org/2000/svg"
 width="165.000000pt" height="181.000000pt" viewBox="0 0 165.000000 181.000000"
 preserveAspectRatio="xMidYMid meet">
<metadata>
Created by potrace 1.15, written by Peter Selinger 2001-2017
</metadata>
<g transform="translate(0.000000,181.000000) scale(0.100000,-0.100000)"
fill="#000000" stroke="none">
<path d="M615 1677 c-11 -7 -35 -22 -52 -34 -17 -13 -35 -23 -40 -23 -5 0 -20
-11 -33 -26 -21 -21 -22 -27 -10 -34 12 -7 5 -19 -35 -60 -27 -27 -55 -50 -62
-50 -7 0 -13 -10 -13 -23 0 -12 -9 -29 -21 -37 -25 -18 -59 -89 -59 -125 0
-14 -4 -34 -10 -45 -5 -11 -14 -28 -19 -38 -5 -10 -12 -55 -16 -100 -4 -45
-11 -85 -16 -88 -12 -7 -11 -241 1 -249 5 -3 10 -20 10 -37 0 -27 7 -49 44
-128 39 -86 118 -150 184 -150 17 0 34 -5 37 -10 9 -15 57 -12 79 5 11 8 29
15 39 15 11 0 39 17 62 39 23 21 46 40 51 42 26 11 96 113 101 147 3 20 14 49
24 64 34 47 16 121 -44 186 -20 22 -20 22 -1 37 10 8 27 15 36 15 9 0 19 4 22
9 3 4 47 11 98 15 51 4 95 11 98 17 4 5 54 12 113 15 59 4 107 11 107 16 0 4
40 8 89 8 50 0 93 5 96 10 3 6 15 10 26 10 10 0 19 5 19 12 0 14 -444 5 -463
-10 -6 -5 -48 -12 -92 -15 -44 -3 -81 -11 -83 -16 -2 -6 -16 -11 -31 -11 -15
0 -31 -4 -37 -10 -5 -5 -81 -12 -169 -15 -164 -4 -201 -14 -169 -43 8 -7 14
-8 14 -2 0 5 5 10 10 10 6 0 10 -6 9 -12 -4 -33 2 -38 45 -38 25 0 48 5 51 10
8 13 60 13 83 1 9 -5 24 -12 32 -16 26 -10 59 -31 80 -50 21 -19 28 -79 10
-90 -5 -3 -10 -19 -10 -36 0 -16 -4 -29 -10 -29 -5 0 -10 -11 -10 -25 0 -18
-24 -50 -84 -111 l-84 -87 -91 5 c-87 4 -92 6 -126 38 -19 19 -38 43 -41 54
-3 12 -15 31 -26 42 -15 17 -20 41 -24 115 -3 52 -10 104 -16 117 -8 16 -8 28
0 45 6 12 13 69 15 126 3 57 10 108 16 114 6 6 11 24 11 39 0 15 4 28 9 28 5
0 11 18 15 40 3 23 10 49 15 58 5 9 12 24 16 32 11 27 29 55 68 101 20 26 37
50 37 55 0 12 77 85 107 102 13 6 34 12 48 12 14 0 25 5 25 10 0 6 15 10 34
10 28 0 40 -7 65 -39 17 -21 31 -51 31 -65 0 -19 5 -26 20 -26 18 0 20 7 20
57 0 53 -2 58 -40 95 -39 36 -44 38 -103 37 -34 -1 -71 -6 -82 -12z"/>
</g>
</svg>
