<?xml version="1.0" standalone="no"?>
<!DOCTYPE svg PUBLIC "-//W3C//DTD SVG 20010904//EN"
 "http://www.w3.org/TR/2001/REC-SVG-20010904/DTD/svg10.dtd">
<svg version="1.0" xmlns="http://www.w3.org/2000/svg"
 width="138.000000pt" height="184.000000pt" viewBox="0 0 138.000000 184.000000"
 preserveAspectRatio="xMidYMid meet">
<metadata>
Created by potrace 1.15, written by Peter Selinger 2001-2017
</metadata>
<g transform="translate(0.000000,184.000000) scale(0.100000,-0.100000)"
fill="#000000" stroke="none">
<path d="M803 1653 c-38 -5 -103 -74 -103 -109 0 -12 -6 -24 -12 -27 -10 -3
-12 -63 -10 -265 l3 -262 -195 0 -194 0 -31 31 c-29 29 -31 35 -31 104 0 41 5
77 10 80 13 8 13 155 0 155 -12 0 -13 47 -1 52 4 2 11 39 14 83 6 77 6 81 -19
98 -24 18 -26 18 -45 1 -18 -16 -19 -35 -19 -440 0 -233 4 -425 9 -428 4 -3
11 -41 14 -85 4 -72 9 -85 39 -123 18 -24 38 -52 44 -62 6 -11 17 -23 25 -26
8 -4 24 -12 36 -18 31 -17 47 -15 66 6 26 28 20 42 -16 42 -20 0 -41 8 -51 18
-33 37 -78 138 -83 190 -3 28 -10 52 -14 52 -15 0 -11 186 4 198 8 6 89 8 232
3 l220 -6 3 -30 c1 -16 7 -39 12 -50 4 -11 11 -67 14 -124 3 -60 11 -109 18
-118 7 -9 14 -54 16 -107 4 -98 18 -133 48 -122 15 6 16 20 11 142 -4 88 -11
141 -19 152 -9 10 -14 58 -17 144 l-3 128 60 0 c34 0 64 5 67 10 4 6 56 10
124 10 158 0 241 9 241 26 0 9 -11 14 -30 14 -17 0 -39 5 -50 12 -15 10 -24 9
-45 -2 -21 -11 -30 -12 -45 -2 -24 15 -210 17 -210 2 0 -6 -28 -10 -65 -10
l-65 0 0 35 c0 19 -4 35 -10 35 -6 0 -10 76 -10 209 0 129 4 212 10 216 6 3
10 19 10 34 0 16 7 34 15 41 8 7 15 19 15 26 0 11 16 14 65 14 37 0 65 4 65
10 0 6 -7 10 -15 10 -8 0 -15 9 -15 20 0 21 -10 22 -87 13z"/>
</g>
</svg>
