<?xml version="1.0" standalone="no"?>
<!DOCTYPE svg PUBLIC "-//W3C//DTD SVG 20010904//EN"
 "http://www.w3.org/TR/2001/REC-SVG-20010904/DTD/svg10.dtd">
<svg version="1.0" xmlns="http://www.w3.org/2000/svg"
 width="158.000000pt" height="129.000000pt" viewBox="0 0 158.000000 129.000000"
 preserveAspectRatio="xMidYMid meet">
<metadata>
Created by potrace 1.15, written by Peter Selinger 2001-2017
</metadata>
<g transform="translate(0.000000,129.000000) scale(0.100000,-0.100000)"
fill="#000000" stroke="none">
<path d="M676 1192 c-3 -5 -110 -12 -237 -15 -191 -5 -235 -9 -248 -21 -14
-15 -14 -16 2 -16 9 0 17 -4 17 -10 0 -14 -22 -12 -44 5 -12 9 -42 15 -73 15
-52 0 -53 -1 -53 -29 0 -26 3 -29 47 -35 54 -7 203 3 218 15 6 4 59 11 118 15
l107 7 0 -32 c0 -17 4 -31 8 -31 5 0 12 -80 16 -177 4 -98 11 -182 16 -187 6
-6 10 -76 10 -157 0 -88 4 -150 10 -154 6 -3 10 -33 10 -66 l0 -59 -89 2 c-62
2 -94 -1 -102 -9 -7 -7 -25 -13 -40 -13 -15 0 -40 -7 -55 -15 -16 -8 -55 -15
-86 -15 -46 0 -59 -4 -68 -19 -14 -27 -13 -41 5 -41 8 0 15 -4 15 -10 0 -12
37 -13 44 -1 4 5 65 12 136 16 72 4 133 12 136 16 3 5 47 9 98 9 71 0 97 4
106 15 8 10 31 15 65 15 30 0 55 4 57 10 2 5 51 13 111 16 59 4 107 11 107 16
0 4 13 8 28 8 15 0 32 4 38 10 5 5 57 12 117 16 59 4 107 11 107 15 0 5 21 9
48 9 55 0 92 9 92 21 0 13 -237 11 -245 -1 -3 -6 -52 -10 -111 -10 -57 0 -104
-4 -104 -8 0 -5 -43 -12 -96 -15 -53 -4 -102 -11 -108 -16 -6 -4 -39 -11 -72
-15 l-61 -7 -7 32 c-3 17 -6 73 -6 123 0 51 -4 96 -9 102 -5 5 -13 96 -17 202
-4 105 -11 192 -15 192 -5 0 -9 45 -9 99 0 113 -2 111 90 111 32 0 62 5 65 10
8 12 185 14 185 1 0 -4 42 -11 92 -15 51 -4 95 -11 98 -16 3 -5 19 -12 35 -16
17 -3 39 -15 50 -25 11 -9 34 -21 50 -24 17 -4 36 -14 43 -23 11 -14 12 -13
12 5 0 20 -28 53 -47 53 -5 0 -20 11 -33 25 -13 14 -29 25 -36 25 -7 0 -34 11
-59 24 -25 14 -70 28 -100 31 -31 4 -58 11 -61 16 -8 13 -88 11 -102 -3 -10
-10 -17 -10 -32 0 -22 14 -176 17 -184 4z"/>
</g>
</svg>
