<?xml version="1.0" standalone="no"?>
<!DOCTYPE svg PUBLIC "-//W3C//DTD SVG 20010904//EN"
 "http://www.w3.org/TR/2001/REC-SVG-20010904/DTD/svg10.dtd">
<svg version="1.0" xmlns="http://www.w3.org/2000/svg"
 width="187.000000pt" height="175.000000pt" viewBox="0 0 187.000000 175.000000"
 preserveAspectRatio="xMidYMid meet">
<metadata>
Created by potrace 1.15, written by Peter Selinger 2001-2017
</metadata>
<g transform="translate(0.000000,175.000000) scale(0.100000,-0.100000)"
fill="#000000" stroke="none">
<path d="M1090 1503 c-47 -2 -89 -8 -94 -13 -13 -13 -123 -13 -131 0 -3 6 -25
10 -48 10 -34 0 -48 -6 -77 -35 l-36 -35 -136 -6 c-121 -6 -137 -9 -141 -26
-7 -24 -28 -23 -34 2 -7 26 -41 26 -69 -1 -22 -20 -22 -21 -3 -40 19 -19 83
-27 93 -11 3 5 76 12 162 15 91 3 161 10 167 16 6 6 34 11 62 11 41 0 55 -5
71 -22 34 -40 54 -85 54 -121 0 -20 5 -37 11 -39 15 -5 16 -495 0 -511 -6 -6
-11 -22 -11 -35 0 -13 -7 -38 -16 -55 -31 -59 -34 -67 -34 -86 0 -10 -11 -26
-25 -35 -14 -9 -25 -23 -25 -31 0 -8 -29 -44 -64 -80 -62 -63 -65 -65 -115
-65 -41 0 -60 6 -89 28 -20 15 -38 30 -40 35 -2 4 -14 7 -27 7 -31 0 -55 48
-55 108 l0 45 -20 -26 c-24 -30 -25 -57 -6 -100 8 -18 16 -40 20 -50 3 -9 17
-22 31 -27 14 -5 25 -13 25 -17 0 -5 15 -14 33 -22 17 -8 43 -23 56 -33 29
-22 86 -23 125 -3 15 8 33 15 38 15 21 0 157 135 163 162 4 15 10 28 15 28 12
0 40 59 40 85 0 13 7 28 15 35 8 7 15 20 15 29 0 9 6 23 13 30 17 17 18 591 0
612 -7 8 -15 34 -19 57 -4 23 -10 42 -15 42 -5 0 -9 6 -9 14 0 7 -7 19 -15 26
-20 17 -19 30 3 30 10 0 23 5 29 11 6 6 144 12 384 17 206 3 365 8 354 10 -11
2 -30 13 -43 25 -22 20 -34 21 -260 23 -130 0 -275 -1 -322 -3z"/>
</g>
</svg>
