<?xml version="1.0" standalone="no"?>
<!DOCTYPE svg PUBLIC "-//W3C//DTD SVG 20010904//EN"
 "http://www.w3.org/TR/2001/REC-SVG-20010904/DTD/svg10.dtd">
<svg version="1.0" xmlns="http://www.w3.org/2000/svg"
 width="159.000000pt" height="166.000000pt" viewBox="0 0 159.000000 166.000000"
 preserveAspectRatio="xMidYMid meet">
<metadata>
Created by potrace 1.15, written by Peter Selinger 2001-2017
</metadata>
<g transform="translate(0.000000,166.000000) scale(0.100000,-0.100000)"
fill="#000000" stroke="none">
<path d="M200 1423 c0 -27 4 -53 9 -58 5 -6 11 -113 14 -238 6 -218 5 -229
-13 -245 -25 -21 -28 -103 -5 -122 8 -7 15 -24 15 -39 0 -17 7 -30 22 -36 32
-15 56 -66 63 -137 4 -35 11 -73 16 -85 5 -13 13 -33 18 -45 6 -13 13 -47 16
-75 4 -29 11 -53 16 -53 5 0 9 -7 9 -15 0 -9 9 -15 21 -15 21 0 21 4 17 71 -3
39 -11 76 -17 82 -6 6 -11 25 -11 42 0 17 -4 35 -9 40 -8 10 -22 145 -15 145
2 0 21 -9 41 -20 21 -11 43 -20 50 -20 7 0 13 -4 13 -10 0 -5 11 -10 24 -10
14 0 28 -4 31 -10 3 -5 20 -10 36 -10 17 0 32 -6 35 -14 3 -9 27 -17 60 -22
30 -3 54 -9 54 -13 0 -13 58 -30 130 -36 41 -3 84 -10 95 -15 11 -5 50 -12 87
-15 37 -4 70 -11 73 -16 4 -5 33 -9 65 -9 32 0 62 -5 65 -10 3 -6 28 -10 56
-10 37 0 49 4 49 15 0 8 -9 15 -19 15 -11 0 -22 4 -25 9 -3 5 -35 12 -71 16
-36 3 -67 11 -70 16 -4 5 -24 9 -46 9 -21 0 -39 4 -39 9 0 5 -23 11 -51 13
-28 3 -54 10 -58 15 -3 6 -37 13 -76 17 -38 4 -74 11 -79 17 -6 5 -20 9 -32 9
-13 0 -44 11 -70 25 -26 14 -65 28 -86 31 -21 4 -41 11 -44 15 -3 5 -20 9 -38
9 -19 0 -39 7 -46 15 -7 8 -19 15 -26 15 -8 0 -14 4 -14 9 0 5 -12 12 -27 16
-34 8 -83 53 -83 75 0 18 30 50 46 50 6 0 28 18 49 40 21 22 45 40 52 40 7 0
13 4 13 9 0 5 12 12 26 15 14 4 31 11 37 16 55 45 76 58 100 64 15 3 27 11 27
16 0 6 11 10 24 10 14 0 38 11 54 25 17 14 34 25 40 25 5 0 15 6 21 14 7 8 30
17 52 21 21 4 41 11 45 16 3 5 16 9 29 9 12 0 25 7 29 15 3 8 17 15 31 15 14
0 25 4 25 10 0 5 27 12 60 16 33 4 63 11 66 15 3 5 25 9 49 9 24 0 47 5 50 10
3 6 33 10 66 10 38 0 58 4 54 10 -3 6 -19 10 -35 10 -16 0 -32 5 -35 10 -8 12
-142 13 -149 1 -4 -5 -29 -12 -56 -16 -28 -4 -50 -10 -50 -15 0 -4 -23 -10
-51 -12 -28 -3 -54 -9 -58 -14 -9 -13 -49 -34 -63 -34 -18 0 -198 -92 -198
-101 0 -4 -13 -10 -30 -14 -16 -4 -30 -11 -30 -16 0 -5 -9 -9 -20 -9 -19 0
-68 -25 -80 -41 -3 -3 -16 -10 -30 -14 -14 -4 -40 -23 -58 -41 -18 -19 -36
-34 -39 -34 -4 0 -19 -12 -34 -26 -35 -33 -49 -24 -49 30 0 23 -4 46 -9 52 -5
5 -11 107 -13 226 -2 159 -6 218 -15 218 -6 0 -13 12 -15 28 -2 21 -9 28 -30
30 -27 3 -28 2 -28 -45z"/>
</g>
</svg>
