<?xml version="1.0" standalone="no"?>
<!DOCTYPE svg PUBLIC "-//W3C//DTD SVG 20010904//EN"
 "http://www.w3.org/TR/2001/REC-SVG-20010904/DTD/svg10.dtd">
<svg version="1.0" xmlns="http://www.w3.org/2000/svg"
 width="126.000000pt" height="155.000000pt" viewBox="0 0 126.000000 155.000000"
 preserveAspectRatio="xMidYMid meet">
<metadata>
Created by potrace 1.15, written by Peter Selinger 2001-2017
</metadata>
<g transform="translate(0.000000,155.000000) scale(0.100000,-0.100000)"
fill="#000000" stroke="none">
<path d="M227 1323 c-4 -3 -7 -145 -7 -315 0 -169 -4 -308 -9 -308 -5 0 -11
-23 -13 -51 -3 -28 -10 -54 -15 -58 -6 -3 -13 -35 -17 -70 -7 -61 -10 -70 -34
-118 -19 -37 -26 -101 -12 -118 14 -17 56 -20 65 -5 3 6 19 10 35 10 16 0 31
4 34 9 3 5 22 12 41 15 19 4 35 11 35 16 0 4 14 12 32 15 17 4 51 18 74 31 24
13 56 24 72 24 16 0 43 7 58 15 16 8 37 15 46 15 9 0 20 5 23 10 3 6 19 10 34
10 15 0 32 5 39 12 6 6 50 14 97 16 47 2 85 8 85 12 0 4 35 10 77 14 81 6 135
24 130 41 -5 14 -116 19 -142 6 -11 -5 -66 -11 -122 -13 -63 -2 -107 -8 -115
-16 -7 -7 -25 -12 -40 -12 -15 0 -28 -4 -28 -9 0 -5 -30 -13 -67 -17 -38 -3
-77 -13 -88 -20 -11 -8 -31 -14 -46 -14 -14 0 -34 -9 -44 -20 -10 -11 -25 -20
-34 -20 -9 0 -28 -6 -43 -14 -15 -8 -40 -17 -57 -21 -17 -4 -33 -11 -36 -16
-4 -5 -13 -9 -21 -9 -16 0 -21 75 -5 85 6 3 13 27 17 53 3 26 10 52 14 57 5 6
12 43 15 83 4 40 12 75 16 78 5 3 9 56 9 119 0 65 4 116 10 120 6 3 10 46 10
95 0 49 -4 92 -10 95 -16 10 -12 121 5 135 12 10 10 15 -14 36 -30 25 -43 29
-54 17z"/>
</g>
</svg>
