<?xml version="1.0" standalone="no"?>
<!DOCTYPE svg PUBLIC "-//W3C//DTD SVG 20010904//EN"
 "http://www.w3.org/TR/2001/REC-SVG-20010904/DTD/svg10.dtd">
<svg version="1.0" xmlns="http://www.w3.org/2000/svg"
 width="177.000000pt" height="159.000000pt" viewBox="0 0 177.000000 159.000000"
 preserveAspectRatio="xMidYMid meet">
<metadata>
Created by potrace 1.15, written by Peter Selinger 2001-2017
</metadata>
<g transform="translate(0.000000,159.000000) scale(0.100000,-0.100000)"
fill="#000000" stroke="none">
<path d="M843 1298 c-22 -24 -44 -54 -48 -68 -4 -14 -17 -34 -29 -46 -26 -26
-37 -43 -78 -124 -18 -36 -35 -67 -39 -70 -3 -3 -10 -16 -14 -30 -4 -14 -17
-38 -29 -55 -27 -38 -76 -134 -76 -150 0 -6 -11 -22 -24 -35 -14 -12 -28 -35
-31 -51 -9 -39 -34 -89 -46 -89 -5 0 -9 -6 -9 -13 0 -8 -11 -24 -24 -37 -14
-12 -28 -35 -31 -49 -3 -15 -15 -33 -25 -41 -11 -8 -20 -20 -20 -26 0 -6 -7
-17 -15 -24 -8 -7 -21 -25 -30 -41 -8 -16 -22 -42 -31 -59 -18 -36 -15 -84 7
-88 22 -4 69 40 69 65 0 12 5 25 10 28 6 3 10 14 10 24 0 10 9 26 19 35 11 10
27 32 36 49 23 44 37 68 60 102 12 17 30 47 40 68 11 20 23 37 26 37 4 0 10
13 14 29 3 16 22 47 41 69 18 22 34 47 34 55 0 15 79 176 91 187 3 3 9 12 13
20 10 22 28 52 52 85 12 17 24 44 28 60 4 17 17 40 28 52 11 12 26 32 32 44 6
12 16 21 21 21 25 -3 30 -421 5 -446 -12 -12 -13 -303 -1 -310 5 -3 12 -41 16
-83 7 -82 16 -103 45 -103 25 0 40 22 47 67 3 21 9 40 13 43 13 10 40 79 40
103 0 14 5 27 10 29 6 2 13 34 17 71 3 37 10 70 14 73 5 3 9 18 9 35 0 16 4
37 9 47 6 9 13 34 16 55 3 20 10 37 15 37 4 0 11 13 15 29 3 16 17 39 31 51
13 13 24 31 24 41 0 9 7 22 15 29 8 7 15 17 15 23 0 5 11 25 25 43 14 18 25
37 25 42 0 15 48 54 59 47 7 -3 11 -41 11 -90 0 -46 5 -87 10 -90 6 -3 10 -19
10 -35 0 -16 -4 -32 -10 -35 -5 -3 -10 -34 -10 -69 0 -36 -5 -67 -12 -74 -10
-10 -13 -64 -13 -201 l0 -187 28 -35 c15 -19 32 -40 38 -47 5 -6 18 -12 29
-12 10 0 22 -5 25 -10 3 -5 27 -10 51 -10 53 0 56 19 5 33 -38 9 -91 60 -91
85 0 10 -6 24 -12 31 -18 17 -18 385 0 403 9 9 12 64 12 203 0 191 0 192 -25
215 -23 21 -27 22 -52 10 -36 -18 -113 -91 -113 -106 0 -7 -11 -26 -25 -42
-14 -17 -25 -39 -25 -50 0 -12 -6 -25 -14 -29 -23 -14 -62 -96 -69 -147 -4
-27 -11 -54 -16 -60 -5 -6 -12 -30 -16 -53 -4 -24 -11 -45 -16 -49 -5 -3 -9
-27 -9 -54 0 -27 -4 -51 -9 -55 -5 -3 -13 -20 -17 -37 -3 -18 -10 -39 -15 -48
-4 -8 -10 -23 -13 -33 -3 -9 -10 -17 -16 -17 -7 0 -10 128 -8 423 3 454 3 457
-46 457 -13 0 -39 -18 -63 -42z"/>
</g>
</svg>
