<?xml version="1.0" standalone="no"?>
<!DOCTYPE svg PUBLIC "-//W3C//DTD SVG 20010904//EN"
 "http://www.w3.org/TR/2001/REC-SVG-20010904/DTD/svg10.dtd">
<svg version="1.0" xmlns="http://www.w3.org/2000/svg"
 width="133.000000pt" height="154.000000pt" viewBox="0 0 133.000000 154.000000"
 preserveAspectRatio="xMidYMid meet">
<metadata>
Created by potrace 1.15, written by Peter Selinger 2001-2017
</metadata>
<g transform="translate(0.000000,154.000000) scale(0.100000,-0.100000)"
fill="#000000" stroke="none">
<path d="M900 1325 c0 -14 -4 -25 -9 -25 -5 0 -10 -169 -12 -387 -3 -298 -7
-387 -16 -391 -7 -2 -13 -15 -13 -28 0 -33 -16 -30 -25 4 -3 15 -17 41 -31 59
-13 17 -24 43 -24 57 0 14 -5 28 -11 31 -5 4 -14 17 -19 28 -6 12 -21 40 -35
62 -13 22 -31 54 -39 71 -8 17 -19 35 -25 38 -6 4 -18 22 -26 39 -22 46 -39
74 -58 95 -10 10 -17 26 -17 35 0 9 -4 18 -8 21 -5 3 -26 39 -47 81 -21 41
-42 75 -46 75 -4 0 -11 14 -14 32 -13 59 -39 93 -71 93 -29 0 -29 -1 -35 -70
-4 -38 -7 -127 -8 -197 -1 -86 -5 -128 -13 -130 -7 -3 -13 -43 -16 -116 -3
-62 -9 -115 -13 -118 -12 -7 -11 -91 1 -99 6 -3 10 -36 10 -73 0 -40 6 -79 15
-96 8 -15 15 -37 15 -48 0 -11 10 -31 23 -44 19 -20 31 -24 92 -24 58 0 74 4
87 20 17 19 15 19 -54 22 -51 2 -73 7 -78 18 -34 69 -35 75 -35 298 1 167 4
227 13 230 9 3 12 42 12 138 0 112 2 134 15 134 8 0 15 -7 15 -15 0 -8 3 -15
8 -15 4 0 12 -9 17 -19 6 -11 26 -50 45 -88 19 -37 38 -69 41 -71 4 -2 29 -46
55 -99 28 -55 50 -89 52 -80 5 25 18 21 44 -15 30 -43 43 -68 52 -101 5 -21 3
-25 -9 -21 -10 4 -15 0 -15 -15 0 -12 4 -21 9 -21 6 0 26 -33 46 -72 45 -91
56 -109 78 -129 9 -9 17 -21 17 -28 0 -15 43 -14 58 1 7 7 12 25 12 40 0 15 4
28 9 28 5 0 12 70 16 155 4 85 11 158 16 161 13 7 12 411 -1 419 -18 11 -11
71 10 90 39 35 20 85 -32 85 -23 0 -28 -4 -28 -25z"/>
</g>
</svg>
