<?xml version="1.0" standalone="no"?>
<!DOCTYPE svg PUBLIC "-//W3C//DTD SVG 20010904//EN"
 "http://www.w3.org/TR/2001/REC-SVG-20010904/DTD/svg10.dtd">
<svg version="1.0" xmlns="http://www.w3.org/2000/svg"
 width="125.000000pt" height="139.000000pt" viewBox="0 0 125.000000 139.000000"
 preserveAspectRatio="xMidYMid meet">
<metadata>
Created by potrace 1.15, written by Peter Selinger 2001-2017
</metadata>
<g transform="translate(0.000000,139.000000) scale(0.100000,-0.100000)"
fill="#000000" stroke="none">
<path d="M805 1217 c-11 -8 -48 -16 -83 -19 -35 -2 -67 -9 -70 -14 -10 -13
-50 -34 -66 -34 -7 0 -19 -6 -25 -14 -7 -8 -25 -17 -40 -21 -15 -3 -33 -15
-41 -25 -8 -11 -19 -20 -25 -20 -14 0 -60 -49 -68 -72 -4 -10 -11 -18 -17 -18
-5 0 -10 -6 -10 -13 0 -8 -11 -24 -24 -37 -14 -12 -28 -35 -31 -51 -4 -16 -11
-29 -16 -29 -5 0 -9 -13 -9 -28 0 -17 -10 -38 -24 -52 -14 -12 -28 -35 -31
-51 -4 -16 -10 -29 -15 -29 -4 0 -11 -20 -14 -45 -4 -24 -11 -47 -17 -50 -5
-4 -9 -19 -9 -36 0 -16 -4 -29 -10 -29 -13 0 -13 -147 0 -155 6 -3 10 -17 10
-30 0 -25 30 -85 43 -85 4 0 7 -6 7 -13 0 -8 11 -24 25 -37 17 -16 25 -34 25
-58 l0 -35 77 7 c50 4 83 12 95 23 21 19 44 33 108 64 25 13 65 40 89 61 24
21 49 38 56 38 13 0 65 52 65 65 0 13 52 65 65 65 12 0 105 91 105 104 0 4 17
28 38 54 34 42 48 65 66 112 3 8 10 22 15 30 31 53 36 79 36 195 0 103 -3 126
-17 142 -10 11 -18 23 -18 27 0 5 -17 26 -39 47 -21 22 -42 39 -47 39 -4 0
-15 6 -23 14 -25 21 -112 30 -136 13z m79 -72 c11 -8 28 -15 38 -15 25 0 78
-53 78 -78 0 -11 6 -22 13 -25 19 -6 13 -204 -7 -226 -9 -10 -16 -24 -16 -32
0 -9 -8 -24 -19 -35 -10 -11 -22 -31 -26 -45 -4 -13 -10 -26 -14 -29 -15 -12
-91 -109 -91 -117 0 -12 -113 -123 -125 -123 -6 0 -29 -18 -50 -40 -21 -22
-43 -40 -47 -40 -5 0 -22 -16 -39 -35 -35 -40 -54 -44 -62 -15 -6 23 -27 27
-27 6 0 -21 -80 -86 -106 -86 -12 0 -27 7 -34 15 -7 8 -24 15 -39 15 -21 0
-30 8 -44 40 -9 22 -17 46 -17 53 0 6 -9 23 -20 37 -21 27 -29 133 -10 145 6
3 10 18 10 33 0 15 7 36 15 46 8 11 15 30 15 43 0 13 5 23 10 23 6 0 10 9 10
20 0 11 11 41 24 68 14 26 27 54 30 62 3 8 10 22 15 30 5 8 12 22 16 30 20 51
89 130 111 130 7 0 17 6 21 13 11 18 94 76 133 93 8 3 29 12 47 20 17 8 43 14
57 14 14 0 26 5 26 10 0 16 102 11 124 -5z"/>
</g>
</svg>
