<?xml version="1.0" standalone="no"?>
<!DOCTYPE svg PUBLIC "-//W3C//DTD SVG 20010904//EN"
 "http://www.w3.org/TR/2001/REC-SVG-20010904/DTD/svg10.dtd">
<svg version="1.0" xmlns="http://www.w3.org/2000/svg"
 width="120.000000pt" height="145.000000pt" viewBox="0 0 120.000000 145.000000"
 preserveAspectRatio="xMidYMid meet">
<metadata>
Created by potrace 1.15, written by Peter Selinger 2001-2017
</metadata>
<g transform="translate(0.000000,145.000000) scale(0.100000,-0.100000)"
fill="#000000" stroke="none">
<path d="M365 1331 c-3 -5 -20 -13 -38 -16 -17 -4 -36 -11 -42 -15 -5 -4 -23
-10 -40 -14 -16 -4 -42 -19 -57 -34 -25 -23 -28 -33 -28 -87 0 -63 18 -105 46
-105 16 0 19 16 4 25 -18 11 -12 100 8 118 10 10 22 17 25 17 4 0 7 -38 7 -85
0 -74 -2 -85 -17 -86 -10 0 -13 -3 -6 -6 7 -2 15 -20 19 -39 3 -19 10 -37 15
-40 14 -8 11 -158 -3 -173 -18 -18 -18 -545 0 -563 6 -6 12 -19 12 -28 0 -22
42 -60 66 -60 11 0 24 11 32 27 17 38 15 53 -9 53 -47 0 -49 12 -49 274 0 152
4 247 10 251 6 4 10 62 10 140 0 78 4 136 10 140 6 3 10 28 10 55 0 27 -4 52
-10 55 -5 3 -10 20 -10 37 0 17 -8 40 -17 50 -15 17 -15 20 -3 28 8 6 23 10
32 10 9 0 20 5 23 10 8 13 219 13 243 1 9 -6 34 -13 55 -16 20 -3 37 -10 37
-15 0 -6 5 -10 11 -10 6 0 25 -6 42 -14 18 -8 39 -17 47 -20 52 -21 127 -92
135 -127 4 -16 11 -29 16 -29 5 0 9 -31 9 -69 l0 -68 -75 -71 c-72 -69 -143
-112 -184 -112 -11 0 -23 -4 -26 -10 -3 -5 -17 -10 -31 -10 -13 0 -24 -4 -24
-9 0 -4 -30 -11 -67 -15 -66 -7 -69 -6 -90 21 -13 15 -23 34 -23 41 0 10 -3
10 -15 -2 -24 -24 -18 -49 24 -90 l38 -38 82 7 c44 4 81 12 81 16 0 5 8 9 17
9 9 0 60 21 112 47 103 50 195 131 229 202 20 42 23 144 4 163 -7 7 -12 19
-12 28 0 9 -12 27 -26 41 -14 13 -30 34 -35 47 -5 12 -19 26 -32 31 -12 5 -29
16 -36 25 -7 9 -20 16 -27 16 -8 0 -14 5 -14 10 0 6 -11 10 -24 10 -13 0 -29
7 -36 15 -7 8 -18 15 -25 15 -7 0 -26 7 -41 15 -16 8 -39 15 -51 15 -12 0 -25
5 -28 10 -8 13 -252 13 -260 1z"/>
</g>
</svg>
