<?xml version="1.0" standalone="no"?>
<!DOCTYPE svg PUBLIC "-//W3C//DTD SVG 20010904//EN"
 "http://www.w3.org/TR/2001/REC-SVG-20010904/DTD/svg10.dtd">
<svg version="1.0" xmlns="http://www.w3.org/2000/svg"
 width="147.000000pt" height="175.000000pt" viewBox="0 0 147.000000 175.000000"
 preserveAspectRatio="xMidYMid meet">
<metadata>
Created by potrace 1.15, written by Peter Selinger 2001-2017
</metadata>
<g transform="translate(0.000000,175.000000) scale(0.100000,-0.100000)"
fill="#000000" stroke="none">
<path d="M816 1521 c-4 -5 -24 -12 -46 -16 -22 -4 -42 -11 -46 -16 -3 -5 -16
-9 -29 -9 -12 0 -25 -7 -29 -15 -3 -8 -16 -15 -30 -15 -15 0 -45 -18 -78 -48
-29 -27 -61 -51 -70 -55 -10 -3 -18 -13 -18 -21 0 -8 -27 -42 -59 -76 -33 -35
-63 -76 -66 -91 -4 -16 -10 -29 -15 -29 -4 0 -10 -8 -14 -17 -3 -10 -14 -32
-25 -49 -10 -17 -22 -45 -26 -62 -3 -18 -10 -32 -15 -32 -4 0 -11 -21 -15 -46
-3 -25 -15 -62 -26 -81 -14 -24 -22 -63 -26 -120 -3 -46 -10 -86 -15 -89 -11
-7 -10 -71 1 -78 5 -3 12 -21 15 -40 4 -18 15 -41 26 -51 11 -10 20 -26 20
-36 0 -10 13 -26 30 -36 16 -9 30 -21 30 -25 0 -4 16 -10 35 -14 19 -3 38 -10
41 -15 7 -11 71 -12 78 0 3 4 37 11 76 15 64 6 85 12 130 38 8 5 23 11 33 15
13 4 15 9 6 19 -15 18 -69 17 -93 -1 -11 -9 -41 -15 -68 -15 -26 0 -48 -4 -48
-10 0 -12 -77 -13 -84 -1 -3 4 -19 11 -35 14 -17 4 -50 26 -73 49 l-43 43 0
149 c0 111 3 150 13 154 6 2 12 14 12 27 0 13 5 27 10 30 5 3 10 21 10 39 0
19 7 39 15 46 7 6 17 32 21 56 3 24 10 44 15 44 5 0 9 6 9 14 0 7 7 19 15 26
8 7 15 19 15 26 0 7 23 37 50 66 27 29 50 57 50 62 0 20 114 126 136 126 12 0
24 7 28 15 3 8 17 15 31 15 14 0 25 3 25 8 0 15 82 42 130 42 28 0 50 5 50 10
0 6 18 10 40 10 22 0 40 -4 40 -10 0 -5 12 -10 26 -10 14 0 42 -7 61 -17 38
-18 103 -75 103 -90 0 -6 9 -18 20 -28 12 -11 22 -37 26 -67 4 -26 11 -51 15
-54 12 -7 11 -261 0 -269 -5 -3 -12 -19 -16 -35 -4 -17 -11 -30 -16 -30 -5 0
-9 -11 -9 -24 0 -14 -4 -28 -10 -31 -5 -3 -10 -15 -10 -26 0 -10 -7 -19 -15
-19 -9 0 -15 -9 -15 -25 0 -14 -7 -28 -15 -31 -8 -4 -15 -11 -15 -18 0 -7 -18
-30 -40 -51 -22 -21 -40 -44 -40 -50 0 -6 -24 -34 -53 -63 -72 -71 -84 -69
-177 23 -67 67 -80 75 -123 81 -47 7 -49 6 -45 -17 1 -13 13 -28 26 -34 12 -5
22 -13 22 -18 0 -4 12 -12 26 -17 14 -6 28 -19 31 -30 3 -11 9 -20 14 -20 4 0
24 -14 42 -30 19 -17 40 -30 46 -30 6 0 11 -9 11 -20 0 -11 -6 -20 -13 -20 -7
0 -26 -13 -42 -30 -16 -16 -33 -30 -37 -30 -5 0 -19 -10 -31 -23 -12 -13 -39
-31 -59 -41 -21 -9 -38 -21 -38 -26 0 -5 -17 -12 -37 -16 -21 -4 -40 -10 -43
-13 -10 -12 -50 -31 -65 -31 -8 0 -15 -9 -15 -20 0 -25 44 -27 86 -5 16 8 37
15 46 15 9 0 19 4 23 9 3 5 19 12 35 16 17 4 30 11 30 16 0 5 6 9 13 9 7 0 26
13 42 30 16 16 33 30 38 30 5 0 24 15 41 33 31 31 56 50 84 63 7 4 21 -1 31
-10 10 -9 23 -16 29 -16 7 0 12 -4 12 -10 0 -5 6 -10 13 -10 8 0 22 -9 33 -21
10 -11 32 -27 49 -35 43 -21 72 -39 92 -56 10 -9 34 -19 53 -23 35 -7 34 -6
-40 69 -45 46 -83 76 -95 76 -11 0 -27 9 -35 21 -8 12 -25 25 -38 30 -42 16
-38 37 22 98 31 31 56 60 56 65 0 8 35 52 80 103 10 12 22 33 26 47 3 14 10
26 15 26 5 0 9 5 9 11 0 10 22 64 40 99 4 9 11 30 14 48 4 17 12 34 17 37 12
8 12 262 -1 270 -5 3 -10 25 -10 49 0 23 -7 51 -15 62 -8 10 -15 27 -15 37 0
33 -139 153 -189 163 -17 4 -34 11 -37 15 -7 12 -181 12 -188 0z"/>
</g>
</svg>
