<?xml version="1.0" standalone="no"?>
<!DOCTYPE svg PUBLIC "-//W3C//DTD SVG 20010904//EN"
 "http://www.w3.org/TR/2001/REC-SVG-20010904/DTD/svg10.dtd">
<svg version="1.0" xmlns="http://www.w3.org/2000/svg"
 width="176.000000pt" height="179.000000pt" viewBox="0 0 176.000000 179.000000"
 preserveAspectRatio="xMidYMid meet">
<metadata>
Created by potrace 1.15, written by Peter Selinger 2001-2017
</metadata>
<g transform="translate(0.000000,179.000000) scale(0.100000,-0.100000)"
fill="#000000" stroke="none">
<path d="M776 1551 c-3 -5 -32 -12 -63 -16 -32 -4 -62 -10 -68 -15 -5 -4 -23
-10 -40 -14 -16 -4 -32 -11 -35 -14 -13 -17 -80 -62 -93 -62 -8 0 -22 11 -31
25 -32 48 -86 18 -86 -48 0 -20 -4 -39 -10 -42 -6 -4 -10 -73 -10 -176 0 -106
4 -169 10 -169 16 0 12 -76 -5 -90 -22 -18 -18 -46 9 -73 20 -20 25 -39 31
-103 4 -43 11 -84 16 -89 4 -6 11 -57 15 -113 4 -56 11 -105 15 -108 5 -3 9
-23 9 -45 0 -21 5 -39 10 -39 6 0 10 -5 10 -11 0 -6 7 -26 16 -45 13 -27 22
-34 45 -34 36 0 37 13 4 74 -14 26 -25 60 -25 76 0 16 -4 31 -8 34 -5 3 -12
44 -15 92 -3 48 -11 92 -17 98 -5 5 -10 45 -10 88 l0 78 63 -7 c42 -4 67 -12
78 -25 9 -10 21 -18 26 -18 6 0 17 -7 24 -16 7 -9 24 -20 36 -25 13 -5 28 -20
33 -34 5 -14 18 -28 27 -32 10 -4 55 -41 100 -83 45 -43 94 -81 109 -84 15 -4
35 -15 43 -25 9 -10 23 -21 31 -25 36 -17 63 -35 88 -59 33 -31 118 -77 142
-77 10 0 31 -7 46 -15 49 -26 239 -17 212 10 -3 4 -40 9 -82 12 -42 3 -76 10
-76 14 0 4 -17 11 -37 15 -21 4 -40 10 -43 13 -9 11 -50 31 -63 31 -8 0 -22 9
-32 20 -10 11 -23 20 -30 20 -6 0 -22 11 -35 25 -13 14 -27 25 -32 25 -5 0
-14 4 -21 10 -54 44 -76 60 -82 60 -7 0 -20 11 -111 94 -28 25 -55 46 -60 46
-11 0 -150 138 -143 143 27 20 62 37 77 37 11 0 46 13 78 30 32 16 66 30 75
30 9 0 24 9 34 20 10 11 24 20 32 20 7 0 16 6 19 14 3 8 18 18 34 21 15 3 38
17 50 31 13 13 27 24 31 24 10 0 93 82 103 101 3 8 15 28 25 44 23 36 28 143
9 178 -36 62 -99 113 -168 133 -14 3 -28 11 -31 17 -4 5 -30 12 -58 15 -28 2
-51 8 -51 13 0 12 -137 12 -144 0z m108 -60 c3 -4 37 -11 76 -15 38 -4 70 -11
70 -16 0 -5 13 -11 28 -15 29 -6 86 -59 110 -102 19 -35 14 -78 -13 -127 -34
-60 -117 -141 -178 -171 -28 -14 -58 -34 -67 -45 -9 -10 -29 -22 -45 -26 -16
-4 -40 -13 -54 -20 -14 -8 -32 -14 -38 -14 -7 0 -13 -4 -13 -10 0 -5 -10 -10
-22 -10 -13 0 -32 -7 -42 -15 -11 -8 -30 -15 -43 -15 -13 0 -23 -4 -23 -10 0
-5 -17 -10 -38 -10 -29 0 -39 5 -47 23 -8 17 -20 23 -52 25 -24 2 -43 7 -43
13 0 5 -7 9 -15 9 -12 0 -15 13 -15 55 0 30 -4 55 -10 55 -6 0 -10 35 -10 84
0 47 5 88 10 91 6 3 10 22 10 41 0 36 6 44 86 110 58 48 170 104 207 104 15 0
27 5 27 10 0 12 137 14 144 1z"/>
</g>
</svg>
