<?xml version="1.0" standalone="no"?>
<!DOCTYPE svg PUBLIC "-//W3C//DTD SVG 20010904//EN"
 "http://www.w3.org/TR/2001/REC-SVG-20010904/DTD/svg10.dtd">
<svg version="1.0" xmlns="http://www.w3.org/2000/svg"
 width="128.000000pt" height="151.000000pt" viewBox="0 0 128.000000 151.000000"
 preserveAspectRatio="xMidYMid meet">
<metadata>
Created by potrace 1.15, written by Peter Selinger 2001-2017
</metadata>
<g transform="translate(0.000000,151.000000) scale(0.100000,-0.100000)"
fill="#000000" stroke="none">
<path d="M800 1311 c0 -5 -12 -12 -27 -16 -15 -3 -40 -16 -57 -28 -34 -24 -63
-42 -86 -53 -8 -4 -25 -18 -37 -31 -12 -13 -26 -23 -30 -23 -5 0 -27 -18 -48
-40 -21 -22 -44 -40 -50 -40 -14 0 -75 -62 -75 -76 0 -13 -32 -43 -62 -58 -28
-15 -67 -84 -67 -121 -1 -35 36 -75 68 -75 12 0 21 -4 21 -10 0 -5 10 -10 23
-10 13 0 28 -5 34 -11 6 -6 61 -14 122 -17 61 -2 111 -8 111 -13 0 -4 39 -10
88 -14 84 -6 107 -12 164 -41 14 -8 34 -14 43 -14 19 0 48 -26 43 -39 -5 -17
-160 -171 -170 -171 -10 0 -56 -34 -89 -65 -9 -8 -20 -15 -26 -15 -5 0 -18 -9
-28 -20 -23 -25 -67 -48 -110 -56 -19 -3 -41 -15 -51 -25 -9 -10 -22 -19 -27
-19 -6 0 -19 -7 -29 -16 -12 -11 -37 -17 -78 -18 -58 -1 -60 -2 -60 -28 0 -27
1 -28 60 -28 33 0 60 4 60 10 0 5 16 12 35 16 19 3 38 10 41 15 3 5 16 9 30 9
13 0 24 4 24 8 0 5 19 18 43 30 24 12 52 31 62 42 10 11 26 20 35 20 10 0 23
7 30 15 7 8 18 15 26 15 7 0 17 6 21 13 4 6 22 19 38 27 27 13 59 39 156 125
51 45 69 79 69 129 l0 45 -74 36 c-42 20 -88 35 -109 35 -20 0 -38 4 -41 9 -3
5 -44 12 -91 16 -47 4 -85 10 -85 15 0 4 -49 9 -110 12 -69 2 -114 8 -122 16
-6 6 -22 12 -35 12 -13 0 -23 5 -23 10 0 6 -7 10 -15 10 -9 0 -15 9 -15 23 0
15 35 58 113 135 62 61 117 112 123 112 6 0 21 11 34 25 13 14 29 25 37 25 7
0 13 4 13 9 0 5 8 12 18 15 26 10 60 31 85 53 70 63 207 72 207 14 0 -6 9 -11
20 -11 11 0 20 7 20 15 0 8 -7 15 -15 15 -10 0 -15 10 -15 28 0 15 -5 33 -12
40 -14 14 -148 17 -148 3z"/>
</g>
</svg>
