<?xml version="1.0" standalone="no"?>
<!DOCTYPE svg PUBLIC "-//W3C//DTD SVG 20010904//EN"
 "http://www.w3.org/TR/2001/REC-SVG-20010904/DTD/svg10.dtd">
<svg version="1.0" xmlns="http://www.w3.org/2000/svg"
 width="139.000000pt" height="140.000000pt" viewBox="0 0 139.000000 140.000000"
 preserveAspectRatio="xMidYMid meet">
<metadata>
Created by potrace 1.15, written by Peter Selinger 2001-2017
</metadata>
<g transform="translate(0.000000,140.000000) scale(0.100000,-0.100000)"
fill="#000000" stroke="none">
<path d="M458 1218 c-38 -36 -109 -51 -123 -28 -8 13 -62 13 -67 0 -2 -6 -35
-13 -73 -17 -39 -3 -76 -10 -82 -16 -19 -14 -16 -41 7 -62 23 -21 50 -13 50
14 0 22 16 36 24 23 3 -5 67 -13 143 -17 76 -4 143 -11 150 -17 7 -5 15 -41
19 -79 4 -38 11 -69 15 -69 5 0 9 -17 9 -38 0 -21 6 -44 13 -51 9 -9 12 -93
11 -357 l-2 -345 27 3 c25 3 26 6 34 93 12 123 2 644 -12 658 -6 6 -11 30 -11
53 0 23 -7 55 -15 70 -8 16 -15 41 -15 57 0 26 2 27 55 27 30 0 63 4 73 9 51
26 85 30 291 34 187 4 226 8 239 21 15 15 14 16 -5 16 -12 0 -25 5 -28 10 -4
6 -68 10 -160 10 -92 0 -156 -4 -160 -10 -3 -6 -48 -10 -101 -10 -56 0 -94 -4
-94 -10 0 -5 -20 -10 -44 -10 -25 0 -48 5 -51 10 -3 6 -22 10 -41 10 -22 0
-37 6 -40 15 -7 18 -18 19 -36 3z"/>
</g>
</svg>
