<?xml version="1.0" standalone="no"?>
<!DOCTYPE svg PUBLIC "-//W3C//DTD SVG 20010904//EN"
 "http://www.w3.org/TR/2001/REC-SVG-20010904/DTD/svg10.dtd">
<svg version="1.0" xmlns="http://www.w3.org/2000/svg"
 width="105.000000pt" height="131.000000pt" viewBox="0 0 105.000000 131.000000"
 preserveAspectRatio="xMidYMid meet">
<metadata>
Created by potrace 1.15, written by Peter Selinger 2001-2017
</metadata>
<g transform="translate(0.000000,131.000000) scale(0.100000,-0.100000)"
fill="#000000" stroke="none">
<path d="M892 1178 c-5 -7 -13 -39 -17 -71 -4 -31 -11 -60 -16 -63 -5 -3 -9
-18 -9 -34 0 -16 -4 -31 -8 -34 -5 -3 -12 -45 -15 -93 -3 -50 -12 -101 -21
-118 -9 -16 -16 -36 -16 -42 0 -7 -4 -13 -10 -13 -5 0 -10 -18 -10 -39 0 -22
-4 -42 -9 -46 -5 -3 -13 -34 -16 -70 -4 -36 -11 -68 -16 -71 -5 -3 -9 -20 -9
-39 0 -18 -6 -40 -12 -47 -18 -20 -38 -56 -38 -69 0 -18 -42 -99 -52 -99 -4 0
-8 -7 -8 -16 0 -13 -6 -15 -27 -9 -31 7 -133 102 -133 122 0 7 -4 13 -8 13 -5
0 -17 17 -27 38 -10 20 -22 45 -26 54 -5 10 -9 25 -9 34 0 9 -6 28 -14 42 -27
53 -35 78 -41 137 -3 33 -10 61 -15 63 -6 2 -10 15 -10 29 0 25 -9 49 -61 159
-16 34 -29 71 -29 83 0 12 -4 30 -10 41 -5 11 -14 29 -20 40 -5 11 -10 26 -10
33 0 7 -13 26 -29 41 -27 26 -31 27 -45 13 -18 -17 -22 -67 -6 -67 6 0 10 -5
10 -11 0 -11 23 -67 41 -101 5 -10 9 -23 9 -29 0 -6 13 -39 29 -73 52 -110 61
-134 61 -160 0 -14 4 -26 9 -26 4 0 11 -30 15 -66 4 -36 10 -73 15 -82 4 -9
16 -31 25 -49 9 -17 16 -37 16 -44 0 -16 51 -121 63 -130 5 -3 18 -26 30 -49
19 -39 47 -63 97 -87 8 -4 21 -13 28 -20 7 -7 33 -13 56 -13 49 0 77 25 114
100 13 25 26 52 31 60 24 45 30 61 36 94 4 20 11 38 15 41 5 3 12 34 15 70 4
36 11 68 16 71 5 3 9 23 9 44 0 21 5 42 10 45 6 3 10 14 10 23 0 9 7 30 15 46
8 16 18 66 22 113 3 46 10 86 15 89 4 3 8 25 8 48 0 27 6 48 15 56 8 7 15 27
15 46 0 18 5 36 10 39 6 3 10 19 10 36 0 25 -4 29 -29 29 -16 0 -33 -6 -39
-12z"/>
</g>
</svg>
