<?xml version="1.0" standalone="no"?>
<!DOCTYPE svg PUBLIC "-//W3C//DTD SVG 20010904//EN"
 "http://www.w3.org/TR/2001/REC-SVG-20010904/DTD/svg10.dtd">
<svg version="1.0" xmlns="http://www.w3.org/2000/svg"
 width="122.000000pt" height="137.000000pt" viewBox="0 0 122.000000 137.000000"
 preserveAspectRatio="xMidYMid meet">
<metadata>
Created by potrace 1.15, written by Peter Selinger 2001-2017
</metadata>
<g transform="translate(0.000000,137.000000) scale(0.100000,-0.100000)"
fill="#000000" stroke="none">
<path d="M891 1222 c-11 -16 -23 -40 -26 -55 -4 -15 -11 -27 -15 -27 -4 0 -10
-8 -14 -17 -3 -10 -17 -36 -30 -58 -14 -22 -25 -50 -26 -62 0 -13 -4 -23 -10
-23 -5 0 -10 -6 -10 -14 0 -7 -7 -19 -15 -26 -8 -7 -15 -25 -15 -41 0 -15 -4
-31 -10 -34 -5 -3 -10 -14 -10 -23 0 -9 -6 -29 -14 -44 -8 -15 -17 -42 -21
-60 -4 -18 -14 -40 -22 -49 -21 -25 -53 -91 -53 -111 0 -10 -4 -18 -9 -18 -14
0 -41 -59 -41 -91 0 -33 -18 -48 -26 -22 -3 10 -10 26 -15 35 -5 10 -9 29 -9
44 0 24 -16 70 -41 117 -5 10 -12 55 -16 100 -3 45 -9 87 -14 92 -4 6 -11 45
-15 88 -4 43 -11 80 -15 83 -5 3 -9 16 -9 30 0 16 -6 24 -16 24 -14 0 -16 8
-11 48 4 39 2 52 -12 64 -14 12 -19 12 -29 2 -15 -16 -16 -100 -2 -109 6 -3
10 -17 10 -30 0 -13 5 -25 11 -27 6 -2 13 -56 16 -136 3 -72 9 -132 13 -132 4
0 10 -25 13 -56 3 -31 11 -62 16 -67 6 -6 11 -23 11 -37 0 -14 4 -30 10 -36 5
-5 12 -47 16 -94 4 -47 10 -89 14 -95 4 -5 10 -29 14 -53 5 -36 13 -58 34 -91
4 -8 52 43 52 56 0 7 4 21 9 31 6 9 13 34 16 55 3 20 10 37 14 37 5 0 12 12
16 27 3 15 15 39 25 53 10 14 22 38 25 53 4 15 11 27 16 27 5 0 9 10 9 23 0
13 7 32 15 43 8 10 15 29 15 42 0 12 5 22 10 22 6 0 10 6 10 13 0 7 9 29 20
50 11 20 20 46 20 57 0 11 5 20 10 20 6 0 10 10 10 23 0 12 7 31 15 41 8 11
15 30 15 43 0 13 4 23 9 23 5 0 12 12 16 28 3 15 17 41 31 59 13 17 24 41 24
52 0 12 5 21 10 21 6 0 10 6 10 13 0 8 9 22 20 32 19 17 21 17 40 0 16 -14 22
-15 35 -5 13 11 11 17 -15 47 -17 18 -30 38 -30 43 0 6 -13 10 -29 10 -21 0
-36 -8 -50 -28z"/>
</g>
</svg>
