<?xml version="1.0" standalone="no"?>
<!DOCTYPE svg PUBLIC "-//W3C//DTD SVG 20010904//EN"
 "http://www.w3.org/TR/2001/REC-SVG-20010904/DTD/svg10.dtd">
<svg version="1.0" xmlns="http://www.w3.org/2000/svg"
 width="181.000000pt" height="173.000000pt" viewBox="0 0 181.000000 173.000000"
 preserveAspectRatio="xMidYMid meet">
<metadata>
Created by potrace 1.15, written by Peter Selinger 2001-2017
</metadata>
<g transform="translate(0.000000,173.000000) scale(0.100000,-0.100000)"
fill="#000000" stroke="none">
<path d="M1615 1500 c-3 -5 -20 -10 -37 -10 -16 0 -46 -8 -66 -17 -38 -18
-132 -106 -167 -157 -42 -60 -55 -81 -61 -96 -3 -8 -10 -22 -15 -30 -5 -8 -12
-22 -15 -30 -19 -48 -36 -80 -43 -84 -5 -3 -12 -22 -15 -41 -4 -19 -10 -35
-14 -35 -8 0 -28 -43 -38 -83 -3 -15 -10 -30 -15 -33 -5 -3 -9 -13 -9 -23 0
-10 -7 -24 -15 -31 -8 -7 -15 -19 -15 -28 0 -9 -10 -26 -22 -39 l-21 -23 -29
57 c-15 30 -28 71 -28 89 0 19 -4 34 -9 34 -5 0 -12 20 -15 45 -4 24 -11 47
-17 50 -5 4 -9 17 -9 30 0 31 -33 95 -63 124 -22 20 -25 20 -55 5 -18 -8 -32
-21 -32 -28 0 -7 -11 -23 -25 -36 -14 -13 -25 -31 -25 -41 0 -9 -7 -22 -15
-29 -8 -7 -15 -24 -15 -37 0 -14 -8 -37 -19 -51 -10 -15 -21 -48 -25 -74 -4
-26 -11 -50 -15 -53 -5 -2 -11 -27 -15 -54 -4 -28 -11 -53 -16 -56 -6 -3 -10
-17 -10 -31 0 -13 -4 -24 -9 -24 -5 0 -13 -15 -16 -33 -4 -17 -13 -39 -20 -47
-6 -8 -18 -30 -26 -47 -8 -18 -17 -33 -21 -33 -3 0 -9 -13 -13 -30 -11 -48
-42 -40 -50 13 -4 23 -10 44 -14 47 -14 12 -31 52 -37 90 -4 22 -10 40 -15 40
-5 0 -9 4 -9 10 0 17 -34 90 -42 90 -5 0 -8 12 -8 28 0 15 -7 40 -15 56 -8 15
-15 38 -15 50 0 12 -7 31 -15 42 -8 10 -15 29 -15 42 0 12 -4 22 -10 22 -5 0
-19 21 -31 48 -26 57 -56 92 -81 92 -23 0 -25 -52 -3 -70 8 -7 15 -23 15 -37
0 -13 7 -31 15 -39 8 -9 15 -23 15 -33 0 -10 9 -26 19 -35 11 -10 23 -35 26
-57 4 -21 10 -41 15 -44 5 -3 11 -24 15 -48 4 -23 10 -44 14 -47 11 -9 31 -49
31 -62 0 -7 14 -40 30 -73 16 -33 30 -68 30 -77 0 -10 4 -18 9 -18 4 0 11 -19
14 -41 11 -83 103 -132 133 -72 6 13 18 31 27 41 10 10 17 23 17 28 0 5 9 16
20 24 11 8 20 22 20 32 0 10 9 35 20 55 11 21 20 43 20 50 0 8 5 22 10 33 6
11 14 28 19 39 5 10 13 36 17 57 3 22 11 44 15 50 5 6 12 33 16 60 3 27 17 68
30 91 12 23 23 51 23 62 0 11 5 23 10 26 6 3 10 15 10 26 0 13 7 19 24 19 29
0 44 -17 52 -59 4 -17 11 -34 15 -37 5 -3 9 -13 9 -22 0 -9 11 -38 24 -64 13
-27 27 -67 31 -90 11 -77 59 -148 100 -148 20 0 65 37 65 54 0 4 11 22 25 40
14 18 28 47 31 64 4 17 13 37 20 43 8 6 14 20 14 30 0 10 5 21 10 24 6 3 10
17 10 31 0 13 4 24 9 24 5 0 12 14 16 30 4 16 11 30 16 30 5 0 9 14 9 31 0 16
14 54 30 84 17 30 30 61 30 70 0 18 6 26 74 101 27 30 54 54 61 54 7 0 21 11
31 25 11 15 33 27 54 31 19 3 49 12 67 20 17 8 38 14 47 14 17 0 20 9 10 34
-7 18 -59 22 -69 6z"/>
</g>
</svg>
