<?xml version="1.0" standalone="no"?>
<!DOCTYPE svg PUBLIC "-//W3C//DTD SVG 20010904//EN"
 "http://www.w3.org/TR/2001/REC-SVG-20010904/DTD/svg10.dtd">
<svg version="1.0" xmlns="http://www.w3.org/2000/svg"
 width="100.000000pt" height="119.000000pt" viewBox="0 0 100.000000 119.000000"
 preserveAspectRatio="xMidYMid meet">
<metadata>
Created by potrace 1.15, written by Peter Selinger 2001-2017
</metadata>
<g transform="translate(0.000000,119.000000) scale(0.100000,-0.100000)"
fill="#000000" stroke="none">
<path d="M681 1068 c-8 -18 -24 -41 -36 -53 -12 -11 -26 -31 -30 -45 -4 -14
-10 -27 -14 -30 -14 -12 -31 -51 -31 -73 0 -13 -9 -32 -20 -42 -11 -10 -20
-24 -20 -32 0 -7 -4 -13 -9 -13 -5 0 -18 -18 -29 -40 -10 -22 -36 -58 -57 -81
-43 -48 -68 -45 -73 9 -2 17 -10 36 -18 42 -8 7 -14 21 -14 31 0 11 -7 19 -15
19 -9 0 -15 9 -15 25 0 14 -4 25 -9 25 -5 0 -12 12 -16 27 -3 15 -24 48 -46
74 -21 26 -39 56 -39 67 0 11 -7 25 -15 32 -8 7 -15 19 -15 26 0 8 -9 14 -20
14 -22 0 -24 -11 -14 -72 4 -23 12 -38 20 -38 8 0 14 -7 14 -15 0 -8 4 -23 10
-33 5 -9 14 -28 20 -42 5 -14 14 -33 20 -42 5 -10 15 -26 20 -35 6 -10 13 -25
16 -33 4 -8 24 -51 45 -95 47 -98 49 -131 11 -165 -15 -14 -31 -33 -35 -43 -4
-11 -16 -21 -27 -24 -11 -3 -20 -9 -20 -13 0 -4 -14 -26 -31 -50 -28 -39 -33
-42 -44 -27 -18 25 -25 21 -25 -16 0 -71 50 -76 99 -11 19 25 56 66 83 92 26
26 48 53 48 60 0 21 33 9 46 -17 21 -41 137 -152 182 -172 23 -11 42 -24 42
-29 0 -6 8 -10 19 -10 10 0 39 -11 65 -25 55 -29 136 -35 136 -10 0 8 -9 15
-19 15 -11 0 -23 5 -26 10 -3 6 -17 10 -31 10 -22 0 -103 53 -112 73 -2 4 -14
7 -26 7 -27 0 -156 130 -179 182 -21 45 -22 77 -2 84 8 4 15 12 15 18 0 7 14
25 30 41 17 16 30 33 30 38 0 4 11 23 25 41 14 18 25 37 25 43 0 5 11 20 25
33 14 13 25 31 25 41 0 9 7 22 15 29 8 7 15 23 15 36 0 13 4 24 9 24 5 0 11 8
15 18 8 23 26 49 59 84 29 31 36 68 12 68 -8 0 -15 5 -15 10 0 24 -36 8 -49
-22z"/>
</g>
</svg>
