<?xml version="1.0" standalone="no"?>
<!DOCTYPE svg PUBLIC "-//W3C//DTD SVG 20010904//EN"
 "http://www.w3.org/TR/2001/REC-SVG-20010904/DTD/svg10.dtd">
<svg version="1.0" xmlns="http://www.w3.org/2000/svg"
 width="134.000000pt" height="170.000000pt" viewBox="0 0 134.000000 170.000000"
 preserveAspectRatio="xMidYMid meet">
<metadata>
Created by potrace 1.15, written by Peter Selinger 2001-2017
</metadata>
<g transform="translate(0.000000,170.000000) scale(0.100000,-0.100000)"
fill="#000000" stroke="none">
<path d="M150 1466 c-32 -34 -33 -37 -27 -95 4 -34 14 -70 24 -83 33 -41 187
-198 195 -198 4 0 31 -24 60 -53 32 -32 78 -65 115 -83 73 -34 80 -54 33 -99
-16 -16 -30 -36 -30 -45 0 -25 32 -58 60 -62 22 -3 25 -9 28 -45 2 -24 7 -43
13 -43 5 0 9 -34 9 -75 0 -41 4 -75 9 -75 5 0 13 -25 16 -55 4 -30 11 -55 16
-55 4 0 11 -31 15 -70 3 -38 11 -70 15 -70 5 0 9 -10 9 -22 1 -29 22 -58 44
-58 12 0 16 10 16 44 0 25 -4 47 -9 50 -4 3 -11 33 -14 66 -3 33 -11 68 -18
76 -7 9 -15 53 -17 100 -3 46 -8 87 -13 90 -5 3 -9 29 -9 58 0 28 -4 56 -9 62
-6 5 -11 47 -13 94 l-3 85 53 -3 c58 -4 73 15 27 36 -14 6 -25 16 -25 20 0 14
268 272 282 272 8 0 36 23 63 50 50 51 75 62 75 35 0 -8 7 -15 15 -15 22 0 21
105 -1 114 -21 8 -21 8 -36 -6 -26 -26 -87 -68 -96 -68 -5 0 -72 -60 -148
-133 -77 -73 -147 -136 -157 -140 -9 -4 -20 -15 -24 -24 -9 -26 -54 -73 -70
-73 -14 0 -54 20 -63 31 -3 4 -16 10 -29 14 -28 8 -34 13 -100 73 -27 23 -52
42 -57 42 -13 0 -104 93 -104 106 0 5 -20 30 -45 54 -42 41 -45 48 -45 96 0
51 19 84 48 84 7 0 12 7 12 15 0 29 -54 17 -90 -19z"/>
</g>
</svg>
