<?xml version="1.0" standalone="no"?>
<!DOCTYPE svg PUBLIC "-//W3C//DTD SVG 20010904//EN"
 "http://www.w3.org/TR/2001/REC-SVG-20010904/DTD/svg10.dtd">
<svg version="1.0" xmlns="http://www.w3.org/2000/svg"
 width="169.000000pt" height="161.000000pt" viewBox="0 0 169.000000 161.000000"
 preserveAspectRatio="xMidYMid meet">
<metadata>
Created by potrace 1.15, written by Peter Selinger 2001-2017
</metadata>
<g transform="translate(0.000000,161.000000) scale(0.100000,-0.100000)"
fill="#000000" stroke="none">
<path d="M696 1301 c-3 -4 -59 -10 -125 -13 -66 -3 -126 -10 -134 -16 -7 -6
-46 -12 -86 -14 -57 -2 -76 -7 -85 -20 -16 -26 3 -51 47 -63 19 -5 39 -13 43
-17 12 -12 39 -9 70 7 20 10 23 15 12 15 -10 0 -18 5 -18 10 0 6 13 10 28 10
15 0 32 4 37 9 6 5 79 13 163 17 84 4 155 11 158 15 7 12 174 11 174 0 0 -5
13 -12 30 -16 37 -8 112 -46 134 -67 18 -18 23 -122 7 -133 -5 -3 -13 -20 -16
-38 -4 -17 -16 -42 -28 -54 -18 -21 -30 -23 -114 -23 -51 0 -93 -4 -93 -9 0
-5 -86 -12 -190 -16 -105 -4 -193 -11 -196 -16 -3 -5 -45 -9 -93 -9 -83 0 -88
-1 -101 -25 -21 -40 0 -55 76 -55 34 0 66 5 69 10 3 6 25 10 49 10 23 0 46 4
52 10 5 5 106 12 224 16 l215 6 -105 -106 c-57 -58 -110 -106 -117 -106 -6 0
-36 -22 -66 -50 -30 -27 -59 -50 -63 -50 -5 0 -49 -38 -99 -84 -79 -73 -88
-85 -76 -100 10 -12 31 -16 87 -16 40 0 75 4 78 9 3 5 35 12 71 16 36 3 67 11
70 16 4 5 23 9 44 9 20 0 46 7 57 15 11 8 42 14 75 15 30 0 61 6 67 12 9 9 63
15 164 18 109 4 153 9 156 18 2 6 -1 12 -7 12 -6 0 -11 7 -11 17 0 15 -17 16
-190 10 -105 -4 -199 -12 -210 -17 -11 -6 -29 -15 -40 -20 -11 -6 -29 -10 -41
-10 -11 0 -35 -6 -52 -14 -18 -8 -53 -17 -79 -21 -26 -3 -50 -10 -53 -16 -8
-11 -65 -12 -65 -1 0 11 95 92 107 92 5 0 27 18 48 40 21 22 43 40 47 40 4 0
49 40 98 90 49 50 93 90 98 90 4 0 32 25 62 55 l54 55 211 0 c115 0 220 3 233
6 44 12 16 29 -54 32 -38 2 -73 7 -78 13 -6 5 -65 9 -133 9 -112 0 -149 8
-108 24 8 3 15 16 15 29 0 13 7 38 16 56 11 23 15 50 12 90 -3 50 -9 63 -39
92 -18 19 -45 40 -59 46 -75 33 -99 43 -109 43 -6 0 -11 5 -11 10 0 12 -306
14 -314 1z"/>
</g>
</svg>
