<?xml version="1.0" standalone="no"?>
<!DOCTYPE svg PUBLIC "-//W3C//DTD SVG 20010904//EN"
 "http://www.w3.org/TR/2001/REC-SVG-20010904/DTD/svg10.dtd">
<svg version="1.0" xmlns="http://www.w3.org/2000/svg"
 width="295.000000pt" height="320.000000pt" viewBox="0 0 295.000000 320.000000"
 preserveAspectRatio="xMidYMid meet">
<metadata>
Created by potrace 1.15, written by Peter Selinger 2001-2017
</metadata>
<g transform="translate(0.000000,320.000000) scale(0.100000,-0.100000)"
fill="#000000" stroke="none">
<path d="M1630 2683 c-24 -2 -51 -10 -59 -16 -8 -7 -59 -13 -120 -15 -58 -2
-110 -8 -116 -13 -5 -5 -33 -9 -62 -9 -29 0 -53 -4 -53 -10 0 -5 -11 -10 -24
-10 -36 0 -76 -17 -83 -36 -3 -8 0 -27 8 -40 19 -36 21 -1446 1 -1465 -6 -7
-12 -29 -12 -49 0 -20 -7 -45 -15 -56 -8 -10 -15 -29 -15 -41 0 -13 -4 -23 -9
-23 -6 0 -13 -32 -17 -70 -4 -39 -11 -73 -15 -76 -5 -3 -9 -27 -9 -53 0 -60
20 -81 78 -81 22 0 44 -4 47 -10 3 -5 19 -10 35 -10 16 0 32 -4 35 -10 8 -13
272 -13 280 0 3 6 30 10 60 10 30 0 57 5 60 10 3 6 17 10 31 10 17 0 24 5 24
20 0 16 -7 20 -34 20 -19 0 -38 4 -41 10 -8 13 -52 13 -60 0 -4 -6 -67 -10
-155 -10 -88 0 -151 4 -155 10 -3 6 -23 10 -43 10 -79 0 -83 4 -76 79 4 36 10
70 15 75 5 6 9 20 9 33 0 13 4 23 9 23 5 0 11 19 15 42 4 23 12 49 19 57 8 9
13 65 15 160 2 80 8 150 13 156 12 12 12 628 0 640 -5 6 -11 143 -13 305 l-3
295 53 3 c28 2 52 7 52 13 0 5 11 9 24 9 14 0 28 5 31 10 3 6 17 10 30 10 13
0 27 -4 30 -10 8 -12 62 -13 69 -1 3 4 46 12 96 15 49 4 90 12 90 17 0 5 27 9
59 9 56 0 61 -2 90 -36 39 -49 61 -41 61 21 0 67 -14 76 -117 80 -49 1 -108 1
-133 -2z"/>
</g>
</svg>
