<?xml version="1.0" standalone="no"?>
<!DOCTYPE svg PUBLIC "-//W3C//DTD SVG 20010904//EN"
 "http://www.w3.org/TR/2001/REC-SVG-20010904/DTD/svg10.dtd">
<svg version="1.0" xmlns="http://www.w3.org/2000/svg"
 width="274.000000pt" height="253.000000pt" viewBox="0 0 274.000000 253.000000"
 preserveAspectRatio="xMidYMid meet">
<metadata>
Created by potrace 1.15, written by Peter Selinger 2001-2017
</metadata>
<g transform="translate(0.000000,253.000000) scale(0.100000,-0.100000)"
fill="#000000" stroke="none">
<path d="M580 2031 c0 -19 13 -43 40 -74 22 -25 40 -49 40 -54 0 -12 183 -193
196 -193 13 0 89 -80 97 -102 4 -10 12 -18 19 -18 8 0 43 -29 78 -65 35 -36
68 -65 72 -65 5 0 30 -22 57 -50 27 -27 53 -50 58 -50 4 0 73 -65 153 -145 80
-80 151 -145 158 -145 7 0 15 -7 18 -15 4 -8 17 -15 30 -15 13 0 24 -5 24 -12
0 -6 42 -55 93 -108 50 -53 101 -108 112 -123 11 -14 25 -26 30 -27 14 0 85
-73 85 -86 0 -21 39 -90 63 -112 31 -30 71 -27 75 5 2 14 -6 32 -22 46 -14 14
-29 38 -32 55 -3 16 -21 45 -40 63 -19 18 -34 38 -34 44 0 14 -302 315 -316
315 -7 0 -84 70 -172 155 -88 85 -163 155 -167 155 -5 0 -31 20 -59 45 -90 81
-95 85 -104 85 -10 0 -72 63 -72 74 0 11 -137 146 -148 146 -5 0 -17 10 -28
21 -10 12 -29 25 -41 30 -13 5 -23 14 -23 22 0 7 -27 39 -60 72 -46 45 -60 66
-60 88 0 38 -35 66 -82 67 -35 0 -38 -2 -38 -29z"/>
</g>
</svg>
