<?xml version="1.0" standalone="no"?>
<!DOCTYPE svg PUBLIC "-//W3C//DTD SVG 20010904//EN"
 "http://www.w3.org/TR/2001/REC-SVG-20010904/DTD/svg10.dtd">
<svg version="1.0" xmlns="http://www.w3.org/2000/svg"
 width="313.000000pt" height="351.000000pt" viewBox="0 0 313.000000 351.000000"
 preserveAspectRatio="xMidYMid meet">
<metadata>
Created by potrace 1.15, written by Peter Selinger 2001-2017
</metadata>
<g transform="translate(0.000000,351.000000) scale(0.100000,-0.100000)"
fill="#000000" stroke="none">
<path d="M1710 3020 c0 -5 -13 -10 -29 -10 -16 0 -34 -7 -41 -15 -7 -8 -23
-15 -35 -15 -13 0 -25 -6 -27 -12 -4 -10 -54 -14 -194 -16 -104 -2 -193 -8
-198 -13 -6 -5 -88 -9 -183 -9 l-173 0 0 -30 0 -30 284 0 c157 0 287 4 290 9
3 4 56 12 117 16 62 4 119 10 128 15 73 36 72 36 92 10 13 -18 19 -42 19 -80
0 -31 5 -61 12 -68 8 -8 13 -93 16 -277 3 -146 8 -265 12 -265 4 0 10 -30 13
-66 2 -36 10 -71 16 -77 13 -13 15 -117 2 -117 -4 0 -12 -105 -15 -232 -4
-128 -12 -237 -17 -243 -13 -13 -12 -362 1 -370 6 -4 10 -68 10 -160 0 -92 -4
-156 -10 -160 -5 -3 -10 -37 -10 -76 l0 -69 -40 0 c-22 0 -40 -4 -40 -8 0 -5
-44 -12 -97 -15 -53 -4 -101 -11 -107 -17 -5 -5 -27 -10 -47 -10 -21 0 -39 -5
-41 -11 -3 -8 -43 -12 -121 -13 -112 -1 -117 -2 -117 -22 0 -42 21 -47 176
-42 89 3 150 10 157 17 6 6 23 11 37 11 14 0 30 4 36 10 5 5 64 12 129 16 66
3 129 10 140 15 20 10 20 20 20 534 0 406 3 527 13 537 17 17 17 479 0 496 -9
9 -14 79 -16 242 -3 127 -8 230 -12 230 -4 0 -11 60 -14 133 -5 97 -12 143
-26 172 -10 22 -21 52 -24 68 -6 24 -11 27 -46 27 -22 0 -40 -4 -40 -10z"/>
</g>
</svg>
