<?xml version="1.0" standalone="no"?>
<!DOCTYPE svg PUBLIC "-//W3C//DTD SVG 20010904//EN"
 "http://www.w3.org/TR/2001/REC-SVG-20010904/DTD/svg10.dtd">
<svg version="1.0" xmlns="http://www.w3.org/2000/svg"
 width="272.000000pt" height="267.000000pt" viewBox="0 0 272.000000 267.000000"
 preserveAspectRatio="xMidYMid meet">
<metadata>
Created by potrace 1.15, written by Peter Selinger 2001-2017
</metadata>
<g transform="translate(0.000000,267.000000) scale(0.100000,-0.100000)"
fill="#000000" stroke="none">
<path d="M1423 2478 c-11 -13 -27 -39 -36 -58 -9 -19 -25 -42 -36 -50 -12 -8
-21 -24 -21 -36 0 -12 -6 -27 -14 -33 -7 -6 -16 -25 -20 -43 -3 -17 -14 -38
-25 -47 -10 -9 -22 -27 -26 -41 -4 -14 -23 -44 -41 -67 -19 -23 -34 -51 -34
-62 0 -12 -7 -24 -15 -27 -8 -4 -15 -12 -15 -18 0 -7 -11 -23 -25 -36 -14 -13
-25 -28 -25 -33 0 -5 -13 -26 -30 -47 -16 -21 -30 -42 -30 -47 0 -5 -11 -20
-25 -33 -14 -13 -25 -30 -25 -39 0 -8 -9 -25 -21 -37 -11 -12 -28 -37 -37 -55
-12 -24 -35 -43 -74 -64 -32 -16 -58 -34 -58 -40 0 -19 23 -35 52 -35 36 0
108 44 108 66 0 5 16 25 36 45 37 38 52 60 78 115 8 17 22 36 30 44 9 7 16 19
16 27 0 7 7 16 15 19 8 4 15 12 15 18 0 7 11 23 25 36 14 13 25 29 25 36 0 6
7 17 15 24 8 7 15 20 15 29 0 10 11 28 24 41 14 12 28 37 32 54 4 17 17 44 29
61 12 16 25 37 28 45 4 8 11 22 16 30 5 8 12 22 15 30 8 20 26 49 54 83 12 16
22 35 22 43 0 8 4 14 8 14 16 0 31 -45 37 -112 4 -37 11 -70 16 -73 5 -4 9
-30 9 -59 0 -35 5 -58 15 -66 8 -7 15 -20 15 -29 0 -9 7 -25 15 -35 8 -11 15
-28 15 -39 0 -10 10 -33 23 -50 12 -18 30 -48 41 -67 10 -19 27 -42 37 -51 11
-9 19 -25 19 -36 0 -11 9 -28 20 -38 11 -10 20 -26 20 -35 0 -22 41 -60 66
-60 49 0 57 47 16 87 -16 16 -36 45 -45 65 -10 20 -22 40 -27 43 -6 3 -10 13
-10 22 0 8 -14 32 -30 52 -17 20 -35 41 -40 48 -6 7 -10 23 -10 37 0 14 -4 27
-9 31 -5 3 -12 19 -16 36 -4 17 -13 42 -21 57 -8 15 -14 35 -14 44 0 9 -4 20
-10 23 -5 3 -10 21 -10 40 0 19 -4 36 -9 39 -4 3 -10 36 -13 73 -3 38 -11 80
-19 93 -23 41 -52 70 -69 70 -9 0 -26 -10 -37 -22z"/>
</g>
</svg>
