<?xml version="1.0" standalone="no"?>
<!DOCTYPE svg PUBLIC "-//W3C//DTD SVG 20010904//EN"
 "http://www.w3.org/TR/2001/REC-SVG-20010904/DTD/svg10.dtd">
<svg version="1.0" xmlns="http://www.w3.org/2000/svg"
 width="275.000000pt" height="256.000000pt" viewBox="0 0 275.000000 256.000000"
 preserveAspectRatio="xMidYMid meet">
<metadata>
Created by potrace 1.15, written by Peter Selinger 2001-2017
</metadata>
<g transform="translate(0.000000,256.000000) scale(0.100000,-0.100000)"
fill="#000000" stroke="none">
<path d="M1736 375 c-15 -8 -39 -15 -52 -15 -13 0 -24 -4 -24 -9 0 -5 -54 -12
-120 -16 -66 -4 -120 -11 -120 -15 0 -4 -39 -10 -87 -14 -48 -3 -92 -11 -97
-16 -6 -6 -44 -10 -86 -10 -42 0 -81 -5 -87 -11 -6 -6 -60 -11 -137 -11 l-126
-1 0 -28 c0 -27 2 -28 67 -35 78 -8 363 4 378 16 6 5 38 12 73 16 34 3 65 11
68 15 3 5 30 9 60 9 30 0 54 4 54 9 0 5 48 12 108 16 59 4 112 11 118 16 6 5
60 11 121 15 96 6 114 5 141 -11 27 -17 34 -17 57 -5 31 17 37 70 7 70 -10 0
-24 6 -30 13 -21 20 -249 22 -286 2z"/>
</g>
</svg>
