<?xml version="1.0" standalone="no"?>
<!DOCTYPE svg PUBLIC "-//W3C//DTD SVG 20010904//EN"
 "http://www.w3.org/TR/2001/REC-SVG-20010904/DTD/svg10.dtd">
<svg version="1.0" xmlns="http://www.w3.org/2000/svg"
 width="264.000000pt" height="254.000000pt" viewBox="0 0 264.000000 254.000000"
 preserveAspectRatio="xMidYMid meet">
<metadata>
Created by potrace 1.15, written by Peter Selinger 2001-2017
</metadata>
<g transform="translate(0.000000,254.000000) scale(0.100000,-0.100000)"
fill="#000000" stroke="none">
<path d="M1022 2238 c-19 -19 -15 -48 8 -48 13 0 25 -12 34 -35 8 -19 23 -38
33 -42 10 -4 25 -15 34 -25 9 -10 21 -18 26 -18 6 0 16 -7 23 -15 7 -8 19 -15
26 -15 20 0 94 -33 94 -42 0 -5 11 -8 24 -8 13 0 34 -8 47 -18 13 -10 38 -24
54 -31 17 -7 37 -17 45 -22 8 -5 23 -12 33 -15 9 -4 17 -10 17 -15 0 -5 25 -9
56 -9 l55 0 -3 31 c-2 18 -10 35 -18 39 -86 43 -132 62 -163 67 -20 3 -46 16
-58 29 -12 13 -27 24 -33 24 -6 0 -33 11 -61 24 -80 38 -122 56 -134 56 -6 0
-11 11 -11 24 0 13 -8 27 -17 30 -33 13 -63 31 -63 38 0 12 -35 9 -48 -4z"/>
</g>
</svg>
