<?xml version="1.0" standalone="no"?>
<!DOCTYPE svg PUBLIC "-//W3C//DTD SVG 20010904//EN"
 "http://www.w3.org/TR/2001/REC-SVG-20010904/DTD/svg10.dtd">
<svg version="1.0" xmlns="http://www.w3.org/2000/svg"
 width="127.000000pt" height="106.000000pt" viewBox="0 0 127.000000 106.000000"
 preserveAspectRatio="xMidYMid meet">
<metadata>
Created by potrace 1.15, written by Peter Selinger 2001-2017
</metadata>
<g transform="translate(0.000000,106.000000) scale(0.100000,-0.100000)"
fill="#000000" stroke="none">
<path d="M666 911 c-3 -4 -28 -11 -55 -15 -28 -4 -53 -11 -56 -16 -3 -6 -13
-10 -21 -10 -20 0 -94 -33 -94 -42 0 -4 -24 -18 -52 -32 -56 -25 -198 -161
-198 -188 0 -8 -9 -23 -20 -33 -11 -10 -20 -26 -20 -35 0 -10 -6 -23 -14 -29
-17 -14 -30 -144 -21 -211 6 -44 10 -50 30 -50 13 0 27 -4 30 -10 3 -5 17 -10
31 -10 15 0 39 -15 64 -40 36 -36 45 -40 92 -40 41 0 71 9 144 45 50 25 97 52
104 59 6 8 24 18 40 21 16 3 31 13 34 21 3 8 11 14 18 14 8 0 40 27 73 60 33
33 63 60 67 60 4 0 21 -29 38 -64 18 -36 38 -70 46 -77 8 -6 14 -16 14 -22 0
-14 50 -67 63 -67 5 0 25 -13 44 -30 18 -16 45 -30 58 -30 14 0 25 -4 25 -10
0 -5 14 -10 30 -10 53 0 35 40 -25 54 -49 12 -151 120 -191 203 -19 40 -38 74
-43 78 -13 7 -2 41 20 61 10 9 19 23 19 30 0 7 6 17 14 21 7 4 25 30 40 56 20
37 26 61 26 110 0 62 -1 64 -47 109 -33 32 -60 49 -86 53 -20 4 -40 11 -43 16
-7 12 -171 12 -178 0z m178 -60 c3 -4 19 -11 36 -15 33 -6 47 -17 68 -54 23
-41 11 -129 -21 -153 -5 -4 -14 -17 -21 -30 -15 -31 -66 -40 -66 -11 0 10 -10
27 -21 38 -12 10 -25 28 -30 39 -19 44 -80 115 -97 115 -5 0 -15 7 -22 15 -7
8 -25 15 -41 15 -19 0 -29 5 -29 15 0 11 12 15 44 15 25 0 48 5 51 10 8 12
142 13 149 1z m-178 -139 c23 -20 43 -45 43 -54 1 -10 6 -18 13 -18 18 0 68
-51 68 -70 0 -9 9 -26 20 -38 11 -12 20 -24 20 -27 0 -10 -23 -30 -43 -38 -9
-3 -22 -18 -27 -32 -7 -17 -17 -25 -34 -25 -13 0 -26 -5 -28 -12 -3 -8 -35
-13 -97 -14 -52 -1 -98 -7 -104 -13 -6 -6 -21 -11 -34 -11 -13 0 -23 -4 -23
-9 0 -5 -23 -11 -51 -13 -28 -3 -55 -12 -60 -19 -6 -11 -12 -11 -26 -3 -13 9
-17 23 -16 54 1 24 7 48 13 54 5 5 10 23 10 38 0 15 4 28 9 28 5 0 11 18 15
40 3 22 10 40 15 40 5 0 12 14 16 30 4 17 15 36 26 43 10 6 19 16 19 21 0 15
52 66 67 66 7 0 13 4 13 9 0 13 46 20 94 15 28 -3 53 -16 82 -42z m-294 2 c4
-3 0 -17 -8 -32 -8 -15 -14 -33 -14 -40 0 -7 -4 -20 -9 -30 -31 -59 -60 -132
-66 -164 -3 -21 -10 -38 -15 -38 -6 0 -10 -10 -10 -23 0 -13 -4 -27 -9 -32 -5
-6 -11 -21 -13 -35 -4 -31 -45 -41 -54 -13 -3 10 -10 26 -15 35 -14 26 -11 48
6 48 9 0 15 9 15 25 0 14 5 25 10 25 6 0 10 22 10 49 0 38 6 56 25 79 14 17
25 34 25 38 0 10 101 114 110 114 4 0 9 -3 12 -6z m248 -392 c0 -5 -12 -14
-27 -21 -16 -8 -35 -17 -43 -22 -81 -47 -148 -73 -191 -73 -61 -1 -81 16 -54
44 14 13 40 21 90 25 68 7 128 26 140 45 7 12 85 13 85 2z"/>
</g>
</svg>
