<?xml version="1.0" standalone="no"?>
<!DOCTYPE svg PUBLIC "-//W3C//DTD SVG 20010904//EN"
 "http://www.w3.org/TR/2001/REC-SVG-20010904/DTD/svg10.dtd">
<svg version="1.0" xmlns="http://www.w3.org/2000/svg"
 width="120.000000pt" height="136.000000pt" viewBox="0 0 120.000000 136.000000"
 preserveAspectRatio="xMidYMid meet">
<metadata>
Created by potrace 1.15, written by Peter Selinger 2001-2017
</metadata>
<g transform="translate(0.000000,136.000000) scale(0.100000,-0.100000)"
fill="#000000" stroke="none">
<path d="M170 1231 c0 -11 -4 -23 -10 -26 -12 -8 -13 -62 -1 -69 5 -3 12 -52
16 -108 4 -57 11 -107 15 -113 4 -5 11 -48 15 -95 4 -46 11 -91 15 -100 21
-43 29 -70 35 -118 4 -28 11 -52 15 -52 5 0 12 -17 16 -37 4 -21 10 -40 13
-43 14 -11 41 -69 41 -87 0 -11 11 -30 24 -42 14 -13 32 -38 41 -55 30 -57 43
-79 52 -85 4 -3 13 -15 19 -26 17 -30 66 -27 74 4 5 21 7 22 19 7 10 -12 31
-16 85 -16 111 0 142 9 190 51 24 22 48 39 52 39 13 0 94 83 94 95 0 6 11 22
25 35 22 21 25 32 25 95 l0 72 -79 76 c-76 72 -80 75 -140 82 -33 4 -64 11
-67 16 -7 12 -201 12 -208 0 -3 -5 -22 -12 -42 -16 -20 -3 -44 -10 -53 -15 -9
-5 -23 -11 -31 -14 -8 -4 -28 -15 -45 -25 -45 -29 -65 -27 -65 8 0 17 -4 33
-10 36 -5 3 -10 24 -10 46 0 21 -4 39 -9 39 -4 0 -11 32 -15 72 -3 39 -10 76
-15 82 -5 6 -11 65 -13 130 -3 115 -4 120 -31 147 -34 34 -37 35 -37 10z m540
-561 c0 -5 24 -10 54 -10 34 0 58 -5 65 -14 7 -8 22 -17 34 -20 12 -3 44 -31
71 -61 47 -55 48 -58 42 -103 -5 -40 -15 -56 -68 -109 -34 -35 -66 -63 -71
-63 -5 0 -25 -13 -44 -30 -20 -18 -45 -30 -61 -30 -16 0 -33 -5 -39 -11 -5 -5
-34 -9 -64 -7 -45 2 -56 7 -64 26 -12 27 -29 24 -33 -7 -3 -18 -6 -20 -18 -10
-8 6 -14 18 -14 25 0 8 -4 14 -9 14 -5 0 -12 13 -16 28 -3 16 -21 44 -40 62
-19 18 -36 47 -40 66 -3 19 -10 34 -15 34 -6 0 -10 11 -10 24 0 14 -4 28 -10
31 -5 3 -10 20 -10 37 0 32 41 78 68 78 8 0 25 9 39 20 14 11 36 20 49 20 13
0 24 5 24 10 0 6 37 10 90 10 53 0 90 -4 90 -10z"/>
</g>
</svg>
