<?xml version="1.0" standalone="no"?>
<!DOCTYPE svg PUBLIC "-//W3C//DTD SVG 20010904//EN"
 "http://www.w3.org/TR/2001/REC-SVG-20010904/DTD/svg10.dtd">
<svg version="1.0" xmlns="http://www.w3.org/2000/svg"
 width="99.000000pt" height="93.000000pt" viewBox="0 0 99.000000 93.000000"
 preserveAspectRatio="xMidYMid meet">
<metadata>
Created by potrace 1.15, written by Peter Selinger 2001-2017
</metadata>
<g transform="translate(0.000000,93.000000) scale(0.100000,-0.100000)"
fill="#000000" stroke="none">
<path d="M495 800 c-3 -5 -19 -10 -34 -10 -16 0 -34 -7 -41 -15 -7 -8 -17 -15
-22 -15 -18 0 -126 -118 -153 -166 -15 -27 -33 -56 -41 -65 -8 -8 -14 -24 -14
-35 0 -11 -7 -29 -15 -40 -8 -10 -15 -31 -15 -46 0 -15 -4 -30 -10 -33 -5 -3
-10 -35 -10 -70 0 -51 6 -74 26 -112 54 -96 90 -113 246 -113 84 0 119 4 135
15 11 8 39 17 62 21 22 4 41 10 41 15 0 5 10 9 23 9 12 0 31 7 41 15 11 8 30
15 43 15 13 0 23 5 23 10 0 6 6 10 14 10 7 0 19 7 26 15 11 13 6 15 -33 15
-25 0 -48 -4 -51 -9 -3 -4 -26 -11 -51 -14 -45 -7 -84 -23 -97 -42 -4 -6 -68
-10 -156 -10 -159 0 -158 0 -195 57 -13 21 -17 49 -17 117 0 49 5 93 10 96 6
3 10 14 10 24 0 10 6 24 14 30 7 6 16 25 20 42 5 27 17 45 66 106 6 7 10 16
10 22 0 5 15 21 33 35 17 15 37 31 44 36 7 6 15 10 19 10 3 0 21 7 40 16 31
15 37 15 68 0 53 -25 68 -22 64 17 -2 27 -8 33 -30 35 -16 2 -28 8 -28 13 0
12 -57 12 -65 -1z"/>
</g>
</svg>
